<svg width="386" height="334" viewBox="0 0 386 334" fill="none" xmlns="http://www.w3.org/2000/svg">
<path d="M273.222 307.717H264.592V307.965H273.222V307.717Z" fill="#EBEBEB"/>
<path d="M357.203 295.8H338.145V296.048H357.203V295.8Z" fill="#EBEBEB"/>
<path d="M172.262 126.292V1.59497L11.792 1.59497V126.292L172.262 126.292Z" fill="#E0E0E0"/>
<path d="M14.0146 124.068L170.035 124.068L170.035 3.81959L14.0146 3.81959L14.0146 124.068Z" fill="#EBEBEB"/>
<path d="M89.9013 25.5393H88.9082V42.3033H89.9013V25.5393Z" fill="#E0E0E0"/>
<path d="M51.7744 96.2898H50.7812V41.8167H122.545V73.279H121.552V42.8098H51.7744V96.2898Z" fill="#E0E0E0"/>
<path d="M143.144 90.3311H142.151V73.7756H104.243V89.7551H103.25V72.7825H143.144V90.3311Z" fill="#E0E0E0"/>
<path d="M107.3 19.3818H71.5078V31.7066H107.3V19.3818Z" fill="#F5F5F5"/>
<path d="M139.635 48.9475H105.521V62.3349H139.635V48.9475Z" fill="#F5F5F5"/>
<path d="M115.453 82.8528H92.0254V96.6573H115.453V82.8528Z" fill="#F5F5F5"/>
<path d="M155.198 85.0874H130.102V95.5749H155.198V85.0874Z" fill="#F5F5F5"/>
<path d="M73.5724 51.7778H34.8105V69.6641H73.5724V51.7778Z" fill="#F5F5F5"/>
<path d="M63.6511 89.7551H38.9023V102.825H63.6511V89.7551Z" fill="#F5F5F5"/>
<path d="M94.7523 42.7421L89.4082 37.3979L84.0641 42.7421L89.4082 48.0862L94.7523 42.7421Z" fill="#F5F5F5"/>
<path d="M127.403 73.2699L122.059 67.9258L116.714 73.2699L122.059 78.614L127.403 73.2699Z" fill="#F5F5F5"/>
<path d="M314.863 90.5398H259.387V288.311H314.863V90.5398Z" fill="#F5F5F5"/>
<path d="M310.076 96.1807H264.174V283.822H310.076V96.1807Z" fill="#EBEBEB"/>
<path d="M301.715 101.702H272.527V103.639H301.715V101.702Z" fill="#E0E0E0"/>
<path d="M301.715 110.055H272.527V111.991H301.715V110.055Z" fill="#E0E0E0"/>
<path d="M301.715 118.417H272.527V120.353H301.715V118.417Z" fill="#E0E0E0"/>
<path d="M301.715 126.779H272.527V128.716H301.715V126.779Z" fill="#E0E0E0"/>
<path d="M301.715 135.141H272.527V137.077H301.715V135.141Z" fill="#E0E0E0"/>
<path d="M301.715 143.493H272.527V145.43H301.715V143.493Z" fill="#E0E0E0"/>
<path d="M301.715 151.855H272.527V153.792H301.715V151.855Z" fill="#E0E0E0"/>
<path d="M301.715 219.845H272.527V221.782H301.715V219.845Z" fill="#E0E0E0"/>
<path d="M301.715 228.207H272.527V230.144H301.715V228.207Z" fill="#E0E0E0"/>
<path d="M301.715 236.569H272.527V238.506H301.715V236.569Z" fill="#E0E0E0"/>
<path d="M301.715 244.921H272.527V246.858H301.715V244.921Z" fill="#E0E0E0"/>
<path d="M301.715 253.284H272.527V255.22H301.715V253.284Z" fill="#E0E0E0"/>
<path d="M301.715 261.646H272.527V263.582H301.715V261.646Z" fill="#E0E0E0"/>
<path d="M301.715 270.008H272.527V271.944H301.715V270.008Z" fill="#E0E0E0"/>
<path d="M303.156 180.477C303.156 181.116 302.967 181.74 302.613 182.271C302.258 182.801 301.754 183.215 301.164 183.459C300.574 183.704 299.925 183.768 299.299 183.643C298.673 183.519 298.098 183.211 297.647 182.76C297.195 182.308 296.888 181.733 296.763 181.107C296.639 180.481 296.703 179.832 296.947 179.242C297.191 178.652 297.605 178.148 298.136 177.794C298.666 177.439 299.29 177.25 299.929 177.25C300.353 177.248 300.773 177.331 301.166 177.493C301.558 177.655 301.914 177.892 302.214 178.192C302.514 178.492 302.752 178.849 302.913 179.241C303.075 179.633 303.158 180.053 303.156 180.477Z" fill="#E0E0E0"/>
<path d="M257.759 90.5398H202.283V288.311H257.759V90.5398Z" fill="#F5F5F5"/>
<path d="M252.973 96.1807H207.07V283.822H252.973V96.1807Z" fill="#EBEBEB"/>
<path d="M244.612 101.702H215.424V103.639H244.612V101.702Z" fill="#E0E0E0"/>
<path d="M244.612 110.055H215.424V111.991H244.612V110.055Z" fill="#E0E0E0"/>
<path d="M244.612 118.417H215.424V120.353H244.612V118.417Z" fill="#E0E0E0"/>
<path d="M244.612 126.779H215.424V128.716H244.612V126.779Z" fill="#E0E0E0"/>
<path d="M244.612 135.141H215.424V137.077H244.612V135.141Z" fill="#E0E0E0"/>
<path d="M244.612 143.493H215.424V145.43H244.612V143.493Z" fill="#E0E0E0"/>
<path d="M244.612 151.855H215.424V153.792H244.612V151.855Z" fill="#E0E0E0"/>
<path d="M244.612 219.845H215.424V221.782H244.612V219.845Z" fill="#E0E0E0"/>
<path d="M244.612 228.207H215.424V230.144H244.612V228.207Z" fill="#E0E0E0"/>
<path d="M244.612 236.569H215.424V238.506H244.612V236.569Z" fill="#E0E0E0"/>
<path d="M244.612 244.921H215.424V246.858H244.612V244.921Z" fill="#E0E0E0"/>
<path d="M244.612 253.284H215.424V255.22H244.612V253.284Z" fill="#E0E0E0"/>
<path d="M244.612 261.646H215.424V263.582H244.612V261.646Z" fill="#E0E0E0"/>
<path d="M244.612 270.008H215.424V271.944H244.612V270.008Z" fill="#E0E0E0"/>
<path d="M246.049 180.477C246.049 181.116 245.86 181.74 245.505 182.271C245.15 182.801 244.646 183.215 244.057 183.459C243.467 183.704 242.818 183.768 242.192 183.643C241.566 183.519 240.99 183.211 240.539 182.76C240.088 182.308 239.78 181.733 239.656 181.107C239.531 180.481 239.595 179.832 239.839 179.242C240.084 178.652 240.497 178.148 241.028 177.794C241.559 177.439 242.183 177.25 242.821 177.25C243.246 177.248 243.666 177.331 244.058 177.493C244.45 177.655 244.807 177.892 245.107 178.192C245.407 178.492 245.644 178.849 245.806 179.241C245.968 179.633 246.05 180.053 246.049 180.477Z" fill="#E0E0E0"/>
<path d="M371.968 90.5398H316.492V288.311H371.968V90.5398Z" fill="#F5F5F5"/>
<path d="M367.182 96.1807H321.279V283.822H367.182V96.1807Z" fill="#EBEBEB"/>
<path d="M358.821 101.702H329.633V103.639H358.821V101.702Z" fill="#E0E0E0"/>
<path d="M358.821 110.055H329.633V111.991H358.821V110.055Z" fill="#E0E0E0"/>
<path d="M358.821 118.417H329.633V120.353H358.821V118.417Z" fill="#E0E0E0"/>
<path d="M358.821 126.779H329.633V128.716H358.821V126.779Z" fill="#E0E0E0"/>
<path d="M358.821 135.141H329.633V137.077H358.821V135.141Z" fill="#E0E0E0"/>
<path d="M358.821 143.493H329.633V145.43H358.821V143.493Z" fill="#E0E0E0"/>
<path d="M358.821 151.855H329.633V153.792H358.821V151.855Z" fill="#E0E0E0"/>
<path d="M358.821 219.845H329.633V221.782H358.821V219.845Z" fill="#E0E0E0"/>
<path d="M358.821 228.207H329.633V230.144H358.821V228.207Z" fill="#E0E0E0"/>
<path d="M358.821 236.569H329.633V238.506H358.821V236.569Z" fill="#E0E0E0"/>
<path d="M358.821 244.921H329.633V246.858H358.821V244.921Z" fill="#E0E0E0"/>
<path d="M358.821 253.284H329.633V255.22H358.821V253.284Z" fill="#E0E0E0"/>
<path d="M358.821 261.646H329.633V263.582H358.821V261.646Z" fill="#E0E0E0"/>
<path d="M358.821 270.008H329.633V271.944H358.821V270.008Z" fill="#E0E0E0"/>
<path d="M360.262 180.477C360.262 181.116 360.073 181.74 359.718 182.271C359.363 182.801 358.859 183.215 358.269 183.459C357.68 183.704 357.031 183.768 356.405 183.643C355.779 183.519 355.203 183.211 354.752 182.76C354.301 182.308 353.993 181.733 353.869 181.107C353.744 180.481 353.808 179.832 354.052 179.242C354.297 178.652 354.71 178.148 355.241 177.794C355.772 177.439 356.396 177.25 357.034 177.25C357.459 177.248 357.879 177.331 358.271 177.493C358.663 177.655 359.02 177.892 359.32 178.192C359.62 178.492 359.857 178.849 360.019 179.241C360.181 179.633 360.263 180.053 360.262 180.477Z" fill="#E0E0E0"/>
<path d="M192.558 333.886C298.904 333.886 385.116 328.853 385.116 322.644C385.116 316.435 298.904 311.402 192.558 311.402C86.2111 311.402 0 316.435 0 322.644C0 328.853 86.2111 333.886 192.558 333.886Z" fill="#F5F5F5"/>
<path d="M37.5424 309.227C37.5424 309.227 32.3086 284.508 41.8327 271.121C51.3568 257.733 33.2322 270.972 31.1466 283.505C31.1466 283.505 28.0183 261.09 37.2544 245.329C46.4905 229.568 29.21 242.509 27.7402 258.746C27.7402 258.746 24.9098 238.764 29.1604 227.522C33.4109 216.28 26.0121 223.55 23.2016 230.561C20.391 237.573 24.0855 255.042 24.0855 255.042C24.0855 255.042 16.6767 222.795 9.66523 225.357C2.65374 227.919 20.1427 249.053 22.5759 260.037C22.5759 260.037 14.3031 245.25 8.02657 248.328C1.75 251.407 17.7493 252.936 25.0687 274.994L27.6409 285.332C27.6409 285.332 20.0136 270.763 15.0381 275.341C10.0625 279.92 29.786 287.894 34.3743 310.011L37.5424 309.227Z" fill="#407BFF"/>
<path d="M36.5212 310.647C36.5212 310.647 35.4189 279.483 20.0254 266.294C4.63187 253.105 30.2844 263.543 36.5212 277.933C36.5212 277.933 33.5915 250.126 17.8206 234.027C2.04974 217.929 26.6197 228.257 33.2241 247.276C33.2241 247.276 30.6519 222.447 22.2202 210.301C13.7885 198.155 24.7924 204.561 30.2844 212.149C35.7764 219.736 36.5212 241.734 36.5212 241.734C36.5212 241.734 35.7863 200.906 44.9529 201.89C54.1195 202.873 39.451 233.392 39.8184 247.276C39.8184 247.276 45.3204 227.095 53.7222 228.913C62.1241 230.73 43.4533 237.334 41.2585 265.927V279.076C41.2585 279.076 46.0255 259.322 53.3548 263.354C60.6841 267.386 39.451 282.79 40.5236 310.647H36.5212Z" fill="#407BFF"/>
<path opacity="0.2" d="M36.5212 310.647C36.5212 310.647 35.4189 279.483 20.0254 266.294C4.63187 253.105 30.2844 263.543 36.5212 277.933C36.5212 277.933 33.5915 250.126 17.8206 234.027C2.04974 217.929 26.6197 228.257 33.2241 247.276C33.2241 247.276 30.6519 222.447 22.2202 210.301C13.7885 198.155 24.7924 204.561 30.2844 212.149C35.7764 219.736 36.5212 241.734 36.5212 241.734C36.5212 241.734 35.7863 200.906 44.9529 201.89C54.1195 202.873 39.451 233.392 39.8184 247.276C39.8184 247.276 45.3204 227.095 53.7222 228.913C62.1241 230.73 43.4533 237.334 41.2585 265.927V279.076C41.2585 279.076 46.0255 259.322 53.3548 263.354C60.6841 267.386 39.451 282.79 40.5236 310.647H36.5212Z" fill="white"/>
<path d="M15.6133 308.83H60.8801V313.716C60.8801 316.613 59.7291 319.392 57.6804 321.441C55.6317 323.489 52.853 324.64 49.9557 324.64H26.5377C23.6404 324.64 20.8617 323.489 18.813 321.441C16.7642 319.392 15.6133 316.613 15.6133 313.716V308.83Z" fill="#263238"/>
<path d="M9.68359 306.218V309.674C9.68622 310.784 10.1289 311.847 10.9146 312.631C11.7003 313.415 12.7648 313.855 13.8746 313.855H62.6273C63.7362 313.855 64.7997 313.414 65.5838 312.63C66.3679 311.846 66.8084 310.783 66.8084 309.674V306.218H9.68359Z" fill="#263238"/>
<path opacity="0.2" d="M9.68359 306.218V309.674C9.68622 310.784 10.1289 311.847 10.9146 312.631C11.7003 313.415 12.7648 313.855 13.8746 313.855H62.6273C63.7362 313.855 64.7997 313.414 65.5838 312.63C66.3679 311.846 66.8084 310.783 66.8084 309.674V306.218H9.68359Z" fill="white"/>
<path d="M360.807 305.225C360.972 304.886 361.053 304.513 361.043 304.137C361.033 303.76 360.932 303.392 360.748 303.063C360.565 302.735 360.305 302.455 359.99 302.249C359.675 302.042 359.315 301.915 358.94 301.878C359.263 300.918 359.285 299.882 359.003 298.909C358.721 297.937 358.148 297.073 357.361 296.436C357.173 296.261 356.932 296.152 356.676 296.128C356.402 296.157 356.145 296.271 355.941 296.455L351.571 299.584C351.22 299.801 350.924 300.097 350.707 300.448C349.813 302.176 353.031 304.42 351.7 305.811C351.323 306.218 350.707 306.307 350.23 306.605C349.237 307.251 349.068 308.681 348.582 309.803C348.095 310.925 346.417 311.789 345.771 310.796C346.248 309.724 344.778 308.81 343.626 308.651C342.474 308.492 341.233 308.452 340.587 307.35C338.929 308.81 335.204 304.748 335.284 303.119C334.628 303.238 334.026 303.558 333.562 304.035C333.097 304.512 332.793 305.123 332.692 305.781C332.501 307.129 332.454 308.494 332.553 309.853C332.553 312.504 331.659 315.096 331.699 317.738C331.699 319.804 332.533 322.088 334.42 322.912C335.353 323.252 336.349 323.387 337.34 323.31L358.811 323.171C359.327 323.21 359.845 323.125 360.321 322.922C361.314 322.416 361.502 321.145 361.592 320.052C361.969 315.384 362.353 310.72 362.744 306.059L360.807 305.225Z" fill="#407BFF"/>
<path opacity="0.3" d="M360.807 305.225C360.972 304.886 361.053 304.513 361.043 304.137C361.033 303.76 360.932 303.392 360.748 303.063C360.565 302.735 360.305 302.455 359.99 302.249C359.675 302.042 359.315 301.915 358.94 301.878C359.263 300.918 359.285 299.882 359.003 298.909C358.721 297.937 358.148 297.073 357.361 296.436C357.173 296.261 356.932 296.152 356.676 296.128C356.402 296.157 356.145 296.271 355.941 296.455L351.571 299.584C351.22 299.801 350.924 300.097 350.707 300.448C349.813 302.176 353.031 304.42 351.7 305.811C351.323 306.218 350.707 306.307 350.23 306.605C349.237 307.251 349.068 308.681 348.582 309.803C348.095 310.925 346.417 311.789 345.771 310.796C346.248 309.724 344.778 308.81 343.626 308.651C342.474 308.492 341.233 308.452 340.587 307.35C338.929 308.81 335.204 304.748 335.284 303.119C334.628 303.238 334.026 303.558 333.562 304.035C333.097 304.512 332.793 305.123 332.692 305.781C332.501 307.129 332.454 308.494 332.553 309.853C332.553 312.504 331.659 315.096 331.699 317.738C331.699 319.804 332.533 322.088 334.42 322.912C335.353 323.252 336.349 323.387 337.34 323.31L358.811 323.171C359.327 323.21 359.845 323.125 360.321 322.922C361.314 322.416 361.502 321.145 361.592 320.052C361.969 315.384 362.353 310.72 362.744 306.059L360.807 305.225Z" fill="white"/>
<path d="M362.056 282.532H328.746L329.014 285.898L329.213 288.302L329.719 294.559L330.007 298.144L330.395 302.931L330.554 304.976L330.613 305.592L330.812 308.005L331.07 311.303L331.239 313.358L331.408 315.444L331.606 317.847L331.755 319.675L331.924 321.731L331.994 322.614H362.572L362.642 321.731L362.8 319.685L362.949 317.847L363.148 315.434L363.317 313.358L363.486 311.303L363.754 307.996L363.943 305.592L363.992 304.976L364.161 302.931L364.548 298.144L364.836 294.559L365.343 288.302L365.532 285.898L365.81 282.532H362.056ZM364.042 284.736L363.396 284.091H364.101L364.042 284.736ZM363.883 286.782L363.813 287.597L360.834 290.576L357.418 287.16L360.486 284.091H361.202L363.883 286.782ZM363.019 297.439L360.834 299.623L357.418 296.207L360.844 292.791L363.208 295.154L363.019 297.439ZM331.318 295.154L333.682 292.791L337.098 296.207L333.682 299.623L331.497 297.439L331.318 295.154ZM359.732 291.678L356.305 295.105L352.889 291.678L356.305 288.262L359.732 291.678ZM354.349 284.091H358.262L356.276 286.077L354.349 284.091ZM355.193 296.207L351.787 299.623L348.36 296.207L351.787 292.791L355.193 296.207ZM343.842 300.726L347.258 297.319L350.674 300.726L347.258 304.152L343.842 300.726ZM346.146 305.255L342.729 308.681L339.313 305.264L342.739 301.838L346.146 305.255ZM351.787 301.838L355.193 305.264L351.787 308.681L348.36 305.255L351.787 301.838ZM347.258 295.105L343.842 291.678L347.258 288.262L350.674 291.678L347.258 295.105ZM346.146 296.207L342.739 299.623L339.313 296.207L342.739 292.791L346.146 296.207ZM338.201 295.105L334.784 291.678L338.201 288.262L341.627 291.678L338.201 295.105ZM338.201 297.319L341.627 300.726L338.201 304.152L334.784 300.726L338.201 297.319ZM341.627 309.783L338.201 313.2L334.784 309.783L338.201 306.367L341.627 309.783ZM342.729 310.895L346.146 314.312L342.739 317.738L339.313 314.312L342.729 310.895ZM343.842 309.783L347.258 306.367L350.674 309.783L347.258 313.2L343.842 309.783ZM351.787 310.895L355.193 314.312L351.787 317.738L348.36 314.312L351.787 310.895ZM356.325 315.454L359.752 318.88L357.537 321.095H355.124L352.909 318.88L356.325 315.454ZM352.909 309.823L356.325 306.407L359.752 309.823L356.325 313.239L352.909 309.823ZM352.909 300.766L356.325 297.359L359.752 300.766L356.325 304.192L352.909 300.766ZM355.213 287.199L351.807 290.626L348.38 287.209L351.439 284.141H352.164L355.213 287.199ZM347.268 286.097L345.282 284.111H349.185L347.268 286.097ZM346.156 287.199L342.759 290.626L339.333 287.209L342.392 284.141H343.117L346.156 287.199ZM340.197 284.131L338.211 286.117L336.224 284.131H340.197ZM334.079 284.131L337.138 287.199L333.702 290.626L330.722 287.646L330.663 286.832L333.334 284.141L334.079 284.131ZM331.1 284.131L330.464 284.766L330.415 284.131H331.1ZM330.891 290.089L332.56 291.758L331.14 293.188L330.891 290.089ZM331.825 301.55L331.686 299.931L332.56 300.805L331.825 301.55ZM331.984 303.616L333.672 301.918L337.088 305.344L333.672 308.76L332.292 307.38L331.984 303.616ZM332.49 309.942V309.793L332.56 309.863L332.49 309.942ZM333.086 317.222L332.659 311.978L333.652 310.985L337.069 314.401L333.652 317.818L333.066 317.232L333.086 317.222ZM333.404 321.135L333.334 320.35L333.672 320.022L334.774 321.135H333.404ZM334.774 318.92L338.191 315.494L341.617 318.92L339.402 321.135H336.989L334.774 318.92ZM341.617 321.135L342.729 320.022L343.832 321.135H341.617ZM346.046 321.135L343.832 318.92L347.248 315.494L350.664 318.92L348.48 321.055L346.046 321.135ZM350.664 321.135L351.777 320.022L352.889 321.135H350.664ZM361.092 321.135H359.712L360.824 320.022L361.152 320.35L361.092 321.135ZM361.41 317.222L360.824 317.808L357.418 314.312L360.844 310.895L361.837 311.889L361.41 317.222ZM362.016 309.783V309.942L361.946 309.863L362.036 309.783H362.016ZM362.205 307.38L360.824 308.76L357.418 305.264L360.844 301.838L362.532 303.536L362.205 307.38ZM362.681 301.56L361.927 300.805L362.81 299.931L362.681 301.56ZM363.615 290.08L363.357 293.198L361.927 291.758L363.615 290.08Z" fill="#407BFF"/>
<g opacity="0.6">
<path d="M362.056 282.531H328.746L329.014 285.898L329.213 288.302L329.719 294.558L330.007 298.143L330.395 302.93L330.554 304.976L330.613 305.592L330.812 308.005L331.07 311.302L331.239 313.358L331.408 315.444L331.606 317.847L331.755 319.675L331.924 321.73L331.994 322.614H362.572L362.642 321.73L362.8 319.684L362.949 317.847L363.148 315.434L363.317 313.358L363.486 311.302L363.754 307.995L363.943 305.592L363.992 304.976L364.161 302.93L364.548 298.143L364.836 294.558L365.343 288.302L365.532 285.898L365.81 282.531H362.056ZM364.042 284.736L363.396 284.091H364.101L364.042 284.736ZM363.883 286.782L363.813 287.596L360.834 290.576L357.418 287.159L360.486 284.091H361.202L363.883 286.782ZM363.019 297.438L360.834 299.623L357.418 296.207L360.844 292.791L363.208 295.154L363.019 297.438ZM331.318 295.154L333.682 292.791L337.098 296.207L333.682 299.623L331.497 297.438L331.318 295.154ZM359.732 291.678L356.305 295.105L352.889 291.678L356.305 288.262L359.732 291.678ZM354.349 284.091H358.262L356.276 286.077L354.349 284.091ZM355.193 296.207L351.787 299.623L348.36 296.207L351.787 292.791L355.193 296.207ZM343.842 300.726L347.258 297.319L350.674 300.726L347.258 304.152L343.842 300.726ZM346.146 305.254L342.729 308.681L339.313 305.264L342.739 301.838L346.146 305.254ZM351.787 301.838L355.193 305.264L351.787 308.681L348.36 305.254L351.787 301.838ZM347.258 295.105L343.842 291.678L347.258 288.262L350.674 291.678L347.258 295.105ZM346.146 296.207L342.739 299.623L339.313 296.207L342.739 292.791L346.146 296.207ZM338.201 295.105L334.784 291.678L338.201 288.262L341.627 291.678L338.201 295.105ZM338.201 297.319L341.627 300.726L338.201 304.152L334.784 300.726L338.201 297.319ZM341.627 309.783L338.201 313.199L334.784 309.783L338.201 306.367L341.627 309.783ZM342.729 310.895L346.146 314.312L342.739 317.738L339.313 314.312L342.729 310.895ZM343.842 309.783L347.258 306.367L350.674 309.783L347.258 313.199L343.842 309.783ZM351.787 310.895L355.193 314.312L351.787 317.738L348.36 314.312L351.787 310.895ZM356.325 315.454L359.752 318.88L357.537 321.095H355.124L352.909 318.88L356.325 315.454ZM352.909 309.823L356.325 306.406L359.752 309.823L356.325 313.239L352.909 309.823ZM352.909 300.765L356.325 297.359L359.752 300.765L356.325 304.192L352.909 300.765ZM355.213 287.199L351.807 290.625L348.38 287.209L351.439 284.14H352.164L355.213 287.199ZM347.268 286.097L345.282 284.111H349.185L347.268 286.097ZM346.156 287.199L342.759 290.625L339.333 287.209L342.392 284.14H343.117L346.156 287.199ZM340.197 284.13L338.211 286.117L336.224 284.13H340.197ZM334.079 284.13L337.138 287.199L333.702 290.625L330.722 287.646L330.663 286.832L333.334 284.14L334.079 284.13ZM331.1 284.13L330.464 284.766L330.415 284.13H331.1ZM330.891 290.089L332.56 291.758L331.14 293.188L330.891 290.089ZM331.825 301.55L331.686 299.931L332.56 300.805L331.825 301.55ZM331.984 303.616L333.672 301.917L337.088 305.344L333.672 308.76L332.292 307.38L331.984 303.616ZM332.49 309.942V309.793L332.56 309.862L332.49 309.942ZM333.086 317.221L332.659 311.978L333.652 310.985L337.069 314.401L333.652 317.817L333.066 317.231L333.086 317.221ZM333.404 321.134L333.334 320.35L333.672 320.022L334.774 321.134H333.404ZM334.774 318.92L338.191 315.493L341.617 318.92L339.402 321.134H336.989L334.774 318.92ZM341.617 321.134L342.729 320.022L343.832 321.134H341.617ZM346.046 321.134L343.832 318.92L347.248 315.493L350.664 318.92L348.48 321.055L346.046 321.134ZM350.664 321.134L351.777 320.022L352.889 321.134H350.664ZM361.092 321.134H359.712L360.824 320.022L361.152 320.35L361.092 321.134ZM361.41 317.221L360.824 317.807L357.418 314.312L360.844 310.895L361.837 311.888L361.41 317.221ZM362.016 309.783V309.942L361.946 309.862L362.036 309.783H362.016ZM362.205 307.38L360.824 308.76L357.418 305.264L360.844 301.838L362.532 303.536L362.205 307.38ZM362.681 301.56L361.927 300.805L362.81 299.931L362.681 301.56ZM363.615 290.079L363.357 293.198L361.927 291.758L363.615 290.079Z" fill="white"/>
</g>
<path d="M328.24 285.491H366.317C367.216 285.491 367.945 284.762 367.945 283.862V282.76C367.945 281.861 367.216 281.131 366.317 281.131H328.24C327.341 281.131 326.611 281.861 326.611 282.76V283.862C326.611 284.762 327.341 285.491 328.24 285.491Z" fill="#407BFF"/>
<path d="M363.338 320.271H331.221C330.321 320.271 329.592 321 329.592 321.899V323.002C329.592 323.901 330.321 324.63 331.221 324.63H363.338C364.238 324.63 364.967 323.901 364.967 323.002V321.899C364.967 321 364.238 320.271 363.338 320.271Z" fill="#407BFF"/>
<path d="M308.686 302.782L280.998 300.06V268.836H270.024V300.05L242.216 302.782C240.884 302.912 239.648 303.534 238.749 304.525C237.849 305.516 237.351 306.806 237.35 308.144V312.306H313.533V308.144C313.532 306.809 313.036 305.522 312.141 304.531C311.246 303.54 310.014 302.917 308.686 302.782Z" fill="#263238"/>
<path opacity="0.1" d="M308.686 302.782L280.998 300.06V268.836H270.024V300.05L242.216 302.782C240.884 302.912 239.648 303.534 238.749 304.525C237.849 305.516 237.351 306.806 237.35 308.144V312.306H313.533V308.144C313.532 306.809 313.036 305.522 312.141 304.531C311.246 303.54 310.014 302.917 308.686 302.782Z" fill="white"/>
<path d="M240.288 324.63C244.248 324.63 247.458 321.42 247.458 317.46C247.458 313.5 244.248 310.29 240.288 310.29C236.327 310.29 233.117 313.5 233.117 317.46C233.117 321.42 236.327 324.63 240.288 324.63Z" fill="#263238"/>
<path d="M310.612 324.63C314.572 324.63 317.782 321.42 317.782 317.46C317.782 313.5 314.572 310.29 310.612 310.29C306.652 310.29 303.441 313.5 303.441 317.46C303.441 321.42 306.652 324.63 310.612 324.63Z" fill="#263238"/>
<path d="M268.137 242.538H282.934V273.087C282.934 274.175 282.502 275.218 281.733 275.987C280.964 276.756 279.921 277.189 278.833 277.189H272.288C271.2 277.189 270.157 276.756 269.388 275.987C268.619 275.218 268.186 274.175 268.186 273.087V242.538H268.137Z" fill="#263238"/>
<path opacity="0.2" d="M268.137 242.538H282.934V273.087C282.934 274.175 282.502 275.218 281.733 275.987C280.964 276.756 279.921 277.189 278.833 277.189H272.288C271.2 277.189 270.157 276.756 269.388 275.987C268.619 275.218 268.186 274.175 268.186 273.087V242.538H268.137Z" fill="white"/>
<path d="M313.832 182.375C313.832 182.375 305.608 233.699 289.391 242.528H305.877C305.877 242.528 322.174 225.079 327.139 182.375H313.832Z" fill="#263238"/>
<path opacity="0.1" d="M313.832 182.375C313.832 182.375 305.608 233.699 289.391 242.528H305.877C305.877 242.528 322.174 225.079 327.139 182.375H313.832Z" fill="white"/>
<path d="M311.496 246.521H237.577V240.254C237.577 238.937 238.101 237.674 239.032 236.743C239.963 235.812 241.226 235.288 242.543 235.288H306.53C307.847 235.288 309.11 235.812 310.042 236.743C310.973 237.674 311.496 238.937 311.496 240.254V246.521Z" fill="#407BFF"/>
<path d="M236.496 246.521H312.58C313.682 246.521 314.576 245.627 314.576 244.525V242.896C314.576 241.793 313.682 240.9 312.58 240.9H236.496C235.394 240.9 234.5 241.793 234.5 242.896V244.525C234.5 245.627 235.394 246.521 236.496 246.521Z" fill="#263238"/>
<path opacity="0.6" d="M236.496 246.521H312.58C313.682 246.521 314.576 245.627 314.576 244.525V242.896C314.576 241.793 313.682 240.9 312.58 240.9H236.496C235.394 240.9 234.5 241.793 234.5 242.896V244.525C234.5 245.627 235.394 246.521 236.496 246.521Z" fill="white"/>
<path d="M329.085 192.812H302.658C294.921 192.812 289.896 186.605 291.435 178.909L293.491 168.689C295.021 161.032 302.549 154.785 310.285 154.785H336.702C344.449 154.785 349.474 160.992 347.935 168.689L345.879 178.909C344.339 186.605 336.821 192.812 329.085 192.812Z" fill="#407BFF"/>
<path d="M195.263 158.43L188.42 154.567C187.352 153.704 186.091 153.112 184.745 152.839C180.969 152.777 177.194 153.073 173.473 153.723C172.48 154.11 172.838 162.085 173.473 162.214C174.109 162.343 183.991 162.462 184.875 162.214C185.758 161.966 187.914 159.553 187.914 159.553L192.988 162.949L195.263 158.43Z" fill="#EBB376"/>
<path d="M226.226 147.744C222.631 150.962 211.329 164.439 209.561 164.925C207.793 165.412 191.268 154.994 191.268 154.994L188.924 161.559C188.924 161.559 204.476 174.36 209.561 175.244C215.073 176.237 233.446 161.34 233.446 161.34L226.226 147.744Z" fill="#407BFF"/>
<path opacity="0.5" d="M233.446 161.34C233.446 161.34 229.305 164.697 224.339 168.113C218.877 171.887 212.422 175.75 209.551 175.244C204.457 174.37 188.904 161.569 188.904 161.569L191.248 155.004C191.248 155.004 207.794 165.402 209.551 164.935C211.309 164.469 222.621 150.972 226.196 147.754L230.924 156.633L233.446 161.34Z" fill="white"/>
<path opacity="0.2" d="M233.449 161.34C233.449 161.34 229.307 164.697 224.342 168.113C225.186 163.436 229 158.738 230.926 156.623L233.449 161.34Z" fill="black"/>
<path d="M243.737 189.863C243.737 189.863 227.043 160.684 226.229 147.744C226.229 147.744 231.959 137.147 239.477 134.833C246.995 132.519 266.897 133.84 266.897 133.84C266.897 133.84 282.638 149.988 291.159 186.724L243.737 189.863Z" fill="#407BFF"/>
<path opacity="0.7" d="M243.737 189.863C243.737 189.863 227.043 160.684 226.229 147.744C226.229 147.744 231.959 137.147 239.477 134.833C246.995 132.519 266.897 133.84 266.897 133.84C266.897 133.84 282.638 149.988 291.159 186.724L243.737 189.863Z" fill="white"/>
<path opacity="0.1" d="M255.514 156.067L265.405 153.743L269.01 162.889L265.207 166.951L259.009 164.925L255.514 156.067Z" fill="black"/>
<path d="M252.576 314.759L244.094 316.338L236.566 297.439L245.038 295.869L252.576 314.759Z" fill="#EBB376"/>
<path opacity="0.2" d="M245.038 295.869L236.576 297.448L240.876 308.254L249.199 306.277L245.038 295.869Z" fill="black"/>
<path d="M162.38 317.996L155.318 313.05L163.541 294.449L170.593 299.395L162.38 317.996Z" fill="#EBB376"/>
<path opacity="0.2" d="M170.591 299.395L163.539 294.459L158.842 305.095L166.072 309.654L170.591 299.395Z" fill="black"/>
<path d="M280.364 218.574L253.301 226.867L199.315 243.432C186.871 272.332 171.626 302.543 171.626 302.543L157.504 296.743C157.504 296.743 172.709 246.004 177.148 233.322C184.239 213.082 259.995 199.556 259.995 199.556L280.364 218.574Z" fill="#263238"/>
<path d="M170.921 307.846L153.531 300.319L155.796 292.374L174.705 301.004L170.921 307.846Z" fill="#407BFF"/>
<path opacity="0.2" d="M170.921 307.846L153.531 300.319L155.796 292.374L174.705 301.004L170.921 307.846Z" fill="white"/>
<path d="M154.237 312.544C154.237 312.544 154.138 312.445 154.138 312.435L154.029 312.326L154.148 312.425C154.207 312.306 155.409 310.18 154.962 309.078C154.905 308.939 154.817 308.816 154.705 308.716C154.594 308.616 154.461 308.543 154.317 308.502C154.158 308.441 153.984 308.435 153.821 308.486C153.659 308.536 153.519 308.64 153.423 308.78C153.132 309.462 153.09 310.225 153.304 310.935C152.728 310.21 152.003 309.485 151.397 309.455C151.269 309.455 151.142 309.486 151.028 309.545C150.914 309.603 150.816 309.689 150.741 309.793C150.602 309.942 150.507 310.127 150.469 310.328C150.43 310.528 150.449 310.735 150.523 310.925C150.821 311.408 151.288 311.762 151.834 311.918C152.54 312.21 153.276 312.423 154.029 312.554H154.098H154.158L154.237 312.544ZM153.751 309.048C153.82 308.949 153.939 308.85 154.217 308.939H154.307C154.38 308.971 154.446 309.017 154.5 309.075C154.555 309.133 154.597 309.202 154.624 309.277C154.903 309.932 154.416 311.213 154.068 311.958C154.035 311.9 153.999 311.843 153.959 311.789C153.579 310.926 153.505 309.959 153.751 309.048ZM150.851 310.776C150.811 310.654 150.805 310.523 150.833 310.397C150.861 310.271 150.922 310.156 151.01 310.061C151.044 310.008 151.091 309.965 151.146 309.935C151.202 309.906 151.264 309.891 151.327 309.892C151.933 309.892 152.956 311.154 153.612 312.137C152.122 311.799 151.109 311.303 150.851 310.776Z" fill="#407BFF"/>
<path d="M155.219 311.839L164.077 315.712C164.153 315.741 164.222 315.784 164.281 315.839C164.339 315.895 164.386 315.962 164.419 316.036C164.451 316.11 164.468 316.19 164.469 316.271C164.47 316.351 164.455 316.432 164.425 316.506L161.773 323.717C161.612 324.082 161.314 324.37 160.942 324.519C160.571 324.667 160.156 324.665 159.787 324.511C156.718 323.111 155.328 322.286 151.445 320.539C149.051 319.486 144.225 317.639 141.186 315.682C138.147 313.726 140.193 310.776 141.623 311.332C145.089 312.643 150.66 312.464 153.65 311.69C154.175 311.562 154.727 311.614 155.219 311.839Z" fill="#263238"/>
<path d="M243.041 315.454C243.041 315.305 242.892 312.862 241.998 312.087C241.857 311.983 241.696 311.91 241.525 311.872C241.354 311.835 241.177 311.834 241.005 311.869C240.829 311.881 240.661 311.95 240.529 312.067C240.396 312.184 240.305 312.341 240.27 312.514C240.304 313.256 240.604 313.961 241.115 314.5C240.398 314.075 239.553 313.917 238.731 314.054C238.614 314.11 238.512 314.195 238.436 314.301C238.36 314.407 238.311 314.53 238.294 314.659C238.24 314.855 238.241 315.061 238.297 315.256C238.353 315.45 238.462 315.626 238.612 315.762C239.1 316.068 239.684 316.181 240.251 316.08C241.013 316.015 241.766 315.865 242.495 315.633C242.506 315.637 242.518 315.64 242.53 315.64C242.542 315.64 242.554 315.637 242.565 315.633C242.565 315.633 242.565 315.633 242.565 315.573C242.565 315.513 242.773 315.523 242.783 315.494H242.962L243.041 315.454ZM240.668 312.594C240.668 312.474 240.747 312.335 241.025 312.286H241.125C241.204 312.281 241.284 312.293 241.359 312.32C241.435 312.347 241.503 312.39 241.562 312.445C242.108 312.902 242.257 314.262 242.296 315.076L242.118 314.977C241.365 314.381 240.851 313.536 240.668 312.594ZM238.91 315.454C238.821 315.362 238.756 315.249 238.723 315.126C238.69 315.003 238.689 314.873 238.721 314.749C238.725 314.685 238.747 314.623 238.783 314.57C238.82 314.518 238.871 314.476 238.93 314.451C239.476 314.193 240.916 314.828 241.989 315.394C240.469 315.792 239.337 315.811 238.91 315.454Z" fill="#407BFF"/>
<path d="M243.211 314.461L252.864 313.855C252.944 313.847 253.024 313.854 253.101 313.877C253.178 313.9 253.249 313.938 253.311 313.989C253.373 314.04 253.424 314.102 253.461 314.173C253.499 314.244 253.522 314.321 253.53 314.401L254.523 322.008C254.547 322.409 254.413 322.804 254.149 323.107C253.885 323.41 253.513 323.597 253.112 323.627C249.746 323.776 248.147 323.687 243.876 323.915C241.274 324.074 236.13 324.63 232.535 324.283C228.94 323.935 229.377 320.38 230.936 320.211C234.62 319.794 239.497 317.092 241.801 315.037C242.195 314.695 242.69 314.493 243.211 314.461Z" fill="#263238"/>
<path d="M227.221 139.491C228.699 138.97 230.311 138.97 231.789 139.491C232.128 140.936 232.941 142.225 234.099 143.154C235.256 144.083 236.691 144.598 238.175 144.616C238.908 144.653 239.642 144.623 240.37 144.527C247.808 143.533 246.994 132.44 246.994 132.44C244.282 132.634 241.577 131.985 239.248 130.583C237.271 129.423 235.545 127.88 234.173 126.044L227.221 139.491Z" fill="#EBB376"/>
<path opacity="0.2" d="M227.221 139.491C228.699 138.97 230.311 138.97 231.789 139.491C232.128 140.936 232.941 142.225 234.099 143.154C235.256 144.083 236.691 144.598 238.175 144.616C240.092 139.879 239.843 134.456 239.248 130.583C237.271 129.423 235.545 127.88 234.173 126.044L227.221 139.491Z" fill="black"/>
<path d="M222.035 115.041C225.71 116.63 224.935 120.652 218.679 127.951C214.954 124.644 213.028 117.206 215.044 114.862C217.06 112.518 218.828 113.66 222.035 115.041Z" fill="#263238"/>
<path d="M237.182 118.447C238.334 126.471 239.407 131.109 236.259 136.005C231.511 143.364 220.984 141.766 217.449 134.238C214.291 127.484 212.93 115.497 220.031 110.75C221.591 109.698 223.394 109.061 225.27 108.899C227.145 108.738 229.03 109.058 230.747 109.828C232.464 110.599 233.957 111.795 235.083 113.303C236.209 114.811 236.931 116.582 237.182 118.447Z" fill="#EBB376"/>
<path d="M225.801 123.075C225.94 123.72 225.701 124.306 225.274 124.396C224.847 124.485 224.41 124.038 224.281 123.403C224.152 122.767 224.37 122.161 224.797 122.072C225.225 121.982 225.622 122.449 225.801 123.075Z" fill="#263238"/>
<path d="M218.47 124.604C218.609 125.24 218.37 125.836 217.953 125.925C217.536 126.014 217.079 125.568 216.96 124.932C216.841 124.296 217.059 123.691 217.486 123.611C217.913 123.532 218.38 123.959 218.47 124.604Z" fill="#263238"/>
<path d="M220.923 124.406C220.564 126.538 219.912 128.61 218.986 130.563C219.494 130.786 220.044 130.895 220.598 130.883C221.152 130.871 221.697 130.738 222.194 130.494L220.923 124.406Z" fill="#D58745"/>
<path d="M232.573 112.081C229.127 114.117 230.408 118.04 237.539 124.416C240.816 120.652 241.79 113.024 239.525 110.969C237.261 108.913 235.582 110.313 232.573 112.081Z" fill="#263238"/>
<path d="M242.268 124.008C242.115 126.042 241.161 127.931 239.616 129.262C237.551 131 235.405 129.431 235.038 126.898C234.71 124.614 235.386 120.94 237.908 120.205C240.431 119.47 242.447 121.516 242.268 124.008Z" fill="#EBB376"/>
<path d="M229.089 119.281C229.034 119.331 228.966 119.366 228.893 119.381C228.819 119.397 228.743 119.393 228.672 119.37C228.186 119.185 227.663 119.117 227.146 119.17C226.628 119.223 226.131 119.398 225.693 119.678C225.607 119.745 225.498 119.776 225.39 119.763C225.282 119.75 225.184 119.694 225.117 119.609C225.05 119.523 225.019 119.414 225.032 119.306C225.045 119.198 225.101 119.1 225.186 119.033C225.728 118.669 226.348 118.44 226.996 118.364C227.643 118.288 228.3 118.367 228.911 118.596C228.961 118.611 229.008 118.637 229.049 118.671C229.089 118.705 229.122 118.747 229.146 118.795C229.17 118.842 229.185 118.893 229.189 118.946C229.192 118.999 229.186 119.052 229.169 119.102C229.152 119.166 229.125 119.226 229.089 119.281Z" fill="#263238"/>
<path d="M214.49 121.258C214.407 121.246 214.331 121.207 214.272 121.148C214.213 121.058 214.192 120.949 214.213 120.843C214.233 120.738 214.293 120.644 214.381 120.582C214.921 120.216 215.542 119.986 216.19 119.91C216.838 119.834 217.495 119.914 218.105 120.145C218.155 120.166 218.2 120.196 218.238 120.235C218.275 120.273 218.305 120.319 218.324 120.369C218.344 120.419 218.353 120.472 218.351 120.526C218.349 120.58 218.336 120.633 218.314 120.682C218.27 120.78 218.189 120.858 218.089 120.897C217.988 120.936 217.876 120.934 217.777 120.89C217.284 120.719 216.758 120.665 216.24 120.734C215.723 120.803 215.229 120.993 214.798 121.287C214.747 121.304 214.694 121.31 214.641 121.305C214.588 121.299 214.537 121.283 214.49 121.258Z" fill="#263238"/>
<path d="M238.622 111.862C238.622 111.862 240.39 108.347 235.742 105.298C231.095 102.249 217.032 104.632 211.997 111.008C206.962 117.384 211.331 121.267 211.331 121.267C211.119 120.212 211.284 119.115 211.798 118.169C212.325 119.239 213.176 120.115 214.231 120.671C215.83 121.387 214.767 121.158 214.767 121.158C214.7 119.478 215.243 117.83 216.297 116.52C217.505 117.705 218.975 118.589 220.587 119.102C220.938 117.716 221.764 116.496 222.921 115.656C222.921 115.656 223.795 118.467 225.136 118.735C225.136 118.735 225.017 116.441 228.115 114.762C228.115 114.762 228.463 116.947 229.337 117.523C229.367 117.603 230.846 112.657 238.622 111.862Z" fill="#263238"/>
<path d="M224.26 133.195C224.19 133.195 224.121 133.174 224.062 133.135C224.019 133.11 223.982 133.076 223.953 133.036C223.924 132.996 223.903 132.951 223.892 132.902C223.881 132.854 223.88 132.804 223.888 132.755C223.897 132.707 223.916 132.66 223.943 132.619C225.097 130.976 226.78 129.777 228.71 129.222C228.756 129.207 228.805 129.202 228.853 129.206C228.902 129.21 228.949 129.225 228.992 129.248C229.034 129.271 229.072 129.303 229.102 129.341C229.132 129.38 229.154 129.424 229.166 129.471C229.194 129.565 229.184 129.667 229.138 129.755C229.091 129.842 229.012 129.908 228.918 129.937C227.165 130.449 225.634 131.533 224.568 133.016C224.537 133.07 224.492 133.115 224.438 133.147C224.384 133.178 224.323 133.195 224.26 133.195Z" fill="#263238"/>
<path d="M224.607 127.752C223.715 127.672 222.877 127.293 222.228 126.676C221.579 126.06 221.158 125.242 221.032 124.356C220.614 122.161 221.786 120.085 223.643 119.728C225.501 119.37 227.348 120.88 227.765 123.075C227.971 124.089 227.816 125.142 227.328 126.054C227.109 126.471 226.8 126.834 226.424 127.117C226.048 127.401 225.614 127.597 225.153 127.693C224.973 127.728 224.79 127.748 224.607 127.752ZM224.19 120.205C224.041 120.19 223.891 120.19 223.743 120.205C222.174 120.503 221.181 122.3 221.548 124.177C221.905 126.084 223.475 127.415 225.054 127.107C225.44 127.027 225.804 126.861 226.119 126.622C226.433 126.383 226.69 126.077 226.871 125.726C227.302 124.921 227.435 123.989 227.249 123.095C227.146 122.332 226.787 121.627 226.232 121.095C225.676 120.562 224.956 120.235 224.19 120.165V120.205Z" fill="#263238"/>
<path d="M216.066 129.193C215.306 129.181 214.575 128.904 214 128.408C213.21 127.736 212.679 126.808 212.5 125.786C212.083 123.591 213.255 121.526 215.112 121.168C215.576 121.089 216.052 121.113 216.506 121.241C216.959 121.368 217.379 121.594 217.734 121.903C218.524 122.572 219.054 123.496 219.234 124.515C219.434 125.529 219.28 126.581 218.797 127.494C218.578 127.91 218.269 128.272 217.893 128.554C217.517 128.835 217.082 129.03 216.622 129.123C216.439 129.166 216.253 129.189 216.066 129.193ZM213.017 125.697C213.172 126.594 213.635 127.409 214.328 128.001C214.62 128.26 214.967 128.449 215.344 128.553C215.72 128.657 216.116 128.673 216.5 128.6C216.883 128.528 217.245 128.368 217.557 128.133C217.87 127.898 218.124 127.595 218.3 127.246C218.72 126.432 218.855 125.501 218.684 124.601C218.513 123.701 218.046 122.884 217.357 122.28C217.062 122.021 216.712 121.831 216.334 121.725C215.956 121.618 215.559 121.598 215.172 121.665C213.593 121.963 212.61 123.76 212.977 125.637L213.017 125.697Z" fill="#263238"/>
<path d="M218.979 124.823C218.922 124.823 218.866 124.806 218.82 124.773C218.792 124.753 218.769 124.727 218.751 124.697C218.733 124.667 218.722 124.634 218.717 124.6C218.713 124.566 218.715 124.531 218.724 124.497C218.733 124.464 218.749 124.433 218.77 124.406C219.094 124.032 219.542 123.788 220.032 123.721C220.521 123.653 221.019 123.766 221.432 124.038C221.489 124.075 221.531 124.133 221.548 124.199C221.564 124.266 221.555 124.336 221.521 124.396C221.504 124.427 221.48 124.454 221.452 124.475C221.424 124.497 221.391 124.512 221.357 124.52C221.322 124.529 221.287 124.53 221.252 124.524C221.217 124.518 221.183 124.505 221.154 124.485C220.848 124.282 220.481 124.194 220.117 124.238C219.752 124.281 219.416 124.454 219.167 124.723C219.145 124.753 219.116 124.776 219.084 124.794C219.051 124.811 219.015 124.821 218.979 124.823Z" fill="#263238"/>
<path d="M227.508 123.353C227.45 123.352 227.394 123.332 227.349 123.296C227.304 123.26 227.273 123.21 227.259 123.154C227.241 123.088 227.25 123.018 227.283 122.958C227.317 122.899 227.372 122.855 227.438 122.837L234.887 120.751C234.955 120.735 235.027 120.746 235.088 120.781C235.148 120.816 235.194 120.873 235.214 120.94C235.23 121.007 235.219 121.077 235.184 121.136C235.148 121.195 235.092 121.239 235.026 121.257L227.577 123.343L227.508 123.353Z" fill="#263238"/>
<path opacity="0.2" d="M253.302 226.867L199.316 243.432C199.316 243.432 197.329 228.535 207.052 221.583C221.254 211.394 252.577 208.543 252.577 208.543C252.577 208.543 252.964 217.402 253.302 226.867Z" fill="black"/>
<path d="M242.484 209.735L244.569 196.676L243.735 189.863L291.157 186.695L291.872 194.292C291.872 194.292 297.513 220.948 293.6 228.178C286.648 241.088 257.848 240.582 232.831 240.582C238.263 256.472 249.168 296.694 249.168 296.694L236.088 302.653C236.088 302.653 210.853 256.75 205.122 236.878C200.087 219.329 224.627 214.065 242.484 209.735Z" fill="#263238"/>
<path d="M252.138 300.289L234.59 307.429L230.498 300.259L249.904 292.791L252.138 300.289Z" fill="#407BFF"/>
<path opacity="0.2" d="M252.138 300.289L234.59 307.429L230.498 300.259L249.904 292.791L252.138 300.289Z" fill="white"/>
<path d="M276.293 194.779L292.452 193.815L291.478 187.817L275.678 188.83L276.293 194.779Z" fill="black"/>
<path d="M246.418 190.697L243.736 190.876L244.571 196.676L246.885 196.537L246.418 190.697Z" fill="black"/>
<path d="M248.78 196.427L274.392 194.898L273.916 188.939L248.174 190.588L248.78 196.427Z" fill="black"/>
<path d="M256.309 196.507C255.751 196.509 255.213 196.3 254.803 195.923C254.392 195.545 254.139 195.027 254.094 194.471L253.906 192.306C253.853 191.724 254.032 191.146 254.404 190.695C254.776 190.245 255.311 189.96 255.892 189.903L260.49 189.505C260.782 189.477 261.077 189.508 261.357 189.597C261.637 189.686 261.896 189.83 262.119 190.022C262.341 190.21 262.524 190.44 262.657 190.699C262.79 190.958 262.87 191.241 262.893 191.531L263.082 193.696C263.109 193.988 263.077 194.283 262.988 194.563C262.899 194.842 262.756 195.102 262.566 195.325C262.38 195.551 262.15 195.736 261.891 195.871C261.631 196.006 261.347 196.087 261.056 196.11L256.458 196.497L256.309 196.507ZM260.718 190.488H260.619L256.021 190.886C255.859 190.898 255.702 190.943 255.558 191.017C255.414 191.09 255.286 191.192 255.181 191.316C255.077 191.44 254.998 191.583 254.949 191.738C254.901 191.893 254.884 192.055 254.899 192.217L255.077 194.391C255.107 194.716 255.264 195.016 255.514 195.226C255.765 195.432 256.084 195.535 256.408 195.514L261.006 195.116C261.169 195.103 261.327 195.057 261.472 194.982C261.617 194.907 261.745 194.804 261.851 194.679C262.058 194.43 262.161 194.11 262.139 193.786L261.95 191.621C261.936 191.458 261.89 191.3 261.815 191.155C261.74 191.01 261.638 190.882 261.513 190.776C261.292 190.587 261.009 190.485 260.718 190.488Z" fill="white"/>
<path d="M259.577 193.498C259.457 193.497 259.341 193.453 259.25 193.375C259.159 193.297 259.099 193.189 259.08 193.071C259.063 192.94 259.099 192.809 259.179 192.704C259.259 192.6 259.377 192.532 259.507 192.514L261.404 192.256C261.469 192.245 261.535 192.247 261.599 192.262C261.663 192.277 261.723 192.305 261.776 192.344C261.829 192.383 261.874 192.432 261.907 192.489C261.94 192.545 261.962 192.608 261.97 192.673C261.987 192.805 261.952 192.938 261.872 193.044C261.793 193.149 261.674 193.22 261.543 193.239L259.636 193.498H259.577Z" fill="white"/>
<path opacity="0.2" d="M242.683 148.837C242.683 148.837 247.49 165.829 253.299 177.33C253.299 177.33 244.153 160.278 240.736 147.138L242.683 148.837Z" fill="black"/>
<path d="M242.932 152.005L245.405 148.777H246.735L248.632 150.763L248.821 153.028C246.487 154.07 242.932 153.028 242.932 153.028V152.005Z" fill="#407BFF"/>
<path d="M245.307 149.601C245.255 145.477 244.809 141.366 243.977 137.326L245.307 137.902C246.565 141.956 247.017 146.218 246.638 150.445L245.307 149.601Z" fill="#407BFF"/>
<path d="M243.627 152.104C243.627 152.104 234.282 148.409 233.388 142.351L232.732 143.493C232.732 143.493 234.957 151.15 244.789 153.047L243.627 152.104Z" fill="#407BFF"/>
<path d="M247.52 151.528C248.474 151.375 249.377 150.992 250.15 150.412C250.923 149.833 251.544 149.074 251.959 148.201C254.173 143.106 251.959 135.628 257.441 132.311L260.52 133.403C258.805 134.71 257.553 136.529 256.944 138.597C255.832 142.868 254.571 153.435 247.52 153.037V151.528Z" fill="#407BFF"/>
<path d="M245.314 130.593L240.736 141.835L240.368 144.526L237.121 142.977L231.887 139.859C231.887 139.859 229.563 143.106 233.446 148.171L237.121 145.132L242.275 150.783L243.735 143.831L249.744 145.768C249.744 145.768 252.147 135.697 252.147 132.817L245.314 130.593Z" fill="#407BFF"/>
<path opacity="0.6" d="M252.147 132.817C252.147 135.717 249.734 145.798 249.734 145.798L243.716 143.861L242.266 150.813L237.111 145.162L233.437 148.201C229.554 143.136 231.868 139.888 231.868 139.888L237.111 143.007L240.359 144.556L240.726 141.865L245.295 130.623L252.147 132.817Z" fill="white"/>
<path opacity="0.2" d="M249.745 145.798L243.727 143.861L242.277 150.783L241.959 142.083L249.745 145.798Z" fill="black"/>
<path opacity="0.2" d="M242.276 150.783L237.122 145.132L233.447 148.171L236.069 143.484L242.276 150.783Z" fill="black"/>
<path d="M217.25 161.638L209.553 160.774C208.486 159.91 207.225 159.317 205.878 159.046C202.099 158.98 198.321 159.273 194.596 159.92C193.603 160.307 193.961 168.282 194.596 168.421C195.232 168.56 205.114 168.669 206.008 168.421C206.901 168.173 209.047 165.759 209.047 165.759L215.79 166.951L217.25 161.638Z" fill="#EBB376"/>
<path d="M266.896 133.811C263.718 134.456 249.019 162.373 249.019 162.373L211.191 160.526L210.625 167.001C210.625 167.001 244.52 174.38 252.158 172.96C259.795 171.54 273.569 147.704 274.394 145.083C276.271 139.114 269.031 133.374 266.896 133.811Z" fill="#407BFF"/>
<path opacity="0.6" d="M266.896 133.811C263.718 134.456 249.019 162.373 249.019 162.373L211.191 160.526L210.625 167.001C210.625 167.001 244.52 174.38 252.158 172.96C259.795 171.54 273.569 147.704 274.394 145.083C276.271 139.114 269.031 133.374 266.896 133.811Z" fill="white"/>
<path d="M237.786 60.905H133.041C131.987 60.905 130.977 61.3236 130.232 62.0685C129.487 62.8135 129.068 63.824 129.068 64.8775C129.068 65.9311 129.487 66.9415 130.232 67.6865C130.977 68.4315 131.987 68.8501 133.041 68.8501H237.786C238.84 68.8501 239.85 68.4315 240.595 67.6865C241.34 66.9415 241.759 65.9311 241.759 64.8775C241.759 63.824 241.34 62.8135 240.595 62.0685C239.85 61.3236 238.84 60.905 237.786 60.905Z" fill="#407BFF"/>
<path opacity="0.6" d="M237.786 60.905H133.041C131.987 60.905 130.977 61.3236 130.232 62.0685C129.487 62.8135 129.068 63.824 129.068 64.8775C129.068 65.9311 129.487 66.9415 130.232 67.6865C130.977 68.4315 131.987 68.8501 133.041 68.8501H237.786C238.84 68.8501 239.85 68.4315 240.595 67.6865C241.34 66.9415 241.759 65.9311 241.759 64.8775C241.759 63.824 241.34 62.8135 240.595 62.0685C239.85 61.3236 238.84 60.905 237.786 60.905Z" fill="white"/>
<path d="M196.264 61.7986H133.12C132.33 61.8434 131.587 62.1888 131.044 62.7641C130.5 63.3393 130.197 64.1008 130.197 64.8922C130.197 65.6836 130.5 66.4451 131.044 67.0203C131.587 67.5955 132.33 67.941 133.12 67.9858H196.264C197.054 67.941 197.797 67.5955 198.34 67.0203C198.884 66.4451 199.187 65.6836 199.187 64.8922C199.187 64.1008 198.884 63.3393 198.34 62.7641C197.797 62.1888 197.054 61.8434 196.264 61.7986Z" fill="#407BFF"/>
<path d="M162.863 50.1692C162.863 51.1624 162.118 51.8178 160.877 51.8178H159.705V53.2678H159.02V48.5206H160.877C162.118 48.5107 162.863 49.1364 162.863 50.1692ZM162.188 50.1692C162.188 49.484 161.731 49.0966 160.867 49.0966H159.715V51.2815H160.867C161.77 51.2815 162.188 50.8445 162.188 50.1692Z" fill="#263238"/>
<path d="M167.046 53.2677L166.053 51.8078H165.755H164.584V53.2677H163.908V48.5205H165.745C166.987 48.5205 167.732 49.1462 167.732 50.179C167.747 50.5089 167.654 50.8348 167.465 51.1059C167.276 51.3771 167.004 51.5784 166.689 51.6787L167.811 53.2677H167.046ZM167.046 50.179C167.046 49.4938 166.59 49.1065 165.716 49.1065H164.564V51.2814H165.745C166.57 51.2814 167.027 50.8444 167.027 50.1691L167.046 50.179Z" fill="#263238"/>
<path d="M168.416 50.8842C168.398 50.3818 168.53 49.8856 168.797 49.4592C169.063 49.0328 169.45 48.6956 169.909 48.4909C170.368 48.2862 170.878 48.2233 171.373 48.3103C171.868 48.3973 172.326 48.6302 172.688 48.9792C173.05 49.3281 173.299 49.7772 173.404 50.2688C173.509 50.7605 173.464 51.2722 173.276 51.7383C173.088 52.2045 172.765 52.6039 172.348 52.8852C171.932 53.1665 171.441 53.317 170.938 53.3173C170.611 53.3322 170.283 53.2801 169.976 53.1642C169.67 53.0484 169.39 52.8712 169.153 52.6435C168.917 52.4157 168.73 52.1423 168.603 51.8398C168.476 51.5373 168.413 51.2122 168.416 50.8842ZM172.785 50.8842C172.789 50.518 172.684 50.1589 172.484 49.8525C172.283 49.5462 171.996 49.3063 171.659 49.1634C171.322 49.0206 170.95 48.9812 170.59 49.0502C170.231 49.1192 169.9 49.2935 169.639 49.5511C169.379 49.8086 169.201 50.1377 169.128 50.4966C169.055 50.8554 169.091 51.2278 169.23 51.5665C169.369 51.9052 169.606 52.1949 169.91 52.3988C170.214 52.6026 170.572 52.7115 170.938 52.7115C171.181 52.7197 171.424 52.6782 171.65 52.5895C171.876 52.5008 172.083 52.3668 172.255 52.1957C172.428 52.0247 172.565 51.8201 172.656 51.5946C172.747 51.3691 172.791 51.1273 172.785 50.8842Z" fill="#263238"/>
<path d="M177.793 50.8544H178.448V52.7115C177.933 53.1149 177.295 53.3288 176.641 53.3173C176.244 53.2999 175.858 53.1858 175.516 52.9849C175.174 52.784 174.886 52.5025 174.677 52.1649C174.469 51.8273 174.346 51.4438 174.32 51.0479C174.293 50.652 174.364 50.2556 174.526 49.8934C174.688 49.5311 174.936 49.214 175.249 48.9696C175.562 48.7252 175.929 48.561 176.32 48.4913C176.71 48.4215 177.112 48.4483 177.49 48.5694C177.868 48.6905 178.21 48.9021 178.488 49.1859L178.061 49.603C177.881 49.4237 177.667 49.2827 177.432 49.1888C177.196 49.0949 176.944 49.05 176.69 49.0568C176.206 49.0568 175.741 49.2493 175.398 49.592C175.055 49.9347 174.863 50.3995 174.863 50.8842C174.863 51.3688 175.055 51.8336 175.398 52.1763C175.741 52.519 176.206 52.7115 176.69 52.7115C177.083 52.7213 177.47 52.6141 177.803 52.4037L177.793 50.8544Z" fill="#263238"/>
<path d="M182.914 53.2677L181.921 51.8078H181.623H180.441V53.2677H179.766V48.5205H181.633C182.864 48.5205 183.619 49.1462 183.619 50.179C183.638 50.5028 183.551 50.8239 183.372 51.0943C183.193 51.3646 182.931 51.5697 182.626 51.6787L183.619 53.2677H182.914ZM182.914 50.179C182.914 49.4938 182.457 49.1065 181.593 49.1065H180.431V51.2814H181.593C182.437 51.2814 182.894 50.8444 182.894 50.1691L182.914 50.179Z" fill="#263238"/>
<path d="M188.12 52.6718V53.2677H184.674V48.5205H188.021V49.1065H185.349V50.5664H187.733V51.1424H185.349V52.6817L188.12 52.6718Z" fill="#263238"/>
<path d="M188.785 52.7213L189.033 52.1851C189.476 52.5469 190.031 52.7436 190.603 52.7412C191.427 52.7412 191.774 52.4234 191.774 52.0063C191.774 50.8443 188.894 51.5792 188.894 49.8115C188.894 49.0766 189.47 48.4509 190.722 48.4509C191.259 48.4388 191.789 48.5875 192.241 48.8779L192.023 49.4142C191.633 49.1687 191.183 49.0347 190.722 49.0269C189.907 49.0269 189.56 49.3745 189.56 49.7817C189.56 50.9436 192.44 50.2187 192.44 51.9666C192.44 52.6915 191.854 53.3172 190.603 53.3172C189.946 53.3347 189.304 53.1241 188.785 52.7213Z" fill="#263238"/>
<path d="M192.996 52.7214L193.244 52.1851C193.688 52.5456 194.242 52.742 194.814 52.7413C195.638 52.7413 195.995 52.4235 195.995 52.0064C195.995 50.8444 193.115 51.5793 193.115 49.8116C193.115 49.0766 193.681 48.451 194.933 48.451C195.473 48.4405 196.005 48.589 196.462 48.878L196.234 49.4143C195.844 49.1673 195.394 49.0332 194.933 49.027C194.128 49.027 193.781 49.3746 193.781 49.7818C193.781 50.9437 196.661 50.2187 196.661 51.9666C196.661 52.6916 196.075 53.3173 194.814 53.3173C194.157 53.3347 193.515 53.1242 192.996 52.7214Z" fill="#263238"/>
<path d="M202.55 48.5105V48.9673L200.623 53.2676H199.908L201.785 49.1064H199.61V49.9605H198.965V48.5204L202.55 48.5105Z" fill="#263238"/>
<path d="M203.008 50.8841C203.008 49.3348 203.832 48.4509 204.994 48.4509C206.156 48.4509 206.921 49.3348 206.921 50.8841C206.921 52.4334 206.096 53.3173 204.994 53.3173C203.892 53.3173 203.008 52.4334 203.008 50.8841ZM206.206 50.8841C206.206 49.6725 205.689 49.0567 204.954 49.0567C204.219 49.0567 203.683 49.6725 203.683 50.8841C203.683 52.0957 204.2 52.7115 204.954 52.7115C205.709 52.7115 206.206 52.0957 206.206 50.8841Z" fill="#263238"/>
<path d="M207.455 49.762C207.434 49.6025 207.447 49.4404 207.493 49.2862C207.539 49.132 207.617 48.9893 207.722 48.8674C207.827 48.7455 207.957 48.6472 208.102 48.5789C208.248 48.5105 208.407 48.4738 208.567 48.4709C209.223 48.4709 209.66 48.9874 209.66 49.762C209.66 50.5367 209.223 51.063 208.567 51.063C208.406 51.0588 208.247 51.0208 208.102 50.9513C207.956 50.8819 207.827 50.7827 207.722 50.66C207.617 50.5374 207.539 50.394 207.493 50.2393C207.447 50.0846 207.434 49.922 207.455 49.762ZM209.233 49.762C209.233 49.1959 208.975 48.8583 208.567 48.8583C208.16 48.8583 207.902 49.1959 207.902 49.762C207.902 50.3281 208.16 50.6757 208.567 50.6757C208.975 50.6757 209.233 50.338 209.233 49.762ZM211.428 48.5107H211.954L208.706 53.2678H208.18L211.428 48.5107ZM210.434 52.0065C210.434 51.2318 210.871 50.7055 211.537 50.7055C211.847 50.7526 212.13 50.9093 212.334 51.1471C212.538 51.3848 212.651 51.688 212.651 52.0015C212.651 52.3151 212.538 52.6182 212.334 52.856C212.13 53.0938 211.847 53.2504 211.537 53.2976C211.377 53.2934 211.219 53.2556 211.075 53.1867C210.931 53.1177 210.802 53.0192 210.698 52.8975C210.594 52.7757 210.517 52.6335 210.472 52.48C210.426 52.3265 210.414 52.1652 210.434 52.0065ZM212.192 52.0065C212.192 51.4404 211.944 51.0928 211.537 51.0928C211.13 51.0928 210.871 51.4305 210.871 52.0065C210.871 52.5825 211.12 52.9102 211.537 52.9102C211.954 52.9102 212.232 52.5726 212.232 52.0065H212.192Z" fill="#263238"/>
<path d="M58.5656 170.347V167.1H56.3906L58.5656 165.828H56.9368L59.1118 164.408H61.1775V162.77H58.7841L61.1775 161.816V158.271H58.7841V155.957H56.3906L58.7841 155.152V153.504H57.066L58.4663 152.103L59.6878 150.882H96.811V152.55H99.264L96.5329 153.772V155.152H101.538V157.705H103.753L101.538 158.817V161.677H99.9691V163.038H96.811V167.1H98.5787L97.1288 168.55V170.357L58.5656 170.347Z" fill="#407BFF"/>
<path opacity="0.7" d="M58.5656 170.347V167.1H56.3906L58.5656 165.828H56.9368L59.1118 164.408H61.1775V162.77H58.7841L61.1775 161.816V158.271H58.7841V155.957H56.3906L58.7841 155.152V153.504H57.066L58.4663 152.103L59.6878 150.882H96.811V152.55H99.264L96.5329 153.772V155.152H101.538V157.705H103.753L101.538 158.817V161.677H99.9691V163.038H96.811V167.1H98.5787L97.1288 168.55V170.357L58.5656 170.347Z" fill="white"/>
<path opacity="0.1" d="M58.5656 170.347V167.1H56.3906L58.5656 165.828H56.9368L59.1118 164.408H61.1775V162.77H58.7841L61.1775 161.816V158.271H58.7841V155.957H56.3906L58.7841 155.152V153.504H57.066L58.4663 152.103L59.6878 150.882H79.2425V152.55H81.6955L78.9644 153.772V155.152H83.9698V157.705H86.1845L83.9698 158.817V161.677H82.4007V163.038H79.2425V167.1H81.0103L79.5603 168.55V170.357L58.5656 170.347Z" fill="black"/>
<path opacity="0.1" d="M96.5333 155.152H78.9648L96.5333 154.517V155.152Z" fill="black"/>
<path opacity="0.1" d="M96.812 163.038H79.2435L79.1641 164.269L96.812 163.038Z" fill="black"/>
<path opacity="0.1" d="M99.9688 161.677H82.4004L99.9688 162.293V161.677Z" fill="black"/>
<path opacity="0.1" d="M96.8106 167.1H79.2422L96.8106 166.444V167.1Z" fill="black"/>
<path opacity="0.1" d="M97.127 168.55H79.5586V169.215L97.127 168.55Z" fill="black"/>
<path opacity="0.1" d="M101.539 157.705H83.9707L101.539 157.149V157.705Z" fill="black"/>
<path opacity="0.1" d="M96.8106 152.55H79.2422L96.8106 151.935V152.55Z" fill="black"/>
<path opacity="0.1" d="M58.7852 153.504H76.6019L58.7852 154.05V153.504Z" fill="black"/>
<path opacity="0.1" d="M78.9655 155.152H58.7852L77.0786 155.748L78.9655 155.152Z" fill="black"/>
<path opacity="0.1" d="M83.9709 157.705L58.7852 158.271V157.705H83.9709Z" fill="black"/>
<path opacity="0.1" d="M83.9695 158.817H71.5156L83.9695 159.433V158.817Z" fill="black"/>
<path opacity="0.1" d="M61.1777 161.816L79.2427 161.677L61.1777 161.27V161.816Z" fill="black"/>
<path opacity="0.1" d="M61.1777 162.77H79.5606L61.1777 163.386V162.77Z" fill="black"/>
<path opacity="0.1" d="M58.5645 165.829H78.9633V166.444L58.5645 165.829Z" fill="black"/>
<path opacity="0.1" d="M58.5645 167.1H73.3521L58.5645 167.507V167.1Z" fill="black"/>
<path d="M162.486 170.973L163.301 167.894H196.819L212.252 169.434L212.838 170.973H162.486Z" fill="#263238"/>
<path opacity="0.4" d="M196.819 167.894V170.973H162.486L163.301 167.894H196.819Z" fill="black"/>
<path d="M90.3271 133.711L97.6663 166.981C97.798 167.516 98.1034 167.992 98.5346 168.336C98.9659 168.679 99.4988 168.869 100.05 168.878H123.776C124.026 168.872 124.271 168.808 124.493 168.691C124.714 168.575 124.906 168.408 125.052 168.205C125.198 168.002 125.295 167.768 125.336 167.521C125.376 167.274 125.359 167.021 125.285 166.782L117.956 133.77C117.807 133.266 117.488 132.829 117.054 132.532C116.62 132.235 116.097 132.097 115.572 132.142H91.8466C90.7641 132.172 90.0888 132.658 90.3271 133.711Z" fill="#263238"/>
<path opacity="0.4" d="M91.6864 133.711L99.0157 166.981C99.1474 167.516 99.4527 167.992 99.884 168.336C100.315 168.679 100.848 168.869 101.399 168.878H123.774C124.024 168.87 124.268 168.805 124.489 168.688C124.709 168.57 124.899 168.404 125.045 168.202C125.191 167.999 125.289 167.766 125.33 167.52C125.371 167.274 125.356 167.021 125.284 166.782L117.955 133.77C117.806 133.266 117.487 132.829 117.053 132.532C116.619 132.235 116.095 132.097 115.571 132.142H93.2456C92.1234 132.172 91.448 132.658 91.6864 133.711Z" fill="white"/>
<path d="M101.598 166.712V169.801C101.598 170.586 102.531 170.913 103.306 170.913H158.206C158.991 170.913 159.944 170.586 159.944 169.801V166.712H101.598Z" fill="#263238"/>
<path opacity="0.2" d="M159.944 166.712V169.801C159.944 170.586 159.01 170.913 158.236 170.913H103.346C102.551 170.913 101.598 170.586 101.598 169.801V166.712H159.944Z" fill="white"/>
<path opacity="0.4" d="M159.944 166.712V169.801C159.944 170.586 159.01 170.913 158.236 170.913H132.97C132.176 170.913 131.232 170.586 131.232 169.801V166.712H159.944Z" fill="black"/>
<path d="M123.954 164.269L117.29 134.307H93.0176L99.6219 164.269H123.954Z" fill="#407BFF"/>
<path d="M190.086 153.136C190.134 153.512 190.101 153.894 189.989 154.256C189.877 154.618 189.688 154.952 189.436 155.234C189.183 155.517 188.873 155.742 188.526 155.894C188.179 156.046 187.803 156.122 187.424 156.116H136.079C135.271 156.1 134.497 155.788 133.903 155.239C133.31 154.689 132.939 153.941 132.862 153.136L129.813 120.264C129.773 119.932 129.793 119.596 129.872 119.271C130.018 118.694 130.354 118.184 130.827 117.824C131.299 117.463 131.88 117.273 132.474 117.284H183.819C184.627 117.3 185.402 117.612 185.995 118.162C186.588 118.711 186.959 119.459 187.037 120.264L190.086 153.136Z" fill="#263238"/>
<path opacity="0.4" d="M187.235 156.086H136.079C135.271 156.07 134.497 155.758 133.903 155.209C133.31 154.66 132.939 153.911 132.862 153.107L129.813 120.234C129.773 119.902 129.793 119.566 129.872 119.241H181.038C181.845 119.261 182.617 119.575 183.21 120.123C183.802 120.672 184.174 121.417 184.256 122.22L187.305 155.093C187.342 155.425 187.318 155.762 187.235 156.086Z" fill="black"/>
<path d="M151.957 135.925H162.584L159.753 166.335L176.547 168.857V170.973H141.172V168.857L148.422 166.335L151.957 135.925Z" fill="#263238"/>
<path opacity="0.1" d="M162.586 135.925L154.72 170.496L148.424 170.307L151.959 135.925H162.586Z" fill="white"/>
<path d="M127.152 324.63H121.272L110.686 177.379H118.501L127.152 324.63Z" fill="#263238"/>
<path opacity="0.1" d="M127.162 324.63H121.272L111.212 184.688L110.686 177.607H118.501L118.919 184.688L127.162 324.63Z" fill="white"/>
<path opacity="0.2" d="M118.919 184.341H111.212L110.686 177.607H118.501L118.919 184.341Z" fill="black"/>
<path d="M199.183 324.63H193.293L192.34 177.379H200.146L199.183 324.63Z" fill="#263238"/>
<path opacity="0.1" d="M200.146 177.607L199.997 201.373L199.192 324.63H193.293L192.489 201.373L192.34 177.607H200.146Z" fill="white"/>
<path opacity="0.2" d="M200.146 177.607L199.997 201.631H192.489L192.34 177.607H200.146Z" fill="black"/>
<path d="M261.681 324.63H255.802L245.215 177.379H253.031L261.681 324.63Z" fill="#263238"/>
<path opacity="0.1" d="M261.691 324.63H255.802L245.731 184.688L245.215 177.607H253.031L253.448 184.688L261.691 324.63Z" fill="white"/>
<path opacity="0.2" d="M253.448 184.341H245.731L245.215 177.607H253.031L253.448 184.341Z" fill="black"/>
<path d="M59.8051 324.63H53.9258L62.5759 177.379H70.3819L59.8051 324.63Z" fill="#263238"/>
<path opacity="0.1" d="M70.3819 177.607L69.8655 184.688L59.8051 324.63H53.9258L62.1489 184.688L62.5759 177.607H70.3819Z" fill="white"/>
<path opacity="0.2" d="M62.5794 177.607H70.3854L69.869 184.341H62.1523L62.5794 177.607Z" fill="black"/>
<path d="M56.3915 173.684H259.218V178.908C259.218 179.477 258.992 180.023 258.59 180.425C258.188 180.827 257.642 181.053 257.073 181.053H58.487C57.918 181.053 57.3724 180.827 56.9701 180.425C56.5678 180.023 56.3418 179.477 56.3418 178.908V173.684H56.3915Z" fill="#407BFF"/>
<path opacity="0.4" d="M56.3915 173.684H259.218V178.908C259.218 179.477 258.992 180.023 258.59 180.425C258.188 180.827 257.642 181.053 257.073 181.053H58.487C57.918 181.053 57.3724 180.827 56.9701 180.425C56.5678 180.023 56.3418 179.477 56.3418 178.908V173.684H56.3915Z" fill="white"/>
<path opacity="0.2" d="M259.227 173.684H56.3906V177.369H259.227V173.684Z" fill="black"/>
<path d="M262.872 174.648H52.7358C52.1861 174.645 51.6597 174.425 51.271 174.037C50.8823 173.648 50.6628 173.122 50.6602 172.572C50.6602 172.021 50.8788 171.494 51.2681 171.104C51.6574 170.715 52.1853 170.496 52.7358 170.496H262.872C263.422 170.496 263.95 170.715 264.34 171.104C264.729 171.494 264.948 172.021 264.948 172.572C264.945 173.122 264.725 173.648 264.337 174.037C263.948 174.425 263.422 174.645 262.872 174.648Z" fill="#407BFF"/>
<path opacity="0.4" d="M262.872 174.648H52.7358C52.1861 174.645 51.6597 174.425 51.271 174.037C50.8823 173.648 50.6628 173.122 50.6602 172.572C50.6602 172.021 50.8788 171.494 51.2681 171.104C51.6574 170.715 52.1853 170.496 52.7358 170.496H262.872C263.422 170.496 263.95 170.715 264.34 171.104C264.729 171.494 264.948 172.021 264.948 172.572C264.945 173.122 264.725 173.648 264.337 174.037C263.948 174.425 263.422 174.645 262.872 174.648Z" fill="white"/>
<path d="M212.045 161.121V161.816L209.651 162.77H212.045V164.408H209.979L207.794 165.829H209.433L207.258 167.1H209.433V170.347L247.996 170.357V168.55L249.446 167.1H247.668V163.038H250.836V161.677H252.405V161.121H212.045Z" fill="#407BFF"/>
<path opacity="0.9" d="M212.045 161.121V161.816L209.651 162.77H212.045V164.408H209.979L207.794 165.829H209.433L207.258 167.1H209.433V170.347L247.996 170.357V168.55L249.446 167.1H247.668V163.038H250.836V161.677H252.405V161.121H212.045Z" fill="white"/>
<path opacity="0.1" d="M212.045 161.121V161.816L209.651 162.77H212.045V164.408H209.979L207.794 165.829H209.433L207.258 167.1H209.433V170.347L230.428 170.357V168.55L231.877 167.1H230.1V163.038H233.268V161.677H234.837V161.121H212.045Z" fill="black"/>
<path opacity="0.1" d="M247.669 163.038H230.101L230.031 164.269L247.669 163.038Z" fill="black"/>
<path opacity="0.1" d="M250.834 161.677H233.266L250.834 162.293V161.677Z" fill="black"/>
<path opacity="0.1" d="M247.666 167.1H230.098L247.666 166.444V167.1Z" fill="black"/>
<path opacity="0.1" d="M247.994 168.55H230.426V169.215L247.994 168.55Z" fill="black"/>
<path opacity="0.1" d="M212.043 161.816L230.098 161.677L212.043 161.27V161.816Z" fill="black"/>
<path opacity="0.1" d="M212.043 162.77H230.426L212.043 163.386V162.77Z" fill="black"/>
<path opacity="0.1" d="M209.43 165.829H229.829V166.444L209.43 165.829Z" fill="black"/>
<path opacity="0.1" d="M209.43 167.1H224.207L209.43 167.507V167.1Z" fill="black"/>
</svg>
