<svg width="192" height="161" viewBox="0 0 192 161" fill="none" xmlns="http://www.w3.org/2000/svg">
<g clip-path="url(#clip0_3927_49514)">
<rect y="0.592773" width="192" height="160" fill="#E49800"/>
<rect x="-1.89844" y="-0.0395508" width="195.415" height="158.103" fill="#E49800"/>
<path opacity="0.2" d="M184.576 158.063H160.576L95.6838 80.5929L184.576 158.063ZM131.836 158.063H118.047L95.6838 80.5929L131.836 158.063ZM101.316 158.063H89.2655L95.6838 80.5929L101.316 158.063ZM68.0964 158.063H53.5809L95.6838 80.5929L68.0964 158.063ZM29.44 158.063H4.93947L95.6838 80.5929L29.44 158.063ZM223.579 151.435L95.6838 80.5929L223.579 127.012V151.435ZM-32.2109 141.423V118.222L95.6838 80.5929L-32.2109 141.423ZM223.579 91.3917L95.6838 80.5929L223.579 71.1172V91.3917ZM-32.2109 90.0685V69.794L95.6838 80.5929L-32.2109 90.0685ZM95.6838 80.5929L90.0523 3.12251H102.102L95.6838 80.5929L123.271 3.12251H137.787L95.6838 80.5929ZM95.6838 80.5929L-32.2109 34.1742V9.75036L95.6838 80.5929ZM95.6838 80.5929L6.79174 3.12251H30.7921L95.6838 80.5929ZM95.6838 80.5929L59.5315 3.12251H73.3201L95.6838 80.5929ZM95.6838 80.5929L223.579 19.7631V42.964L95.6838 80.5929ZM95.6838 80.5929L161.928 3.12251H186.428L95.6838 80.5929Z" fill="url(#paint0_radial_3927_49514)"/>
</g>
<rect x="1.26482" y="1.8576" width="189.47" height="157.47" stroke="#111827" stroke-width="2.52964"/>
<defs>
<radialGradient id="paint0_radial_3927_49514" cx="0" cy="0" r="1" gradientUnits="userSpaceOnUse" gradientTransform="translate(95.7081 116.343) rotate(-90) scale(52.7403 87.0682)">
<stop stop-color="#F0073F"/>
<stop offset="0.623432" stop-color="#F0073F" stop-opacity="0.2"/>
<stop offset="1" stop-color="#F0073F"/>
</radialGradient>
<clipPath id="clip0_3927_49514">
<rect y="0.592773" width="192" height="160" fill="white"/>
</clipPath>
</defs>
</svg>
