<svg width="25" height="25" viewBox="0 0 25 25" fill="none" xmlns="http://www.w3.org/2000/svg">
<path fill-rule="evenodd" clip-rule="evenodd" d="M12.5 3.89307C10.0556 3.89307 9.7496 3.90327 8.7896 3.94707C7.8314 3.99087 7.1768 4.14327 6.6044 4.36587C6.0044 4.59147 5.4602 4.94547 5.0102 5.40387C4.55253 5.85335 4.19831 6.39716 3.9722 6.99747C3.7508 7.56987 3.5978 8.22507 3.554 9.18327C3.5108 10.1427 3.5 10.4481 3.5 12.8931C3.5 15.3381 3.5102 15.6435 3.554 16.6035C3.5978 17.5617 3.7502 18.2163 3.9728 18.7887C4.1984 19.3887 4.5524 19.9329 5.0108 20.3829C5.46029 20.8405 6.00411 21.1947 6.6044 21.4209C7.1768 21.6429 7.8314 21.7953 8.7896 21.8391C9.7496 21.8829 10.0556 21.8931 12.5 21.8931C14.9444 21.8931 15.2504 21.8829 16.2104 21.8391C17.1686 21.7953 17.8232 21.6429 18.3956 21.4203C18.9956 21.1947 19.5398 20.8407 19.9898 20.3823C20.4475 19.9328 20.8017 19.389 21.0278 18.7887C21.2498 18.2163 21.4022 17.5617 21.446 16.6035C21.4898 15.6435 21.5 15.3375 21.5 12.8931C21.5 10.4487 21.4898 10.1427 21.446 9.18267C21.4022 8.22447 21.2498 7.56987 21.0272 6.99747C20.8012 6.3969 20.447 5.85286 19.9892 5.40327C19.5397 4.9456 18.9959 4.59138 18.3956 4.36527C17.8232 4.14387 17.168 3.99087 16.2098 3.94707C15.2504 3.90387 14.945 3.89307 12.5 3.89307ZM12.5 5.51487C14.903 5.51487 15.188 5.52387 16.1372 5.56707C17.0144 5.60727 17.4908 5.75307 17.8082 5.87727C18.2282 6.03987 18.5282 6.23547 18.8432 6.54987C19.1582 6.86487 19.3532 7.16487 19.5158 7.58487C19.6394 7.90227 19.7858 8.37867 19.826 9.25587C19.8692 10.2051 19.8782 10.4901 19.8782 12.8931C19.8782 15.2961 19.8692 15.5811 19.826 16.5303C19.7858 17.4075 19.64 17.8839 19.5158 18.2013C19.3718 18.5922 19.1419 18.9459 18.8432 19.2363C18.5528 19.5351 18.1992 19.7649 17.8082 19.9089C17.4908 20.0325 17.0144 20.1789 16.1372 20.2191C15.188 20.2623 14.9036 20.2713 12.5 20.2713C10.0964 20.2713 9.812 20.2623 8.8628 20.2191C7.9856 20.1789 7.5092 20.0331 7.1918 19.9089C6.80087 19.7648 6.4472 19.535 6.1568 19.2363C5.85811 18.9458 5.62828 18.5922 5.4842 18.2013C5.3606 17.8839 5.2142 17.4075 5.174 16.5303C5.1308 15.5811 5.1218 15.2961 5.1218 12.8931C5.1218 10.4901 5.1308 10.2051 5.174 9.25587C5.2142 8.37867 5.36 7.90227 5.4842 7.58487C5.6468 7.16487 5.8424 6.86487 6.1568 6.54987C6.44716 6.25109 6.80085 6.02125 7.1918 5.87727C7.5092 5.75367 7.9856 5.60727 8.8628 5.56707C9.812 5.52387 10.097 5.51487 12.5 5.51487Z" fill="#453755"/>
<path fill-rule="evenodd" clip-rule="evenodd" d="M12.499 15.8961C12.1047 15.8961 11.7142 15.8184 11.3498 15.6675C10.9855 15.5166 10.6545 15.2954 10.3756 15.0165C10.0968 14.7377 9.87555 14.4066 9.72464 14.0423C9.57372 13.678 9.49605 13.2875 9.49605 12.8931C9.49605 12.4987 9.57372 12.1082 9.72464 11.7439C9.87555 11.3796 10.0968 11.0485 10.3756 10.7697C10.6545 10.4908 10.9855 10.2696 11.3498 10.1187C11.7142 9.96777 12.1047 9.8901 12.499 9.8901C13.2955 9.8901 14.0593 10.2065 14.6225 10.7697C15.1857 11.3328 15.502 12.0967 15.502 12.8931C15.502 13.6895 15.1857 14.4534 14.6225 15.0165C14.0593 15.5797 13.2955 15.8961 12.499 15.8961ZM12.499 8.2671C11.2722 8.2671 10.0955 8.75448 9.22797 9.62202C8.36043 10.4896 7.87305 11.6662 7.87305 12.8931C7.87305 14.12 8.36043 15.2966 9.22797 16.1642C10.0955 17.0317 11.2722 17.5191 12.499 17.5191C13.7259 17.5191 14.9026 17.0317 15.7701 16.1642C16.6377 15.2966 17.125 14.12 17.125 12.8931C17.125 11.6662 16.6377 10.4896 15.7701 9.62202C14.9026 8.75448 13.7259 8.2671 12.499 8.2671ZM18.4708 8.1831C18.4708 8.47311 18.3556 8.75125 18.1506 8.95632C17.9455 9.16139 17.6674 9.2766 17.3773 9.2766C17.0873 9.2766 16.8092 9.16139 16.6041 8.95632C16.3991 8.75125 16.2838 8.47311 16.2838 8.1831C16.2838 7.89309 16.3991 7.61495 16.6041 7.40988C16.8092 7.20481 17.0873 7.0896 17.3773 7.0896C17.6674 7.0896 17.9455 7.20481 18.1506 7.40988C18.3556 7.61495 18.4708 7.89309 18.4708 8.1831Z" fill="#453755"/>
</svg>
