<svg width="145" height="88" viewBox="0 0 145 88" fill="none" xmlns="http://www.w3.org/2000/svg">
<g clip-path="url(#clip0_3850_647)">
<circle cx="72.5005" cy="44.3931" r="40.555" stroke="#2EC4B6" stroke-width="5.28479"/>
<path d="M76.22 30.8309C77.6071 31.9352 78.5789 33.4459 78.7909 35.2128C78.8863 36.4673 78.7719 37.713 78.1725 38.8349C78.1309 38.9174 78.0893 39.0002 78.0461 39.085C77.3155 40.4455 76.0849 41.4526 74.6183 41.9474C72.9133 42.4076 71.164 42.314 69.5915 41.4615C67.9836 40.4808 66.9146 39.191 66.4641 37.3622C66.0709 35.5512 66.5237 33.9963 67.4712 32.4679C68.0737 31.5915 68.8317 30.9395 69.777 30.4448C69.8883 30.3848 69.8883 30.3848 70.0023 30.3238C71.9636 29.352 74.4372 29.5481 76.213 30.8291L76.22 30.8309Z" fill="#CBF3F0"/>
<path d="M76.2193 64.0488C76.5427 64.2908 76.8245 64.5523 77.1028 64.8439C77.1946 64.9349 77.1946 64.9349 77.2883 65.0276C78.534 66.3263 79.0022 67.9607 78.9757 69.7276C78.9209 71.4062 78.1249 72.8727 76.9261 74.03C75.5656 75.1608 74.0018 75.6467 72.2438 75.5319C70.4769 75.3066 68.922 74.5071 67.7647 73.1554C66.731 71.7242 66.3423 70.028 66.5897 68.2876C66.9483 66.5472 67.9502 65.0188 69.4255 64.0205C71.5635 62.7483 74.099 62.7041 76.2193 64.0471V64.0488Z" fill="#2EC4B6"/>
<path d="M56.4298 59.543C56.9872 59.8601 57.5341 60.1994 58.073 60.5413C58.4114 60.7489 58.7577 60.9406 59.1067 61.1332C60.4407 61.8788 61.4831 62.635 61.9514 64.1634C62.242 65.2942 62.1228 66.4427 61.8785 67.5647C61.7098 68.366 61.6417 69.1726 61.5843 69.9854C61.5052 70.9218 61.2132 71.7435 60.4977 72.3795C59.9764 72.7656 59.464 72.945 58.8191 72.9096C57.9091 72.7047 57.0699 72.3098 56.2306 71.9202C56.1663 71.8907 56.1016 71.8612 56.0353 71.8309C55.1077 71.4069 54.2154 70.959 53.3408 70.4351C53.233 70.3745 53.1252 70.3149 53.0174 70.2548C50.7911 69.0268 50.7911 69.0268 50.4113 67.9579C50.2028 67.1848 50.3633 66.3765 50.5349 65.6079C50.5549 65.516 50.575 65.4241 50.5955 65.3287C50.7696 64.546 50.9763 63.7827 51.2255 63.0141C51.2452 62.9526 51.2648 62.8913 51.2851 62.8276C52.2039 59.9741 52.2039 59.9741 53.317 59.3468C54.4213 58.8221 55.3931 58.9616 56.4356 59.5394L56.4298 59.543Z" fill="#2EC4B6"/>
<path d="M75.5764 14.3986C75.6423 14.4076 75.7081 14.4166 75.7761 14.4259C79.4954 14.9471 83.0646 16.4666 86.0242 18.8166C86.1097 18.8847 86.1955 18.9527 86.283 19.0233C87.5198 20.0305 88.6595 21.0995 89.649 22.354C89.7068 22.4236 89.7647 22.4936 89.8239 22.5651C90.3469 23.1977 90.7957 23.8726 91.2374 24.5617C91.2996 24.658 91.362 24.7534 91.4256 24.8524C91.8523 25.5265 92.2198 26.2217 92.5653 26.9373C92.6236 27.0601 92.6827 27.182 92.7419 27.304C93.6607 29.2034 94.182 31.2265 94.5088 33.3114C94.5204 33.3848 94.5321 33.4581 94.544 33.5341C95.1642 37.6863 94.7357 43.3404 92.2117 46.7859C92.0191 46.9864 92.0191 46.9864 91.8194 47.1614C91.7214 47.2495 91.7214 47.2495 91.6207 47.3398C90.9651 47.8301 90.0746 47.7524 89.2972 47.6693C88.9332 47.573 88.6425 47.4273 88.3254 47.2276C88.2513 47.1827 88.177 47.1375 88.101 47.0916C87.8492 46.9343 87.6018 46.7718 87.3536 46.6092C87.1301 46.4643 86.9057 46.3212 86.6804 46.1781C86.5912 46.1217 86.5912 46.1217 86.5002 46.0641C86.1256 45.83 85.7448 45.6197 85.3517 45.4209C84.053 44.7619 83.3286 44.0074 82.8427 42.6292C82.4831 41.3836 82.7199 40.2704 83.0105 39.0424C83.3904 37.3904 83.3586 35.5263 82.939 33.8919C82.9209 33.8026 82.9028 33.7134 82.8842 33.6215C82.6377 32.4731 82.1094 31.4041 81.4353 30.4499C81.3819 30.3714 81.3284 30.2927 81.2736 30.2114C79.6216 27.8526 77.2716 26.3684 74.4534 25.7676C71.5115 25.2862 68.5872 25.9311 66.1489 27.6317C63.7636 29.3721 62.1822 31.837 61.6521 34.7612C61.4074 36.3426 61.5055 37.9151 61.9145 39.4612C61.938 39.5531 61.9614 39.6458 61.9856 39.7403C62.3956 41.1274 63.09 42.4349 64.0353 43.5215C64.0876 43.587 64.1404 43.6523 64.1943 43.7203C64.901 44.5834 65.8552 45.2045 66.774 45.8229C66.8433 45.8711 66.9127 45.9192 66.9842 45.9687C68.7158 47.0995 70.9244 47.3911 72.9475 47.4352C74.1225 47.4635 75.2534 47.551 76.4018 47.763C76.4804 47.7771 76.5591 47.7912 76.6395 47.8057C78.9011 48.2218 80.9949 48.9983 83.0269 50.0585C83.0895 50.0912 83.1523 50.1238 83.2168 50.1574C84.5862 50.881 85.8495 51.7653 87.0068 52.7989C87.0816 52.864 87.1561 52.9288 87.233 52.996C88.1783 53.8299 89.0617 54.7187 89.8303 55.717C89.9346 55.8469 89.9346 55.8469 90.0415 55.9803C92.4887 59.0547 94.8651 63.5691 94.5824 67.6419C94.4649 68.3663 94.0126 68.8345 93.4516 69.2762C92.1971 70.1774 90.7748 70.893 89.3789 71.5556C89.322 71.5826 89.2649 71.6097 89.2066 71.6375C88.8232 71.8186 88.4389 71.9971 88.0581 72.1738C87.9663 72.2168 87.8753 72.2599 87.7807 72.3046C87.0042 72.6668 86.2347 72.9795 85.3689 72.7321C84.5349 72.3911 84.0172 71.8399 83.6373 71.0271C83.4165 70.4369 83.3599 69.8609 83.3387 69.2337C83.2433 66.601 82.1637 64.4718 80.547 62.4576C80.1646 61.9627 79.7011 61.6188 79.2324 61.21C77.2447 59.5756 74.8063 58.966 72.2796 58.8953C68.6221 58.7928 65.1502 57.9765 61.9432 56.2714C61.878 56.2379 61.8125 56.2043 61.7453 56.1698C60.7382 55.6504 59.8371 55.0037 58.936 54.3323C58.8557 54.2729 58.7752 54.2139 58.693 54.152C58.238 53.8084 57.8193 53.4285 57.4032 53.0389C57.2159 52.8675 57.025 52.7032 56.8298 52.5406C55.0806 51.0122 53.7554 49.0333 52.6687 46.9925L52.5786 46.8264C49.7957 41.6847 49.4424 35.5182 51.0944 29.9525C51.8745 27.4346 53.0734 25.0846 54.6989 23.0085C54.7717 22.9122 54.8447 22.8159 54.9162 22.7196C56.7185 20.3255 58.989 18.4702 61.5863 17.0037C61.6482 16.968 61.71 16.9323 61.7736 16.8959C65.917 14.5194 70.9615 13.689 75.6438 14.3516L75.5764 14.3986Z" fill="#CBF3F0"/>
<path fill-rule="evenodd" clip-rule="evenodd" d="M93.1601 69.4406C91.9791 70.2471 90.6677 70.904 89.3789 71.5158L89.2066 71.5978C88.8232 71.7789 88.4389 71.9574 88.0581 72.1341C87.9662 72.1771 87.8752 72.2202 87.7807 72.2648C87.0042 72.627 86.2347 72.9398 85.3689 72.6924C84.5349 72.3514 84.0172 71.8001 83.6373 70.9873C83.4165 70.3972 83.3599 69.8212 83.3387 69.1939C83.2433 66.5612 82.1637 64.4321 80.547 62.4178C80.2473 62.03 79.8979 61.7349 79.5351 61.4286C79.435 61.3441 79.3338 61.2587 79.2324 61.1702C77.2446 59.5358 74.8063 58.9263 72.2796 58.8556C68.6221 58.7531 65.1502 57.9368 61.9432 56.2317L61.7453 56.1301C60.7382 55.6106 59.8371 54.964 58.936 54.2925C58.9143 54.2765 58.8925 54.2605 58.8708 54.2444C58.812 54.201 58.7529 54.1574 58.693 54.1123C58.238 53.7686 57.8193 53.3888 57.4032 52.9992C57.2159 52.8278 57.025 52.6634 56.8298 52.5009C55.0806 50.9725 53.7554 48.9936 52.6687 46.9528L52.5786 46.7867C50.899 43.6834 50.1044 40.2068 50.1016 36.7142C53.0435 38.9837 57.3575 41.1485 63.2618 42.4613C63.497 42.8184 63.7551 43.1598 64.0352 43.4818C64.052 43.5028 64.0688 43.5237 64.0857 43.5447C64.1215 43.5894 64.1576 43.6343 64.1943 43.6806C64.8663 44.5013 65.762 45.1032 66.6383 45.692C66.6836 45.7224 66.7288 45.7528 66.774 45.7832C66.8433 45.8313 66.9127 45.8795 66.9842 45.929C68.7158 47.0598 70.9244 47.3513 72.9475 47.3955C74.1225 47.4238 75.2533 47.5112 76.4018 47.7233L76.6395 47.7659C78.9011 48.182 80.9949 48.9586 83.0269 50.0187L83.2168 50.1177C84.5862 50.8412 85.8495 51.7256 87.0068 52.7592L87.0194 52.7701C87.0899 52.8315 87.1604 52.8928 87.233 52.9562C88.1783 53.7902 89.0617 54.679 89.8303 55.6773L90.0415 55.9405C92.3658 58.8607 94.6265 63.08 94.6052 66.9859L93.1601 69.4406Z" fill="#2EC4B6" fill-opacity="0.33"/>
<path fill-rule="evenodd" clip-rule="evenodd" d="M69.4455 47.0133C70.5916 47.3056 71.7989 47.4102 72.9465 47.4353C74.1215 47.4636 75.2523 47.551 76.4008 47.763L76.6385 47.8057C78.9001 48.2218 80.9939 48.9984 83.0258 50.0585L83.2158 50.1575C84.5851 50.881 85.8485 51.7654 87.0058 52.799C87.0805 52.864 87.1551 52.9289 87.2319 52.996C88.1772 53.83 89.0607 54.7187 89.8293 55.717L90.0405 55.9803C92.4876 59.0547 94.8641 63.5692 94.5814 67.6419C94.4639 68.3663 94.0116 68.8346 93.4506 69.2763C92.1961 70.1774 90.7737 70.893 89.3779 71.5556L89.2056 71.6376C88.8222 71.8187 88.4379 71.9972 88.0571 72.1739C87.9879 72.2063 87.9192 72.2387 87.8491 72.2718C87.8262 72.2827 87.803 72.2936 87.7797 72.3046C87.0031 72.6668 86.2337 72.9796 85.3679 72.7322C84.5339 72.3912 84.0162 71.8399 83.6363 71.0271C83.4154 70.437 83.3589 69.861 83.3377 69.2337C83.2423 66.601 82.1627 64.4719 80.546 62.4576C80.2463 62.0698 79.8968 61.7747 79.5341 61.4684C79.4339 61.3839 79.3328 61.2985 79.2314 61.21C77.2436 59.5756 74.8053 58.966 72.2786 58.8954C68.6211 58.7929 65.1491 57.9766 61.9422 56.2715L61.7443 56.1699C60.7372 55.6504 59.836 55.0037 58.9349 54.3323C58.9132 54.3163 58.8915 54.3002 58.8697 54.2842C58.811 54.2408 58.7519 54.1972 58.692 54.1521C58.237 53.8084 57.8182 53.4285 57.4021 53.0389C57.2148 52.8676 57.024 52.7032 56.8288 52.5407C55.0795 51.0123 53.7543 49.0334 52.6677 46.9926L52.5776 46.8265C51.0651 44.0321 50.2703 40.9349 50.125 37.796C53.7519 41.5385 59.9995 45.6541 69.4455 47.0133Z" fill="#2EC4B6"/>
</g>
<defs>
<clipPath id="clip0_3850_647">
<rect width="144" height="87" fill="white" transform="translate(0.5 0.893066)"/>
</clipPath>
</defs>
</svg>
