<svg width="25" height="25" viewBox="0 0 25 25" fill="none" xmlns="http://www.w3.org/2000/svg">
<path d="M20.4525 8.81317C20.4647 8.98949 20.4647 9.1658 20.4647 9.34374C20.4647 14.7656 16.3371 21.0187 8.78966 21.0187V21.0155C6.56013 21.0187 4.3769 20.3801 2.5 19.176C2.82419 19.215 3.15001 19.2345 3.47664 19.2353C5.32429 19.2369 7.11913 18.6169 8.57272 17.4754C6.81688 17.4421 5.27717 16.2972 4.73928 14.6259C5.35436 14.7445 5.98812 14.7201 6.59181 14.5552C4.67753 14.1684 3.30033 12.4865 3.30033 10.5333C3.30033 10.5154 3.30033 10.4983 3.30033 10.4813C3.87071 10.799 4.50934 10.9753 5.1626 10.9948C3.35964 9.78981 2.80388 7.39127 3.89265 5.51599C5.97593 8.07947 9.04966 9.63787 12.3493 9.80281C12.0186 8.37766 12.4703 6.88426 13.5364 5.88244C15.189 4.32891 17.7882 4.40854 19.3418 6.06038C20.2607 5.87919 21.1415 5.54199 21.9475 5.06424C21.6412 6.01406 21.0001 6.82089 20.1437 7.33358C20.957 7.23771 21.7517 7.01995 22.5 6.68764C21.9491 7.51315 21.2552 8.23222 20.4525 8.81317Z" fill="#453755"/>
</svg>
