<svg width="25" height="25" viewBox="0 0 25 25" fill="none" xmlns="http://www.w3.org/2000/svg">
<path fill-rule="evenodd" clip-rule="evenodd" d="M20.292 6.30777C21.1521 6.53884 21.8325 7.2192 22.0635 8.07927C22.4872 9.64539 22.5 12.8931 22.5 12.8931C22.5 12.8931 22.5 16.1537 22.0764 17.707C21.8453 18.5671 21.165 19.2474 20.3049 19.4785C18.7516 19.9021 12.5 19.9021 12.5 19.9021C12.5 19.9021 6.24839 19.9021 4.69512 19.4785C3.83504 19.2474 3.15469 18.5671 2.92362 17.707C2.5 16.1409 2.5 12.8931 2.5 12.8931C2.5 12.8931 2.5 9.64539 2.91078 8.09212C3.14185 7.23204 3.82221 6.55168 4.68229 6.32062C6.23556 5.89699 12.4872 5.88416 12.4872 5.88416C12.4872 5.88416 18.7388 5.88416 20.292 6.30777ZM15.6836 12.8931L10.4974 15.897V9.88929L15.6836 12.8931Z" fill="#453755"/>
</svg>
