<svg xmlns="http://www.w3.org/2000/svg" width="252" height="255" viewBox="0 0 252 255" fill="none">
  <g filter="url(#filter0_d_3670_37336)">
    <circle cx="126.2" cy="126.6" r="123.254" fill="#08005B" stroke="white" stroke-width="5"/>
    <circle cx="126.202" cy="126.601" r="101.889" stroke="#2EC4B6" stroke-width="13.2772"/>
    <path d="M135.545 92.5259C139.029 95.3004 141.471 99.0958 142.004 103.535C142.243 106.687 141.956 109.816 140.45 112.635C140.345 112.842 140.241 113.05 140.132 113.263C138.297 116.681 135.205 119.212 131.521 120.455C127.237 121.611 122.842 121.376 118.891 119.234C114.852 116.77 112.166 113.53 111.034 108.935C110.046 104.385 111.184 100.479 113.564 96.6388C115.078 94.437 116.982 92.7989 119.357 91.556C119.637 91.4053 119.637 91.4053 119.923 91.2519C124.851 88.8104 131.066 89.3031 135.527 92.5215L135.545 92.5259Z" fill="#CBF3F0"/>
    <path d="M135.544 175.982C136.357 176.59 137.065 177.247 137.764 177.98C137.995 178.208 137.995 178.208 138.23 178.441C141.359 181.704 142.536 185.81 142.469 190.249C142.332 194.466 140.332 198.151 137.32 201.059C133.902 203.9 129.973 205.12 125.556 204.832C121.117 204.266 117.211 202.257 114.303 198.861C111.706 195.265 110.73 191.004 111.351 186.631C112.252 182.259 114.769 178.419 118.476 175.911C123.847 172.715 130.217 172.604 135.544 175.978V175.982Z" fill="#2EC4B6"/>
    <path d="M85.824 164.662C87.2245 165.459 88.5984 166.311 89.9523 167.17C90.8024 167.692 91.6725 168.174 92.5492 168.657C95.9008 170.531 98.5198 172.431 99.6962 176.271C100.426 179.112 100.127 181.997 99.5131 184.816C99.0892 186.829 98.9183 188.855 98.774 190.897C98.5753 193.25 97.8418 195.314 96.0439 196.912C94.7344 197.882 93.447 198.333 91.8268 198.244C89.5406 197.729 87.432 196.737 85.3234 195.758C85.1619 195.684 84.9994 195.61 84.8329 195.534C82.5024 194.469 80.2606 193.343 78.0633 192.027C77.7925 191.875 77.5217 191.725 77.2509 191.574C71.6576 188.489 71.6576 188.489 70.7032 185.804C70.1794 183.861 70.5827 181.831 71.0139 179.9C71.0641 179.669 71.1145 179.438 71.1662 179.198C71.6035 177.232 72.1228 175.314 72.7487 173.383C72.7982 173.228 72.8475 173.074 72.8986 172.915C75.2069 165.745 75.2069 165.745 78.0036 164.17C80.778 162.851 83.2195 163.202 85.8386 164.653L85.824 164.662Z" fill="#2EC4B6"/>
    <path d="M133.928 51.2452C134.094 51.2678 134.259 51.2904 134.43 51.3138C143.774 52.6233 152.741 56.4409 160.177 62.345C160.391 62.5161 160.607 62.6868 160.827 62.8643C163.934 65.3946 166.797 68.0803 169.283 71.2321C169.429 71.407 169.574 71.5828 169.723 71.7626C171.037 73.3518 172.164 75.0475 173.274 76.7788C173.43 77.0207 173.587 77.2604 173.747 77.509C174.819 79.2025 175.742 80.9493 176.61 82.7472C176.757 83.0557 176.905 83.362 177.054 83.6683C179.362 88.4403 180.672 93.5231 181.493 98.7613C181.522 98.9455 181.552 99.1298 181.582 99.3206C183.14 109.753 182.063 123.958 175.722 132.614C175.238 133.118 175.238 133.118 174.736 133.557C174.49 133.779 174.49 133.779 174.237 134.006C172.59 135.238 170.353 135.042 168.4 134.834C167.485 134.592 166.755 134.225 165.958 133.724C165.772 133.611 165.585 133.497 165.394 133.382C164.762 132.987 164.14 132.579 163.517 132.17C162.955 131.806 162.391 131.447 161.825 131.087C161.601 130.945 161.601 130.945 161.372 130.801C160.431 130.212 159.475 129.684 158.487 129.185C155.224 127.529 153.404 125.634 152.183 122.171C151.28 119.041 151.875 116.245 152.605 113.16C153.56 109.009 153.48 104.326 152.426 100.22C152.38 99.9954 152.335 99.7712 152.288 99.5404C151.669 96.6549 150.341 93.9693 148.648 91.5722C148.513 91.3748 148.379 91.1771 148.242 90.9729C144.091 85.0466 138.187 81.3178 131.106 79.8085C123.715 78.5988 116.369 80.2191 110.243 84.4918C104.25 88.8643 100.277 95.0569 98.9451 102.404C98.3302 106.377 98.5766 110.327 99.6043 114.212C99.6633 114.443 99.7221 114.676 99.7829 114.913C100.813 118.398 102.557 121.683 104.932 124.413C105.064 124.577 105.196 124.741 105.332 124.912C107.107 127.081 109.505 128.641 111.813 130.195C111.987 130.316 112.161 130.437 112.341 130.561C116.692 133.402 122.24 134.134 127.323 134.245C130.275 134.316 133.116 134.536 136.002 135.069C136.199 135.104 136.397 135.14 136.599 135.176C142.281 136.222 147.541 138.173 152.646 140.836C152.804 140.918 152.961 141 153.123 141.085C156.564 142.902 159.738 145.124 162.645 147.721C162.833 147.884 163.02 148.047 163.214 148.216C165.588 150.311 167.808 152.544 169.739 155.052C170.001 155.379 170.001 155.379 170.27 155.714C176.418 163.438 182.388 174.78 181.678 185.012C181.383 186.832 180.246 188.008 178.837 189.118C175.685 191.382 172.112 193.18 168.605 194.845C168.462 194.912 168.319 194.981 168.172 195.051C167.209 195.506 166.243 195.954 165.287 196.398C165.056 196.506 164.827 196.614 164.59 196.726C162.639 197.636 160.705 198.422 158.53 197.801C156.435 196.944 155.134 195.559 154.18 193.517C153.625 192.034 153.483 190.587 153.43 189.011C153.19 182.397 150.478 177.048 146.416 171.987C145.455 170.744 144.291 169.88 143.113 168.853C138.119 164.746 131.993 163.215 125.645 163.037C116.456 162.78 107.733 160.729 99.6764 156.445C99.5126 156.361 99.3479 156.277 99.1792 156.19C96.6489 154.885 94.385 153.26 92.121 151.573C91.9195 151.424 91.7171 151.276 91.5107 151.121C90.3676 150.257 89.3155 149.303 88.2701 148.324C87.7995 147.893 87.3201 147.48 86.8296 147.072C82.4349 143.232 79.1055 138.26 76.3755 133.133L76.1491 132.716C69.1575 119.798 68.2696 104.306 72.4202 90.3223C74.3801 83.9966 77.392 78.0925 81.476 72.8766C81.6589 72.6346 81.8422 72.3927 82.022 72.1508C86.5499 66.1358 92.2542 61.4747 98.7797 57.7902C98.9353 57.7005 99.0904 57.6109 99.2503 57.5194C109.66 51.5488 122.334 49.4624 134.097 51.1271L133.928 51.2452Z" fill="#CBF3F0"/>
    <path fill-rule="evenodd" clip-rule="evenodd" d="M178.104 189.531C175.137 191.557 171.842 193.207 168.605 194.744C168.462 194.812 168.319 194.88 168.172 194.95C167.209 195.405 166.243 195.854 165.287 196.298C165.113 196.379 164.94 196.46 164.765 196.543C164.707 196.571 164.648 196.598 164.59 196.626C162.639 197.536 160.705 198.322 158.53 197.7C156.435 196.844 155.134 195.459 154.18 193.417C153.625 191.934 153.483 190.487 153.43 188.911C153.19 182.297 150.478 176.947 146.416 171.887C145.663 170.912 144.785 170.171 143.874 169.402C143.622 169.189 143.368 168.975 143.113 168.752C138.119 164.646 131.993 163.115 125.645 162.937C116.456 162.68 107.733 160.629 99.6764 156.345C99.5574 156.284 99.438 156.222 99.3168 156.16C99.2712 156.137 99.2254 156.113 99.1792 156.09C96.6489 154.785 94.385 153.16 92.121 151.473C92.0665 151.433 92.012 151.393 91.9573 151.352C91.8098 151.243 91.6613 151.134 91.5106 151.02C90.3676 150.157 89.3155 149.202 88.2701 148.224C87.7995 147.793 87.3201 147.38 86.8296 146.972C82.4348 143.132 79.1055 138.16 76.3754 133.033L76.1491 132.616C71.9291 124.819 69.9327 116.084 69.9258 107.309C77.317 113.011 88.155 118.449 102.989 121.748C103.58 122.645 104.228 123.503 104.932 124.313C104.974 124.365 105.017 124.418 105.059 124.47C105.149 124.583 105.24 124.696 105.332 124.812C107.02 126.874 109.271 128.386 111.472 129.865C111.586 129.942 111.7 130.018 111.813 130.094C111.987 130.215 112.161 130.336 112.341 130.461C116.692 133.302 122.24 134.034 127.323 134.145C130.275 134.216 133.116 134.436 136.002 134.969C136.093 134.985 136.184 135.001 136.275 135.018C136.382 135.037 136.49 135.056 136.599 135.076C142.281 136.121 147.541 138.072 152.646 140.736C152.804 140.818 152.961 140.9 153.123 140.984C156.564 142.802 159.738 145.024 162.645 147.621L162.682 147.652C162.857 147.805 163.033 147.958 163.214 148.116C165.588 150.211 167.808 152.444 169.739 154.952C170.001 155.278 170.001 155.278 170.27 155.613C176.109 162.95 181.788 173.55 181.735 183.363L178.104 189.531Z" fill="#2EC4B6" fill-opacity="0.33"/>
    <path fill-rule="evenodd" clip-rule="evenodd" d="M118.511 133.181C121.396 133.919 124.435 134.183 127.324 134.246C130.276 134.317 133.117 134.536 136.003 135.069C136.094 135.086 136.185 135.102 136.276 135.118C136.383 135.137 136.491 135.157 136.6 135.176C142.282 136.222 147.542 138.173 152.647 140.836C152.789 140.91 152.932 140.984 153.077 141.06L153.125 141.085C156.565 142.903 159.739 145.124 162.646 147.721L162.687 147.756C162.861 147.908 163.035 148.06 163.215 148.216C165.59 150.312 167.809 152.544 169.74 155.053C170.002 155.379 170.002 155.379 170.271 155.714C176.419 163.438 182.389 174.78 181.679 185.012C181.384 186.832 180.248 188.009 178.838 189.118C175.686 191.382 172.113 193.18 168.606 194.845C168.463 194.913 168.32 194.981 168.173 195.051C167.21 195.506 166.244 195.954 165.288 196.398C165.057 196.506 164.828 196.614 164.591 196.727C162.64 197.637 160.707 198.422 158.531 197.801C156.436 196.944 155.135 195.559 154.181 193.517C153.626 192.034 153.484 190.587 153.431 189.011C153.191 182.397 150.479 177.048 146.417 171.987C145.664 171.013 144.786 170.272 143.875 169.502C143.623 169.29 143.369 169.075 143.114 168.853C138.12 164.747 131.994 163.215 125.646 163.038C116.457 162.78 107.735 160.729 99.6775 156.446C99.5583 156.384 99.4386 156.323 99.3172 156.261C99.2718 156.237 99.2262 156.214 99.1803 156.19C96.65 154.885 94.3861 153.26 92.1221 151.574C92.0676 151.533 92.0131 151.493 91.9584 151.453C91.8108 151.344 91.6623 151.234 91.5117 151.121C90.3687 150.257 89.3166 149.303 88.2712 148.324C87.8006 147.894 87.3212 147.481 86.8307 147.072C82.4359 143.232 79.1066 138.261 76.3765 133.133L76.1502 132.716C72.3501 125.695 70.3531 117.913 69.9883 110.027C79.0982 119.427 94.7893 129.764 118.511 133.181Z" fill="#2EC4B6"/>
  </g>
  <defs>
    <filter id="filter0_d_3670_37336" x="0.445312" y="0.845703" width="251.508" height="255.509" filterUnits="userSpaceOnUse" color-interpolation-filters="sRGB">
      <feFlood flood-opacity="0" result="BackgroundImageFix"/>
      <feColorMatrix in="SourceAlpha" type="matrix" values="0 0 0 0 0 0 0 0 0 0 0 0 0 0 0 0 0 0 127 0" result="hardAlpha"/>
      <feOffset dy="4"/>
      <feComposite in2="hardAlpha" operator="out"/>
      <feColorMatrix type="matrix" values="0 0 0 0 0 0 0 0 0 0 0 0 0 0 0 0 0 0 0.25 0"/>
      <feBlend mode="normal" in2="BackgroundImageFix" result="effect1_dropShadow_3670_37336"/>
      <feBlend mode="normal" in="SourceGraphic" in2="effect1_dropShadow_3670_37336" result="shape"/>
    </filter>
  </defs>
</svg>