<svg width="428" height="136" viewBox="0 0 428 136" fill="none" xmlns="http://www.w3.org/2000/svg">
<g filter="url(#filter0_d_3670_37361)">
<path d="M422.059 105.581C422.059 103.363 420.261 101.566 418.044 101.566H409.147V57.3614H417.302C419.519 57.3614 421.317 55.5639 421.317 53.3465V37.3115C421.317 35.0942 419.519 33.2966 417.302 33.2966H409.147V29.7569H417.896C420.113 29.7569 421.91 27.9594 421.91 25.742V8.96495C421.91 6.74759 420.113 4.95007 417.896 4.95007H384.051C381.834 4.95007 380.036 6.74761 380.036 8.96495V123.248C380.036 125.466 381.834 127.263 384.051 127.263H418.044C420.261 127.263 422.059 125.466 422.059 123.248V105.581Z" fill="#090068" stroke="white" stroke-width="5.06813"/>
<path d="M345.053 42.6576V30.6363C345.053 30.3478 345.058 30.1101 345.067 29.9094C345.149 29.9068 345.239 29.9053 345.339 29.9053C345.439 29.9053 345.53 29.9068 345.611 29.9094C345.621 30.1101 345.625 30.3478 345.625 30.6363V43.9966C345.625 44.8262 345.876 45.597 346.307 46.2369C346.025 45.9861 345.82 45.7614 345.665 45.5473C345.29 45.0307 345.053 44.3699 345.053 42.6576ZM345.128 29.3566C345.129 29.3567 345.128 29.3585 345.127 29.3621C345.128 29.3583 345.128 29.3566 345.128 29.3566ZM345.55 29.3566C345.55 29.3566 345.55 29.3583 345.551 29.3621C345.55 29.3585 345.55 29.3567 345.55 29.3566ZM349.907 48.5992C349.681 48.4725 349.516 48.3804 349.423 48.3274C349.168 48.1788 348.928 48.0372 348.704 47.9019C349.004 47.9736 349.318 48.0115 349.64 48.0115H370.275C372.493 48.0115 374.29 46.214 374.29 43.9966V30.6363C374.29 25.162 373.985 20.6741 373.114 17.0529C372.232 13.3874 370.733 10.4544 368.247 8.28388C365.789 6.13763 362.626 4.96544 358.857 4.30617C355.1 3.64923 350.519 3.46593 345.042 3.46593C339.53 3.46593 334.938 3.64913 331.187 4.30631C327.423 4.96592 324.276 6.14 321.842 8.29565C319.383 10.4742 317.923 13.4131 317.071 17.0708C316.229 20.6858 315.942 25.1686 315.942 30.6363V42.2124C315.942 47.6726 316.113 51.9738 317.245 55.6009C318.428 59.3922 320.597 62.2751 324.158 65.1107C328.396 68.5739 337.193 73.5092 340.991 75.5939H320.551C318.334 75.5939 316.536 77.3914 316.536 79.6088V101.429C316.536 106.983 316.861 111.518 317.749 115.167C318.647 118.858 320.16 121.795 322.63 123.963C325.077 126.109 328.206 127.274 331.904 127.925C335.586 128.573 340.05 128.747 345.339 128.747C350.929 128.747 355.585 128.555 359.391 127.883C363.21 127.21 366.398 126.018 368.865 123.85C371.36 121.659 372.852 118.705 373.725 115.028C374.588 111.395 374.884 106.899 374.884 101.429V82.4319C374.884 76.4305 374.761 71.8544 373.359 67.9883C371.893 63.9442 369.147 60.941 364.642 57.6777C359.944 54.2252 352.079 49.8169 349.907 48.5992ZM345.053 79.6088C345.053 78.9466 344.893 78.3219 344.609 77.7713C344.91 78.016 345.098 78.2172 345.225 78.395C345.439 78.6943 345.625 79.1227 345.625 80.3541V101.429C345.625 101.717 345.621 101.955 345.611 102.155C345.53 102.158 345.439 102.16 345.339 102.16C345.239 102.16 345.149 102.158 345.067 102.155C345.058 101.955 345.053 101.717 345.053 101.429V79.6088ZM345.55 102.708C345.55 102.708 345.55 102.706 345.551 102.703C345.55 102.707 345.55 102.708 345.55 102.708ZM345.128 102.708C345.128 102.708 345.128 102.706 345.127 102.703C345.128 102.706 345.129 102.708 345.128 102.708Z" fill="#090068" stroke="white" stroke-width="5.06813"/>
<path d="M313.755 31.3784C313.755 26.091 313.459 21.7354 312.592 18.2109C311.711 14.6354 310.206 11.7683 307.7 9.64918C305.232 7.5614 302.051 6.42053 298.245 5.77636C294.447 5.13356 289.798 4.95007 284.21 4.95007H258.828C256.611 4.95007 254.814 6.74761 254.814 8.96495V123.248C254.814 125.466 256.611 127.263 258.828 127.263H279.91C282.127 127.263 283.924 125.466 283.924 123.248V82.8882H284.21C289.798 82.8882 294.447 82.7047 298.245 82.0619C302.051 81.4177 305.232 80.2768 307.7 78.1891C310.206 76.0699 311.711 73.2028 312.592 69.6274C313.459 66.1029 313.755 61.7473 313.755 56.4599V31.3784ZM283.924 58.3782V30.6474H284.21C284.31 30.6474 284.401 30.6488 284.482 30.6515C284.492 30.8522 284.496 31.0899 284.496 31.3784V57.6472C284.496 57.9356 284.492 58.1733 284.482 58.3741C284.401 58.3767 284.31 58.3782 284.21 58.3782H283.924ZM284.421 30.0987C284.421 30.0986 284.421 30.1003 284.422 30.1039C284.421 30.1006 284.421 30.0988 284.421 30.0987ZM284.421 58.9268C284.421 58.9268 284.421 58.925 284.422 58.9216C284.421 58.9252 284.421 58.9269 284.421 58.9268Z" fill="#090068" stroke="white" stroke-width="5.06813"/>
<path d="M249.077 30.6363C249.077 19.8943 247.873 12.566 242.914 8.27619C240.442 6.13762 237.277 4.96599 233.52 4.30646C229.778 3.64933 225.233 3.46593 219.829 3.46593C214.427 3.46593 209.899 3.64921 206.181 4.30706C202.449 4.96755 199.313 6.1424 196.875 8.29169C194.412 10.4631 192.925 13.3944 192.049 17.0562C191.183 20.6753 190.878 25.1615 190.878 30.6363V123.248C190.878 125.466 192.676 127.263 194.893 127.263H215.232C217.449 127.263 219.247 125.466 219.247 123.248V103.963H219.818V123.248C219.818 125.466 221.616 127.263 223.833 127.263H245.063C247.28 127.263 249.077 125.466 249.077 123.248V30.6363ZM219.818 79.1557H219.247V30.6363C219.247 30.3478 219.251 30.1101 219.261 29.9094C219.342 29.9068 219.432 29.9053 219.533 29.9053C219.633 29.9053 219.723 29.9068 219.804 29.9094C219.814 30.1101 219.818 30.3478 219.818 30.6363V79.1557ZM219.322 29.3566C219.322 29.3567 219.322 29.3585 219.32 29.3621C219.321 29.3583 219.322 29.3566 219.322 29.3566ZM219.743 29.3566C219.743 29.3566 219.744 29.3584 219.745 29.3621C219.744 29.3585 219.743 29.3566 219.743 29.3566Z" fill="#090068" stroke="white" stroke-width="5.06813"/>
<path d="M184.969 8.96495C184.969 6.74758 183.172 4.95007 180.955 4.95007H163.881C161.663 4.95007 159.866 6.7476 159.866 8.96495V39.9245L154.569 8.3017C154.245 6.36724 152.571 4.95007 150.609 4.95007H127.52C125.303 4.95007 123.505 6.74761 123.505 8.96495V123.248C123.505 125.466 125.303 127.263 127.52 127.263H144.445C146.663 127.263 148.46 125.466 148.46 123.248V91.4658L154.782 124.014C155.148 125.901 156.801 127.263 158.723 127.263H180.955C183.172 127.263 184.969 125.466 184.969 123.248V8.96495Z" fill="#090068" stroke="white" stroke-width="5.06813"/>
<path d="M93.8887 8.5679L96.4103 8.8185L93.8887 8.56791L91.6454 31.1412L89.6868 8.61714C89.5064 6.54241 87.7695 4.95007 85.687 4.95007H64.956C62.423 4.95007 60.523 7.26694 61.0188 9.75092L76.4963 87.2831V123.248C76.4963 125.466 78.2939 127.263 80.5112 127.263H101.741C103.958 127.263 105.756 125.466 105.756 123.248V87.2945L121.951 9.78614C122.472 7.29234 120.569 4.95007 118.021 4.95007H97.8839C95.8203 4.95007 94.0928 6.51442 93.8887 8.5679Z" fill="#090068" stroke="white" stroke-width="5.06813"/>
<path d="M32.5767 42.6576V30.6363C32.5767 30.3478 32.581 30.1101 32.5907 29.9094C32.672 29.9068 32.7622 29.9053 32.8625 29.9053C32.9627 29.9053 33.053 29.9068 33.1342 29.9094C33.144 30.1101 33.1482 30.3478 33.1482 30.6363V43.9966C33.1482 44.8262 33.3998 45.597 33.8308 46.2369C33.5482 45.9861 33.3434 45.7614 33.188 45.5473C32.8131 45.0307 32.5767 44.3699 32.5767 42.6576ZM32.6519 29.3566C32.652 29.3567 32.6515 29.3585 32.6503 29.3621C32.6513 29.3583 32.6519 29.3566 32.6519 29.3566ZM33.073 29.3566C33.073 29.3565 33.0736 29.3582 33.0745 29.3618C33.0735 29.3585 33.073 29.3567 33.073 29.3566ZM37.4302 48.5992C37.2042 48.4726 37.0399 48.3805 36.947 48.3275C36.6911 48.1789 36.4517 48.0372 36.2276 47.9019C36.5277 47.9736 36.841 48.0115 37.1631 48.0115H57.7989C60.0162 48.0115 61.8138 46.214 61.8138 43.9966V30.6363C61.8138 25.162 61.5085 20.6741 60.6373 17.0529C59.7554 13.3874 58.2562 10.4544 55.7706 8.28388C53.3128 6.13763 50.1498 4.96544 46.3801 4.30617C42.6237 3.64923 38.042 3.46593 32.5656 3.46593C27.0533 3.46593 22.4614 3.64913 18.7109 4.30631C14.9467 4.96592 11.7996 6.14 9.36581 8.29565C6.90617 10.4742 5.44601 13.4131 4.59406 17.0708C3.75208 20.6858 3.46593 25.1686 3.46593 30.6363V42.2124C3.46593 47.6726 3.63616 51.9738 4.76833 55.6009C5.95172 59.3922 8.12001 62.2751 11.6811 65.1107C15.9198 68.5739 24.7161 73.5092 28.5146 75.5939H8.07446C5.8571 75.5939 4.05958 77.3914 4.05958 79.6088V101.429C4.05958 106.983 4.38401 111.518 5.27239 115.167C6.17094 118.858 7.68336 121.795 10.1539 123.963C12.6002 126.109 15.7295 127.274 19.4278 127.925C23.1099 128.573 27.5732 128.747 32.8625 128.747C38.452 128.747 43.1086 128.555 46.9148 127.883C50.7339 127.21 53.9214 126.018 56.3885 123.85C58.8832 121.659 60.3755 118.705 61.2489 115.028C62.1118 111.395 62.4074 106.899 62.4074 101.429V82.4319C62.4074 76.4305 62.2848 71.8544 60.8828 67.9883C59.4162 63.9442 56.6702 60.941 52.1652 57.6777C47.4679 54.2253 39.6029 49.817 37.4302 48.5992ZM32.5767 79.6088C32.5767 78.9466 32.4164 78.3219 32.1325 77.7713C32.4336 78.016 32.6213 78.2172 32.7483 78.395C32.9621 78.6943 33.1482 79.1227 33.1482 80.3541V101.429C33.1482 101.717 33.144 101.955 33.1342 102.155C33.053 102.158 32.9627 102.16 32.8625 102.16C32.7622 102.16 32.672 102.158 32.5907 102.155C32.581 101.955 32.5767 101.717 32.5767 101.429V79.6088ZM33.073 102.708C33.0729 102.708 33.0734 102.706 33.0745 102.703C33.0736 102.707 33.073 102.708 33.073 102.708ZM32.6519 102.708C32.6519 102.708 32.6514 102.707 32.6504 102.703C32.6514 102.706 32.6519 102.708 32.6519 102.708Z" fill="#090068" stroke="white" stroke-width="5.06813"/>
</g>
<defs>
<filter id="filter0_d_3670_37361" x="0.931641" y="0.931885" width="426.596" height="134.884" filterUnits="userSpaceOnUse" color-interpolation-filters="sRGB">
<feFlood flood-opacity="0" result="BackgroundImageFix"/>
<feColorMatrix in="SourceAlpha" type="matrix" values="0 0 0 0 0 0 0 0 0 0 0 0 0 0 0 0 0 0 127 0" result="hardAlpha"/>
<feOffset dx="1.86721" dy="3.46767"/>
<feGaussianBlur stdDeviation="0.533487"/>
<feComposite in2="hardAlpha" operator="out"/>
<feColorMatrix type="matrix" values="0 0 0 0 0 0 0 0 0 0 0 0 0 0 0 0 0 0 0.25 0"/>
<feBlend mode="normal" in2="BackgroundImageFix" result="effect1_dropShadow_3670_37361"/>
<feBlend mode="normal" in="SourceGraphic" in2="effect1_dropShadow_3670_37361" result="shape"/>
</filter>
</defs>
</svg>
