<svg width="507" height="268" viewBox="0 0 507 268" fill="none" xmlns="http://www.w3.org/2000/svg">
<path d="M378.376 96.1191C378.358 95.2502 377.627 93.7736 376.763 93.7913C375.899 93.8091 374.197 95.8604 374.215 96.7292C374.233 97.5981 375.98 97.7422 376.844 97.7245C377.707 97.7067 378.393 96.988 378.376 96.1191Z" fill="white"/>
<path d="M375.345 164.363C375.327 163.494 374.618 163.066 373.754 163.084C372.89 163.102 372.46 163.553 372.477 164.422C372.495 165.291 372.949 165.986 373.813 165.968C374.677 165.951 375.363 165.232 375.345 164.363Z" fill="white"/>
<path d="M378.601 157.759C378.583 156.891 377.868 156.201 377.004 156.218C376.14 156.236 377.026 157.267 376.515 157.802C376.533 158.671 376.205 159.383 377.069 159.365C377.933 159.347 378.619 158.628 378.601 157.759Z" fill="white"/>
<path d="M368.887 142.047C368.87 141.178 368.676 140.478 367.812 140.495C366.948 140.513 366.262 141.232 366.28 142.101C366.298 142.97 367.013 143.66 367.877 143.642C368.741 143.624 368.905 142.916 368.887 142.047Z" fill="white"/>
<path d="M369.69 130.399C369.672 129.53 368.974 129.627 368.11 129.645C367.246 129.663 366.544 129.595 366.561 130.464C366.579 131.332 367.294 132.022 368.158 132.005C369.022 131.987 369.708 131.268 369.69 130.399Z" fill="white"/>
<path d="M381.019 72.4559C381.001 71.5871 380.286 70.8971 379.422 70.9149C378.559 70.9326 377.612 71.6567 377.63 72.5256C377.648 73.3945 378.623 74.0791 379.487 74.0614C380.351 74.0436 381.037 73.3248 381.019 72.4559Z" fill="white"/>
<path d="M378.613 107.656C378.595 106.787 377.875 105.835 377.011 105.853C376.147 105.871 374.684 106.868 374.702 107.737C374.72 108.605 376.217 109.279 377.081 109.262C377.945 109.244 378.631 108.525 378.613 107.656Z" fill="white"/>
<path d="M376.206 142.856C376.188 141.987 375.49 142.084 374.626 142.102C373.762 142.12 373.06 142.052 373.078 142.921C373.095 143.79 373.816 144.742 374.68 144.724C375.544 144.706 376.224 143.725 376.206 142.856Z" fill="white"/>
<path d="M373.801 178.057C373.784 177.188 373.872 177.531 373.008 177.548C372.144 177.566 370.655 177.252 370.673 178.121C370.691 178.99 371.405 179.68 372.269 179.662C373.133 179.644 373.819 178.926 373.801 178.057Z" fill="white"/>
<path d="M361.782 62.8834C361.764 62.0145 360.789 61.3299 359.925 61.3477C359.061 61.3655 358.375 62.0842 358.393 62.9531C358.411 63.822 359.142 65.2986 360.006 65.2808C360.87 65.2631 361.8 63.7523 361.782 62.8834Z" fill="white"/>
<path d="M375.178 54.7385C375.16 53.8696 373.631 51.6224 372.767 51.6402C371.903 51.658 371.217 52.3767 371.235 53.2456C371.253 54.1145 371.968 54.8045 372.832 54.7867C373.696 54.7689 375.196 55.6074 375.178 54.7385Z" fill="white"/>
<path d="M371.581 70.0265C371.563 69.1576 370.848 68.4677 369.984 68.4854C369.12 68.5032 367.913 69.2327 367.931 70.1016C367.948 70.9704 368.663 71.6604 369.527 71.6426C370.391 71.6249 371.599 70.8954 371.581 70.0265Z" fill="white"/>
<path d="M372.665 84.6942C372.647 83.8253 371.671 83.1407 370.807 83.1585C369.943 83.1762 369.257 83.895 369.275 84.7639C369.293 85.6328 370.019 86.8472 370.883 86.8294C371.747 86.8117 372.682 85.5631 372.665 84.6942Z" fill="white"/>
<path d="M368.249 111.017C368.231 110.148 366.994 109.469 366.131 109.487C365.267 109.504 364.581 110.223 364.599 111.092C364.616 111.961 365.331 112.651 366.195 112.633C367.059 112.615 368.266 111.886 368.249 111.017Z" fill="white"/>
<path d="M371.71 76.3197C371.692 75.4508 370.971 74.4986 370.108 74.5164C369.244 74.5342 368.563 75.5151 368.581 76.384C368.599 77.2529 369.314 77.9429 370.178 77.9251C371.042 77.9074 371.727 77.1886 371.71 76.3197Z" fill="white"/>
<path d="M367.915 94.7602C367.897 93.8913 366.66 93.212 365.797 93.2298C364.933 93.2475 364.247 93.9663 364.265 94.8352C364.282 95.7041 364.997 96.394 365.861 96.3763C366.725 96.3585 367.932 95.629 367.915 94.7602Z" fill="white"/>
<path d="M378.936 123.389C378.918 122.52 378.73 122.081 377.866 122.099C377.116 123.688 376.329 123.442 375.286 123.464C375.304 124.332 376.54 125.012 377.404 124.994C378.268 124.976 378.954 124.257 378.936 123.389Z" fill="white"/>
<path d="M308.337 104.77C308.319 105.634 307.588 107.103 306.724 107.085C305.86 107.067 304.158 105.027 304.176 104.163C304.194 103.299 305.941 103.156 306.804 103.174C307.668 103.192 308.354 103.906 308.337 104.77Z" fill="white"/>
<path d="M305.299 36.9136C305.281 37.7775 304.571 38.2028 303.708 38.185C302.844 38.1672 302.413 37.7185 302.431 36.8546C302.448 35.9906 302.903 35.2993 303.766 35.3171C304.63 35.3348 305.316 36.0496 305.299 36.9136Z" fill="white"/>
<path d="M308.554 43.4797C308.536 44.3436 307.822 45.0296 306.958 45.0118C306.094 44.9941 306.979 43.969 306.468 43.4368C306.486 42.5728 306.158 41.8654 307.022 41.8832C307.886 41.901 308.572 42.6157 308.554 43.4797Z" fill="white"/>
<path d="M298.843 59.1017C298.825 59.9656 298.632 60.6622 297.768 60.6444C296.904 60.6267 296.218 59.9119 296.235 59.048C296.253 58.184 296.968 57.498 297.832 57.5158C298.696 57.5336 298.86 58.2377 298.843 59.1017Z" fill="white"/>
<path d="M299.647 70.6838C299.63 71.5478 298.931 71.4516 298.067 71.4338C297.203 71.4161 296.501 71.4835 296.519 70.6195C296.536 69.7555 297.251 69.0696 298.115 69.0873C298.979 69.1051 299.665 69.8199 299.647 70.6838Z" fill="white"/>
<path d="M310.984 128.3C310.966 129.163 310.252 129.849 309.388 129.832C308.524 129.814 307.577 129.094 307.595 128.23C307.613 127.366 308.588 126.685 309.452 126.703C310.316 126.721 311.002 127.436 310.984 128.3Z" fill="white"/>
<path d="M308.572 93.2988C308.554 94.1627 307.834 95.1094 306.97 95.0917C306.106 95.0739 304.643 94.0823 304.661 93.2184C304.679 92.3544 306.176 91.6845 307.04 91.7023C307.904 91.72 308.59 92.4348 308.572 93.2988Z" fill="white"/>
<path d="M306.163 58.2978C306.146 59.1618 305.447 59.0656 304.583 59.0478C303.719 59.0301 303.017 59.0974 303.035 58.2335C303.053 57.3695 303.773 56.4228 304.637 56.4406C305.501 56.4584 306.181 57.4339 306.163 58.2978Z" fill="white"/>
<path d="M303.753 23.2969C303.735 24.1608 303.824 23.82 302.96 23.8022C302.096 23.7845 300.606 24.0965 300.624 23.2325C300.642 22.3686 301.357 21.6826 302.221 21.7004C303.085 21.7181 303.771 22.4329 303.753 23.2969Z" fill="white"/>
<path d="M291.747 137.816C291.73 138.68 290.754 139.36 289.89 139.342C289.026 139.325 288.34 138.61 288.358 137.746C288.376 136.882 289.107 135.414 289.971 135.432C290.835 135.449 291.765 136.952 291.747 137.816Z" fill="white"/>
<path d="M305.143 145.916C305.125 146.78 303.596 149.014 302.732 148.996C301.868 148.978 301.182 148.264 301.2 147.4C301.218 146.536 301.933 145.85 302.797 145.868C303.661 145.885 305.161 145.052 305.143 145.916Z" fill="white"/>
<path d="M301.544 130.714C301.526 131.578 300.811 132.264 299.947 132.246C299.083 132.228 297.876 131.503 297.894 130.639C297.911 129.775 298.626 129.089 299.49 129.107C300.354 129.124 301.561 129.85 301.544 130.714Z" fill="white"/>
<path d="M302.626 116.13C302.608 116.994 301.633 117.674 300.769 117.656C299.905 117.639 299.219 116.924 299.236 116.06C299.254 115.196 299.98 113.989 300.844 114.006C301.708 114.024 302.644 115.266 302.626 116.13Z" fill="white"/>
<path d="M298.208 89.9558C298.19 90.8197 296.954 91.495 296.09 91.4772C295.226 91.4595 294.54 90.7447 294.558 89.8807C294.575 89.0168 295.29 88.3308 296.154 88.3486C297.018 88.3663 298.226 89.0918 298.208 89.9558Z" fill="white"/>
<path d="M301.673 124.457C301.655 125.32 300.935 126.267 300.071 126.249C299.207 126.232 298.526 125.256 298.544 124.392C298.562 123.528 299.277 122.842 300.14 122.86C301.004 122.878 301.69 123.593 301.673 124.457Z" fill="white"/>
<path d="M297.876 106.12C297.858 106.984 296.622 107.66 295.758 107.642C294.894 107.624 294.208 106.909 294.226 106.045C294.243 105.181 294.958 104.495 295.822 104.513C296.686 104.531 297.894 105.256 297.876 106.12Z" fill="white"/>
<path d="M308.895 77.6555C308.878 78.5194 308.69 78.9554 307.826 78.9376C307.076 77.3572 306.288 77.6019 305.245 77.5804C305.263 76.7165 306.499 76.0412 307.363 76.059C308.227 76.0768 308.913 76.7915 308.895 77.6555Z" fill="white"/>
<path d="M433.7 52.5113C433.682 51.6473 432.951 50.1792 432.087 50.197C431.223 50.2147 429.521 52.2545 429.539 53.1185C429.557 53.9824 431.304 54.1255 432.168 54.1078C433.032 54.09 433.718 53.3753 433.7 52.5113Z" fill="white"/>
<path d="M430.662 120.368C430.644 119.504 429.935 119.079 429.071 119.097C428.207 119.114 427.776 119.563 427.794 120.427C427.812 121.291 428.266 121.982 429.13 121.965C429.994 121.947 430.68 121.232 430.662 120.368Z" fill="white"/>
<path d="M433.917 113.802C433.9 112.938 433.185 112.252 432.321 112.27C431.457 112.288 432.342 113.313 431.832 113.845C431.849 114.709 431.521 115.416 432.385 115.399C433.249 115.381 433.935 114.666 433.917 113.802Z" fill="white"/>
<path d="M424.206 98.1801C424.188 97.3161 423.995 96.6195 423.131 96.6373C422.267 96.655 421.581 97.3698 421.599 98.2338C421.616 99.0977 422.331 99.7837 423.195 99.7659C424.059 99.7482 424.224 99.044 424.206 98.1801Z" fill="white"/>
<path d="M425.011 86.5979C424.993 85.734 424.294 85.8302 423.43 85.8479C422.566 85.8657 421.864 85.7983 421.882 86.6622C421.9 87.5262 422.614 88.2122 423.478 88.1944C424.342 88.1766 425.028 87.4619 425.011 86.5979Z" fill="white"/>
<path d="M436.347 28.9825C436.33 28.1185 435.615 27.4325 434.751 27.4503C433.887 27.468 432.94 28.1882 432.958 29.0521C432.976 29.9161 433.951 30.5967 434.815 30.5789C435.679 30.5612 436.365 29.8464 436.347 28.9825Z" fill="white"/>
<path d="M433.935 63.983C433.918 63.119 433.197 62.1723 432.333 62.1901C431.469 62.2078 430.007 63.1994 430.024 64.0634C430.042 64.9273 431.539 65.5972 432.403 65.5794C433.267 65.5617 433.953 64.8469 433.935 63.983Z" fill="white"/>
<path d="M431.525 98.9839C431.507 98.12 430.808 98.2162 429.944 98.2339C429.08 98.2517 428.378 98.1843 428.396 99.0482C428.414 99.9122 429.134 100.859 429.998 100.841C430.862 100.823 431.542 99.8479 431.525 98.9839Z" fill="white"/>
<path d="M429.116 133.985C429.098 133.121 429.187 133.462 428.323 133.48C427.459 133.497 425.97 133.185 425.987 134.049C426.005 134.913 426.72 135.599 427.584 135.581C428.448 135.564 429.134 134.849 429.116 133.985Z" fill="white"/>
<path d="M417.111 19.4664C417.093 18.6025 416.117 17.9218 415.253 17.9396C414.39 17.9574 413.704 18.6721 413.721 19.5361C413.739 20.4 414.47 21.8682 415.334 21.8504C416.198 21.8327 417.128 20.3304 417.111 19.4664Z" fill="white"/>
<path d="M430.506 11.366C430.489 10.502 428.96 8.26774 428.096 8.2855C427.232 8.30326 426.546 9.01803 426.563 9.88198C426.581 10.7459 427.296 11.4319 428.16 11.4141C429.024 11.3964 430.524 12.2299 430.506 11.366Z" fill="white"/>
<path d="M426.907 26.5679C426.889 25.704 426.174 25.018 425.311 25.0357C424.447 25.0535 423.239 25.779 423.257 26.643C423.275 27.5069 423.989 28.1929 424.853 28.1751C425.717 28.1574 426.925 27.4319 426.907 26.5679Z" fill="white"/>
<path d="M427.989 41.1522C427.971 40.2882 426.996 39.6076 426.132 39.6254C425.268 39.6431 424.582 40.3579 424.6 41.2219C424.617 42.0858 425.343 43.2932 426.207 43.2755C427.071 43.2577 428.007 42.0161 427.989 41.1522Z" fill="white"/>
<path d="M423.571 67.326C423.553 66.462 422.317 65.7868 421.453 65.8045C420.589 65.8223 419.903 66.5371 419.921 67.401C419.939 68.265 420.653 68.9509 421.517 68.9332C422.381 68.9154 423.589 68.1899 423.571 67.326Z" fill="white"/>
<path d="M427.036 32.8252C427.018 31.9613 426.298 31.0146 425.434 31.0323C424.57 31.0501 423.89 32.0256 423.907 32.8895C423.925 33.7535 424.64 34.4395 425.504 34.4217C426.368 34.4039 427.054 33.6892 427.036 32.8252Z" fill="white"/>
<path d="M423.239 51.1614C423.221 50.2975 421.985 49.6222 421.121 49.64C420.257 49.6577 419.571 50.3725 419.589 51.2365C419.607 52.1004 420.321 52.7864 421.185 52.7686C422.049 52.7509 423.257 52.0254 423.239 51.1614Z" fill="white"/>
<path d="M434.259 79.6263C434.241 78.7623 434.053 78.3263 433.189 78.3441C432.439 79.9245 431.651 79.6799 430.608 79.7013C430.626 80.5653 431.862 81.2405 432.726 81.2227C433.59 81.205 434.276 80.4902 434.259 79.6263Z" fill="white"/>
<mask id="path-52-outside-1_940_5111" maskUnits="userSpaceOnUse" x="-0.205078" y="0.0952148" width="492" height="268" fill="black">
<rect fill="white" x="-0.205078" y="0.0952148" width="492" height="268"/>
<path d="M194.003 10.0952L193.145 10.1338L192.287 10.1725L187.381 18.7945C184.683 23.5366 182.503 27.4438 182.536 27.4772C182.57 27.5107 183.637 27.6285 184.909 27.739C186.767 27.9006 187.296 27.9965 187.606 28.2277L187.991 28.5155L187.983 35.6038C187.979 39.5024 187.863 46.8452 187.726 51.9209C187.589 56.9966 187.41 65.9945 187.328 71.9162C187.247 77.8379 187.116 84.1001 187.037 85.8323C186.959 87.5645 186.852 89.9706 186.798 91.1791C186.745 92.3876 186.662 93.4856 186.613 93.6193C186.538 93.8266 186.159 93.6966 184.032 92.7321C182.661 92.1103 180.785 91.2757 179.863 90.8775C177.88 90.0212 176.857 89.1896 176.317 87.9959L175.967 87.224L175.971 78.8743C175.973 74.2819 175.998 70.195 176.026 69.7922C176.054 69.3893 176.028 68.4576 175.967 67.7216C175.871 66.5737 175.899 66.2404 176.162 65.3778C176.556 64.0848 177.091 63.2568 178.496 61.7643C180.323 59.8246 181.021 58.2269 181.024 55.9782C181.029 52.7483 179.511 49.6903 177.113 48.1003C174.413 46.3098 170.271 46.0872 167.243 47.5698C165.137 48.6008 163.366 50.8161 162.753 53.1843C162.434 54.4144 162.432 56.6228 162.749 57.8536C163.093 59.1913 163.863 60.6824 164.829 61.8819C165.944 63.2665 166.348 63.9825 166.536 64.9095C166.638 65.4105 166.73 70.285 166.794 78.5081C166.902 92.5289 166.861 91.9251 167.791 93.011C168.285 93.5877 169.489 94.3322 180.879 101.108C183.258 102.523 185.383 103.868 185.6 104.095C186.235 104.76 186.471 105.532 186.597 107.359C186.797 110.246 186.4 111.646 185.001 112.979C184.541 113.416 183.871 113.922 183.512 114.104C181.05 115.344 179.103 117.493 178.043 120.14C177.365 121.833 177.169 123.048 177.16 125.603C177.152 128.233 177.402 129.599 178.228 131.437C180.088 135.572 184.286 138.634 189.013 139.303C190.394 139.499 192.73 139.334 194.332 138.928C198.865 137.78 202.742 134.196 204.228 129.778C204.682 128.428 204.696 128.312 204.693 125.896C204.691 123.609 204.658 123.298 204.291 122.088C203.216 118.543 201.257 115.807 198.679 114.251C197.384 113.469 196.369 112.398 196.136 111.568C195.979 111.006 195.961 109.272 196.043 102.564C196.141 94.5323 196.27 91.6404 196.58 90.4813C196.795 89.6766 197.47 88.9967 198.743 88.3026C199.362 87.9653 201.154 86.9827 202.727 86.1187C204.299 85.2547 207.193 83.7145 209.158 82.6961C213.12 80.6418 213.785 80.2283 214.761 79.2139C216.285 77.6291 216.74 75.8905 216.94 70.8908C217.016 68.9975 217.151 63.0318 217.241 57.6338C217.331 52.2358 217.439 47.5312 217.482 47.179C217.579 46.3781 217.983 45.9845 219.157 45.5456C220.715 44.9636 220.615 45.4969 220.615 37.7653V31.0467H213.201C208.577 31.0467 205.684 31.1014 205.515 31.192C204.997 31.4689 204.944 32.1415 204.972 38.0048L205 43.7177L205.368 44.3769C205.601 44.7939 206.005 45.2075 206.468 45.5027C206.87 45.7594 207.397 46.1329 207.639 46.3327L208.079 46.6958L208.118 59.4801C208.162 73.8188 208.197 73.2866 207.143 74.3713C206.395 75.1411 205.368 75.7033 200.601 77.9524C197.345 79.4885 196.632 79.776 196.589 79.5729C196.559 79.4371 196.61 77.8732 196.7 76.0973C196.791 74.3215 196.931 69.5065 197.012 65.3976C197.093 61.2887 197.223 55.4878 197.301 52.5068C197.378 49.5259 197.487 42.7198 197.542 37.3822L197.643 27.6775H200.635H203.626L203.524 27.3479C203.257 26.4839 202.218 24.0177 201.609 22.804C200.619 20.8297 199.424 18.7979 197.159 15.2368C196.054 13.4988 194.892 11.6309 194.576 11.086L194.003 10.0952ZM75.8803 22.0401C73.7591 22.1252 71.702 22.7034 70.0009 23.7633C67.9088 25.0668 65.356 27.806 64.317 29.8622C63.7896 30.906 63.3265 32.439 63.1483 33.7301C63.0274 34.6062 63.0631 34.9753 63.4404 36.733C63.9494 39.1041 64.6092 40.594 65.8203 42.1064C67.8775 44.6755 71.249 46.5039 74.8613 47.0093C76.4081 47.2258 79.0134 47.0682 80.6196 46.6611C82.1344 46.2773 83.7555 45.5375 84.8661 44.7231C88.2403 42.2485 90.3657 37.3415 89.8394 33.2411C89.2934 28.9883 86.4251 25.2744 82.1434 23.2764C80.1865 22.3631 78.0014 21.955 75.8803 22.0401ZM102.8 43.9763C99.6893 43.8764 98.129 44.2917 96.1755 45.7402C94.1881 47.2138 88.2402 55.9287 83.8087 63.8595C81.8827 67.3065 80.7796 69.6207 79.2705 73.3811C78.6076 75.0327 77.8591 76.7732 77.6071 77.2489C77.1016 78.2033 76.2992 78.8857 75.5085 79.0339C74.9886 79.1314 69.0073 78.8544 68.8797 78.7269C68.7745 78.6219 69.2542 76.4752 69.6592 75.2393C69.8489 74.6604 70.9926 71.8137 72.2006 68.9132C75.2767 61.5274 75.63 60.3058 75.6529 56.9747C75.67 54.4816 75.3923 53.1757 74.4149 51.1518C72.5213 47.231 68.6896 44.9628 63.9599 44.9628C59.7399 44.9628 56.2612 46.7648 53.9034 50.1722C52.1405 52.7198 49.4049 59.4866 46.3566 68.84C45.7601 70.6706 43.61 76.195 42.9581 77.5722C42.8395 77.8229 42.564 78.1092 42.3462 78.2085C42.0399 78.348 39.0392 78.3806 29.1202 78.3516C18.8841 78.3216 16.1421 78.3531 15.5572 78.5069C12.7439 79.247 10.6284 81.2293 9.98849 83.7249C9.65191 85.0374 9.77791 89.0761 10.1841 89.9935C10.572 90.8695 11.5792 91.9332 12.4276 92.3627C13.911 93.1137 15.2232 93.1974 24.0965 93.1086C28.7037 93.0625 32.7814 93.0865 33.554 93.1641C35.7564 93.3853 38.0363 93.7629 38.2904 93.9486C38.6266 94.1941 38.9705 96.056 38.9829 97.6977C38.9959 99.4275 38.6356 100.489 37.7709 101.269C36.7683 102.174 36.2073 102.255 31.2277 102.207C27.0041 102.167 26.8167 102.177 25.984 102.491C23.4655 103.441 21.3565 105.638 20.4612 108.245C20.0127 109.55 19.9106 111.891 20.2407 113.298C20.8773 116.013 22.7654 118.345 25.3179 119.569C27.4023 120.568 28.3095 120.728 32.4926 120.832C36.6624 120.937 36.8603 120.99 37.3663 122.132C37.6616 122.799 37.6644 122.894 37.4868 126.187C37.2195 131.144 37.5892 136.652 38.5092 141.415C38.6787 142.292 39.1739 145.143 39.6095 147.749C40.4713 152.906 41.08 155.777 42.1961 159.954C47.7955 180.912 58.2439 201.726 71.425 218.182C76.725 224.799 81.4511 229.539 90.8503 237.665C97.9124 243.77 100.64 245.721 112.258 252.974C119.082 257.235 119.71 257.554 122.057 257.95C124.779 258.409 128.542 257.687 130.905 256.253C133.584 254.627 135.763 251.473 136.692 247.876C137.32 245.444 137.038 243.677 135.804 242.313C135.204 241.648 134.535 241.205 130.88 239.051C127.696 237.175 124.704 235.17 121.935 233.055C120.766 232.162 118.391 230.362 116.657 229.055C109.99 224.03 105.692 220.18 100.756 214.813C95.4507 209.044 92.0474 204.401 81.3381 188.321C75.3654 179.354 74.152 177.283 71.7117 171.893C71.1281 170.604 70.0919 168.329 69.4089 166.839C66.8548 161.265 64.6547 155.01 63.2265 149.261C61.477 142.218 60.7868 136.119 60.5488 125.6C60.4608 121.708 60.4746 121.303 60.7135 120.8C60.857 120.498 61.1478 120.129 61.3596 119.98C61.8647 119.625 63.3537 119.378 64.9886 119.378C66.4112 119.378 69.5081 119.732 70.3001 119.985C71.2495 120.289 71.253 120.318 71.3649 128.753C71.4215 133.021 71.5308 136.585 71.6166 136.961C71.7 137.326 72.1406 139.337 72.5958 141.429C75.8922 156.579 77.5113 160.941 85.4259 175.994C89.4687 183.683 91.7299 187.258 96.9153 194.159C101.493 200.251 107.825 207.426 111.917 211.158C116.604 215.434 123.14 220.578 126.727 222.815C129.915 224.802 138.58 229.435 142.397 231.193C153.639 236.37 168.897 239.74 184.612 240.516C190.632 240.813 198.053 240.626 202.214 240.071C204.068 239.823 212.76 237.967 217.61 236.782C229.676 233.835 241.477 228.737 251.114 222.311C255.032 219.698 261.113 215.137 263.651 212.908C264.457 212.199 267.134 209.603 269.599 207.137C273.533 203.204 274.147 202.527 274.618 201.614C276.036 198.862 275.916 196.258 274.218 192.95C272.863 190.311 271.455 188.929 269.249 188.073C267.774 187.501 266.93 187.347 265.267 187.347C261.758 187.347 259.574 188.572 254.559 193.353C249.15 198.508 246.287 200.629 236.744 206.55C229.984 210.745 226.271 212.487 219.809 214.498C211.507 217.082 207.835 217.913 201.261 218.695C189.448 220.101 187.118 220.189 178.24 219.563C174.151 219.274 170.767 218.639 163.357 216.77C157.454 215.281 154.592 214.311 150.014 212.25C148.805 211.706 146.361 210.631 144.584 209.862C134.253 205.39 130.346 203.146 124.795 198.496C121.482 195.721 113.51 187.368 111.051 184.095C109.564 182.114 101.882 170.18 100.133 167.132C94.1809 156.759 90.2045 144.646 89.0968 133.513C88.7165 129.692 88.2374 121.418 88.3688 120.943C88.6853 119.798 89.285 119.621 93.4163 119.453C96.0299 119.347 97.6087 119.505 98.0654 119.918C98.7909 120.574 98.8217 120.781 98.9334 125.75C99.088 132.623 99.5114 136.089 100.848 141.424C102.023 146.115 103.636 150.703 105.676 155.159C106.504 156.966 109.887 163.407 112.581 168.304C113.946 170.786 116.559 174.743 118.31 176.983C121.327 180.84 127.492 187.29 131.331 190.604C143.502 201.113 157.469 206.874 174.648 208.47C177.705 208.754 187.382 208.706 190.923 208.39C197.968 207.761 203.342 206.993 204.429 206.462C208.237 204.601 208.041 198.066 204.047 193.746C202.429 191.996 201.234 191.39 198.219 190.791C196.618 190.473 195.503 190.453 193.594 190.708C192.254 190.887 191.481 190.891 188.535 190.738C181.314 190.36 177.81 190.109 175.821 189.824C168.691 188.805 160.138 185.624 153.02 181.344C150.779 179.996 146.452 177.001 143.908 175.037C141.126 172.888 137.313 168.768 132.799 163.029C128.219 157.207 126.495 154.302 124.236 148.595C121.612 141.967 120.611 138.188 119.672 131.368C118.777 124.867 118.651 123.397 118.654 119.524C118.657 115.513 118.849 113.503 119.673 108.839C121.039 101.111 123.377 93.717 126.216 88.1435C128.116 84.4137 129.771 82.0265 135.128 75.2854C139.289 70.0504 139.486 69.7748 140.413 67.8878C142.707 63.2218 142.488 60.181 139.601 56.5753C138.474 55.1685 137.454 54.4495 135.725 53.8424C134.616 53.4531 134.236 53.3959 132.419 53.344C129.112 53.2494 127.847 53.6796 125.138 55.8194C121.938 58.3472 118.472 62.1969 115.597 66.4158C111.052 73.0858 108.312 79.5536 105.076 91.2523C104.418 93.629 103.648 96.3976 103.365 97.4047C102.702 99.7583 101.145 104.14 100.854 104.472C100.647 104.708 100.323 104.722 96.7294 104.642C94.5845 104.595 92.6196 104.492 92.3627 104.415C92.0626 104.324 91.8511 104.14 91.7713 103.901C91.6385 103.503 91.89 99.5109 92.1805 97.4047C92.275 96.7199 92.6681 94.9071 93.0543 93.3764C94.8698 86.1792 97.1533 79.9634 100.373 73.4543C102.114 69.9344 103.523 67.5363 107.001 62.1749C111.187 55.7215 111.52 55.1028 111.82 53.2287C112.28 50.3503 110.839 47.6961 107.585 45.4303C105.911 44.2642 105.219 44.0541 102.8 43.9763ZM323.308 51.2085C318.092 51.2299 317.555 51.294 317.264 51.9321C317.14 52.2041 317.096 57.8366 317.096 73.3879C317.096 84.9858 317.043 94.475 316.977 94.475C316.804 94.475 316.244 93.8289 315.265 92.4974C313.636 90.2847 310.931 87.9615 308.637 86.8057C306.558 85.7583 304.173 85.0489 301.114 84.5681C299.876 84.3735 298.072 84.3132 291.912 84.2611L284.251 84.1964L282.266 84.5806C279.795 85.0589 277.21 85.8031 275.014 86.6686C272.801 87.5411 271.688 88.1089 270.074 89.1875C264.966 92.6006 262.175 97.7521 260.861 106.194C260.57 108.06 260.374 115.99 260.361 126.409C260.344 140.136 260.988 147.035 262.797 152.483C264.216 156.758 266.418 159.92 269.658 162.335C270.97 163.313 274.047 164.865 275.821 165.444C279.399 166.612 284.046 167.381 289.017 167.628C289.582 167.656 291.858 167.661 294.076 167.638C298.378 167.594 299.896 167.437 302.653 166.747C306.92 165.679 310.812 163.793 313.302 161.588C314.001 160.968 314.802 159.955 316.65 157.348C317.238 156.519 317.794 155.865 317.884 155.895C318.001 155.934 318.061 157.427 318.088 161.028L318.126 166.107H323.843H329.56V109.263C329.56 59.8417 329.532 52.3654 329.346 52.0076C328.944 51.2292 328.622 51.1867 323.308 51.2085ZM375.595 81.8292C373.852 81.8245 372.081 81.8641 370.29 81.9488C363.757 82.2574 361.032 82.5756 356.428 83.5675C348.617 85.2509 345.945 86.6312 343.582 90.2032C341.573 93.2408 340.606 96.5872 340.73 100.076C340.794 101.889 340.978 102.434 341.685 102.913C342.064 103.169 342.463 103.194 346.719 103.235C351.333 103.279 351.343 103.278 351.851 102.942C352.462 102.537 353.052 101.392 353.833 99.0893C354.752 96.3839 355.718 95.0445 357.314 94.2642C358.199 93.8318 361.464 93.2465 366.07 92.6949C369.809 92.2471 377.01 92.2077 380.073 92.6182C382.699 92.9702 387.077 93.7103 388.125 93.9795C390.323 94.5446 392.162 95.9482 393.04 97.7309C393.851 99.3763 394.644 104.191 394.965 109.419C395.114 111.845 395.04 120.801 394.87 120.975C394.838 121.008 394.432 120.739 393.967 120.377C392.585 119.302 390.277 117.777 389.247 117.259C386.658 115.957 382.454 115 377.287 114.535C374.467 114.281 366.473 114.194 363.357 114.383C356.39 114.806 349.453 115.825 347.22 116.754C345.004 117.675 342.807 119.478 341.491 121.456C338.423 126.066 337.056 134.384 337.908 143.255C338.697 151.474 339.424 154.613 341.145 157.224C343.282 160.468 345.74 162.034 351.299 163.695C355.609 164.982 360.201 165.721 365.386 165.961C368.471 166.103 373.897 166.027 376.334 165.806C380.13 165.463 383.983 164.658 387.174 163.542C390.594 162.347 392.668 160.899 394.256 158.6C394.6 158.102 394.926 157.631 394.981 157.552C395.043 157.463 395.157 157.474 395.289 157.583C395.44 157.708 395.528 158.285 395.603 159.625C395.786 162.942 395.913 163.631 396.424 164.094L396.87 164.499L401.888 164.461L406.905 164.422L407.1 163.543C407.419 162.102 407.59 150.486 407.514 135.491C407.449 122.664 407.349 117.142 406.977 105.72C406.715 97.7047 406.266 94.3063 405.146 91.8832C403.605 88.5463 401.08 86.2677 397.383 84.8782C396.031 84.3696 392.35 83.4242 390.304 83.06C385.798 82.2575 380.823 81.8433 375.595 81.8292ZM412.699 81.8452C411.535 81.8741 410.819 81.9472 410.705 82.0606C410.664 82.1017 410.865 82.9527 411.152 83.9518C411.663 85.7309 412.928 89.403 423.986 121.209C426.984 129.829 431.313 142.354 433.606 149.041C435.899 155.728 437.837 161.344 437.913 161.521C438.364 162.578 440.131 163.784 441.536 163.994C441.884 164.046 442.169 164.139 442.169 164.2C442.169 164.309 439.333 171.587 438.585 173.398C437.867 175.135 436.63 177.653 435.822 179.02C434.481 181.291 432.855 182.632 430.794 183.169C428.984 183.641 425.857 184.013 423.731 184.01L421.641 184.007V189.412V194.818L426.37 194.814C433.704 194.809 435.474 194.586 437.99 193.348C440.336 192.194 442.543 190.084 444.649 186.981C448.325 181.565 449.938 177.434 462.242 141.911C464.093 136.567 466.77 128.907 468.191 124.888C469.612 120.869 471.57 115.266 472.543 112.437C478.326 95.612 481.764 85.4228 482.112 84.0745C482.331 83.2286 482.543 82.4211 482.584 82.2801C482.654 82.0392 482.329 82.0237 477.216 82.0237C472.742 82.0237 471.7 82.0615 471.361 82.2366C470.709 82.5733 469.602 85.0882 467.654 90.6538C463.582 102.286 456.839 121.944 450.944 139.373C447.958 148.2 446.946 150.872 446.59 150.872C446.534 150.872 444.219 144.264 441.448 136.187C436.21 120.924 428.099 97.4014 425.025 88.5604C424.048 85.7504 423.141 83.2681 423.008 83.0443C422.876 82.8204 422.528 82.5026 422.234 82.3379C421.75 82.0658 421.305 82.0253 417.382 81.895C415.476 81.8316 413.863 81.8163 412.699 81.8452ZM154.273 84.8902C152.679 84.6626 151.028 85.0344 149.374 86.0137C146.204 87.8915 141.889 94.7305 139.041 102.392C136.696 108.699 135.812 113.308 135.812 119.231C135.812 123.419 136.4 128.072 137.494 132.544C138.676 137.375 141.512 144.394 143.714 147.941C145.554 150.905 148.833 154.835 151.393 157.146C153.446 158.999 157.555 162.474 158.739 163.358C162.836 166.417 169.178 169.359 174.941 170.873C178.432 171.79 182.965 172.545 186.745 172.839C189.118 173.024 191.76 172.91 196.812 172.405C201.821 171.904 203.92 171.575 206.613 170.871C213.726 169.01 220.767 165.326 226.407 160.511C228.808 158.463 233.187 154.061 234.685 152.19C237.91 148.165 240.865 142.548 242.909 136.558C244.942 130.6 245.585 125.812 245.272 118.983C244.766 107.943 243.361 102.459 239.232 95.4077C236.617 90.9411 235.28 89.1896 233.607 88.0402C230.212 85.7066 226.125 85.9581 223.602 88.6556C222.085 90.2777 221.349 92.0835 221.349 94.182C221.349 96.2131 221.787 97.3853 223.768 100.646C226.955 105.894 228.747 110.599 229.51 115.715C229.851 118.006 229.85 122.236 229.506 124.505C227.229 139.55 215.701 152.347 200.945 156.212C197.121 157.213 195.683 157.382 190.923 157.386C187.533 157.39 186.345 157.338 185.058 157.13C179.429 156.22 174.596 154.496 170.52 151.944C168.119 150.441 164.431 147.674 162.743 146.111C158.182 141.885 154.327 134.856 152.81 128.001C151.558 122.344 151.765 115.9 153.377 110.323C154.469 106.544 155.625 104.075 158.35 99.7013C159.288 98.1951 160.281 96.5155 160.557 95.9688C162.07 92.9676 161.474 90.007 158.824 87.3633C157.403 85.9448 155.867 85.1178 154.273 84.8902ZM295.061 95.1056C296.756 95.1478 298.388 95.2584 299.352 95.4226C302.119 95.8938 305.259 96.8314 306.989 97.7034C308.308 98.368 310.362 99.8022 311.495 100.85C314.245 103.393 315.982 106.779 316.718 111.028C317.069 113.058 317.419 121.672 317.441 128.826C317.461 135.36 317.38 136.497 316.635 140.105C315.994 143.212 314.541 146.893 313.231 148.727C312.419 149.864 310.71 151.492 309.472 152.309C306.666 154.16 301.692 155.802 297.448 156.278C291.52 156.944 285.379 156.202 280.382 154.217C277.553 153.094 276.502 152 275.616 149.261C274.264 145.078 274.029 143.14 273.636 132.928C273.329 124.991 273.58 112.839 274.14 108.464C274.533 105.397 275.309 102.338 276.112 100.692C276.742 99.3978 278.004 98.1538 279.298 97.5503C281.198 96.664 286.403 95.5615 290.396 95.1997C291.609 95.0897 293.366 95.0634 295.061 95.1056ZM67.599 96.5344C70.9826 96.7057 71.2211 96.7704 71.5728 97.6113C71.864 98.3076 72.01 100.214 71.8019 100.603C71.5608 101.053 70.6419 101.479 69.036 101.886C67.7281 102.218 65.8458 102.335 64.9706 102.139C64.1188 101.949 62.8143 101.452 62.4828 101.191C61.5968 100.495 61.4083 99.2699 61.9616 97.8056C62.4843 96.422 63.0151 96.3023 67.599 96.5344ZM371.415 124.3C372.765 124.314 374.141 124.472 375.967 124.78C377.499 125.038 379.875 125.412 381.246 125.611C388.285 126.631 390.465 127.343 392.238 129.2C394.011 131.057 394.724 133.892 394.905 139.812C395.025 143.727 394.533 146.382 393.345 148.231C392.677 149.271 391.224 150.57 390.023 151.2C386.968 152.804 381.402 153.936 375.09 154.237C373.448 154.316 371.489 154.409 370.737 154.445C368.131 154.568 363.928 154.15 360.48 153.425C357.163 152.727 355.84 152.083 354.042 150.289C351.515 147.767 350.779 145.297 350.766 139.3C350.753 133.624 351.647 130.234 353.646 128.367C355.412 126.719 357.082 126.127 361.849 125.46C363.324 125.253 365.652 124.907 367.023 124.69C368.742 124.418 370.065 124.286 371.415 124.3Z"/>
</mask>
<path d="M194.003 10.0952L193.145 10.1338L192.287 10.1725L187.381 18.7945C184.683 23.5366 182.503 27.4438 182.536 27.4772C182.57 27.5107 183.637 27.6285 184.909 27.739C186.767 27.9006 187.296 27.9965 187.606 28.2277L187.991 28.5155L187.983 35.6038C187.979 39.5024 187.863 46.8452 187.726 51.9209C187.589 56.9966 187.41 65.9945 187.328 71.9162C187.247 77.8379 187.116 84.1001 187.037 85.8323C186.959 87.5645 186.852 89.9706 186.798 91.1791C186.745 92.3876 186.662 93.4856 186.613 93.6193C186.538 93.8266 186.159 93.6966 184.032 92.7321C182.661 92.1103 180.785 91.2757 179.863 90.8775C177.88 90.0212 176.857 89.1896 176.317 87.9959L175.967 87.224L175.971 78.8743C175.973 74.2819 175.998 70.195 176.026 69.7922C176.054 69.3893 176.028 68.4576 175.967 67.7216C175.871 66.5737 175.899 66.2404 176.162 65.3778C176.556 64.0848 177.091 63.2568 178.496 61.7643C180.323 59.8246 181.021 58.2269 181.024 55.9782C181.029 52.7483 179.511 49.6903 177.113 48.1003C174.413 46.3098 170.271 46.0872 167.243 47.5698C165.137 48.6008 163.366 50.8161 162.753 53.1843C162.434 54.4144 162.432 56.6228 162.749 57.8536C163.093 59.1913 163.863 60.6824 164.829 61.8819C165.944 63.2665 166.348 63.9825 166.536 64.9095C166.638 65.4105 166.73 70.285 166.794 78.5081C166.902 92.5289 166.861 91.9251 167.791 93.011C168.285 93.5877 169.489 94.3322 180.879 101.108C183.258 102.523 185.383 103.868 185.6 104.095C186.235 104.76 186.471 105.532 186.597 107.359C186.797 110.246 186.4 111.646 185.001 112.979C184.541 113.416 183.871 113.922 183.512 114.104C181.05 115.344 179.103 117.493 178.043 120.14C177.365 121.833 177.169 123.048 177.16 125.603C177.152 128.233 177.402 129.599 178.228 131.437C180.088 135.572 184.286 138.634 189.013 139.303C190.394 139.499 192.73 139.334 194.332 138.928C198.865 137.78 202.742 134.196 204.228 129.778C204.682 128.428 204.696 128.312 204.693 125.896C204.691 123.609 204.658 123.298 204.291 122.088C203.216 118.543 201.257 115.807 198.679 114.251C197.384 113.469 196.369 112.398 196.136 111.568C195.979 111.006 195.961 109.272 196.043 102.564C196.141 94.5323 196.27 91.6404 196.58 90.4813C196.795 89.6766 197.47 88.9967 198.743 88.3026C199.362 87.9653 201.154 86.9827 202.727 86.1187C204.299 85.2547 207.193 83.7145 209.158 82.6961C213.12 80.6418 213.785 80.2283 214.761 79.2139C216.285 77.6291 216.74 75.8905 216.94 70.8908C217.016 68.9975 217.151 63.0318 217.241 57.6338C217.331 52.2358 217.439 47.5312 217.482 47.179C217.579 46.3781 217.983 45.9845 219.157 45.5456C220.715 44.9636 220.615 45.4969 220.615 37.7653V31.0467H213.201C208.577 31.0467 205.684 31.1014 205.515 31.192C204.997 31.4689 204.944 32.1415 204.972 38.0048L205 43.7177L205.368 44.3769C205.601 44.7939 206.005 45.2075 206.468 45.5027C206.87 45.7594 207.397 46.1329 207.639 46.3327L208.079 46.6958L208.118 59.4801C208.162 73.8188 208.197 73.2866 207.143 74.3713C206.395 75.1411 205.368 75.7033 200.601 77.9524C197.345 79.4885 196.632 79.776 196.589 79.5729C196.559 79.4371 196.61 77.8732 196.7 76.0973C196.791 74.3215 196.931 69.5065 197.012 65.3976C197.093 61.2887 197.223 55.4878 197.301 52.5068C197.378 49.5259 197.487 42.7198 197.542 37.3822L197.643 27.6775H200.635H203.626L203.524 27.3479C203.257 26.4839 202.218 24.0177 201.609 22.804C200.619 20.8297 199.424 18.7979 197.159 15.2368C196.054 13.4988 194.892 11.6309 194.576 11.086L194.003 10.0952ZM75.8803 22.0401C73.7591 22.1252 71.702 22.7034 70.0009 23.7633C67.9088 25.0668 65.356 27.806 64.317 29.8622C63.7896 30.906 63.3265 32.439 63.1483 33.7301C63.0274 34.6062 63.0631 34.9753 63.4404 36.733C63.9494 39.1041 64.6092 40.594 65.8203 42.1064C67.8775 44.6755 71.249 46.5039 74.8613 47.0093C76.4081 47.2258 79.0134 47.0682 80.6196 46.6611C82.1344 46.2773 83.7555 45.5375 84.8661 44.7231C88.2403 42.2485 90.3657 37.3415 89.8394 33.2411C89.2934 28.9883 86.4251 25.2744 82.1434 23.2764C80.1865 22.3631 78.0014 21.955 75.8803 22.0401ZM102.8 43.9763C99.6893 43.8764 98.129 44.2917 96.1755 45.7402C94.1881 47.2138 88.2402 55.9287 83.8087 63.8595C81.8827 67.3065 80.7796 69.6207 79.2705 73.3811C78.6076 75.0327 77.8591 76.7732 77.6071 77.2489C77.1016 78.2033 76.2992 78.8857 75.5085 79.0339C74.9886 79.1314 69.0073 78.8544 68.8797 78.7269C68.7745 78.6219 69.2542 76.4752 69.6592 75.2393C69.8489 74.6604 70.9926 71.8137 72.2006 68.9132C75.2767 61.5274 75.63 60.3058 75.6529 56.9747C75.67 54.4816 75.3923 53.1757 74.4149 51.1518C72.5213 47.231 68.6896 44.9628 63.9599 44.9628C59.7399 44.9628 56.2612 46.7648 53.9034 50.1722C52.1405 52.7198 49.4049 59.4866 46.3566 68.84C45.7601 70.6706 43.61 76.195 42.9581 77.5722C42.8395 77.8229 42.564 78.1092 42.3462 78.2085C42.0399 78.348 39.0392 78.3806 29.1202 78.3516C18.8841 78.3216 16.1421 78.3531 15.5572 78.5069C12.7439 79.247 10.6284 81.2293 9.98849 83.7249C9.65191 85.0374 9.77791 89.0761 10.1841 89.9935C10.572 90.8695 11.5792 91.9332 12.4276 92.3627C13.911 93.1137 15.2232 93.1974 24.0965 93.1086C28.7037 93.0625 32.7814 93.0865 33.554 93.1641C35.7564 93.3853 38.0363 93.7629 38.2904 93.9486C38.6266 94.1941 38.9705 96.056 38.9829 97.6977C38.9959 99.4275 38.6356 100.489 37.7709 101.269C36.7683 102.174 36.2073 102.255 31.2277 102.207C27.0041 102.167 26.8167 102.177 25.984 102.491C23.4655 103.441 21.3565 105.638 20.4612 108.245C20.0127 109.55 19.9106 111.891 20.2407 113.298C20.8773 116.013 22.7654 118.345 25.3179 119.569C27.4023 120.568 28.3095 120.728 32.4926 120.832C36.6624 120.937 36.8603 120.99 37.3663 122.132C37.6616 122.799 37.6644 122.894 37.4868 126.187C37.2195 131.144 37.5892 136.652 38.5092 141.415C38.6787 142.292 39.1739 145.143 39.6095 147.749C40.4713 152.906 41.08 155.777 42.1961 159.954C47.7955 180.912 58.2439 201.726 71.425 218.182C76.725 224.799 81.4511 229.539 90.8503 237.665C97.9124 243.77 100.64 245.721 112.258 252.974C119.082 257.235 119.71 257.554 122.057 257.95C124.779 258.409 128.542 257.687 130.905 256.253C133.584 254.627 135.763 251.473 136.692 247.876C137.32 245.444 137.038 243.677 135.804 242.313C135.204 241.648 134.535 241.205 130.88 239.051C127.696 237.175 124.704 235.17 121.935 233.055C120.766 232.162 118.391 230.362 116.657 229.055C109.99 224.03 105.692 220.18 100.756 214.813C95.4507 209.044 92.0474 204.401 81.3381 188.321C75.3654 179.354 74.152 177.283 71.7117 171.893C71.1281 170.604 70.0919 168.329 69.4089 166.839C66.8548 161.265 64.6547 155.01 63.2265 149.261C61.477 142.218 60.7868 136.119 60.5488 125.6C60.4608 121.708 60.4746 121.303 60.7135 120.8C60.857 120.498 61.1478 120.129 61.3596 119.98C61.8647 119.625 63.3537 119.378 64.9886 119.378C66.4112 119.378 69.5081 119.732 70.3001 119.985C71.2495 120.289 71.253 120.318 71.3649 128.753C71.4215 133.021 71.5308 136.585 71.6166 136.961C71.7 137.326 72.1406 139.337 72.5958 141.429C75.8922 156.579 77.5113 160.941 85.4259 175.994C89.4687 183.683 91.7299 187.258 96.9153 194.159C101.493 200.251 107.825 207.426 111.917 211.158C116.604 215.434 123.14 220.578 126.727 222.815C129.915 224.802 138.58 229.435 142.397 231.193C153.639 236.37 168.897 239.74 184.612 240.516C190.632 240.813 198.053 240.626 202.214 240.071C204.068 239.823 212.76 237.967 217.61 236.782C229.676 233.835 241.477 228.737 251.114 222.311C255.032 219.698 261.113 215.137 263.651 212.908C264.457 212.199 267.134 209.603 269.599 207.137C273.533 203.204 274.147 202.527 274.618 201.614C276.036 198.862 275.916 196.258 274.218 192.95C272.863 190.311 271.455 188.929 269.249 188.073C267.774 187.501 266.93 187.347 265.267 187.347C261.758 187.347 259.574 188.572 254.559 193.353C249.15 198.508 246.287 200.629 236.744 206.55C229.984 210.745 226.271 212.487 219.809 214.498C211.507 217.082 207.835 217.913 201.261 218.695C189.448 220.101 187.118 220.189 178.24 219.563C174.151 219.274 170.767 218.639 163.357 216.77C157.454 215.281 154.592 214.311 150.014 212.25C148.805 211.706 146.361 210.631 144.584 209.862C134.253 205.39 130.346 203.146 124.795 198.496C121.482 195.721 113.51 187.368 111.051 184.095C109.564 182.114 101.882 170.18 100.133 167.132C94.1809 156.759 90.2045 144.646 89.0968 133.513C88.7165 129.692 88.2374 121.418 88.3688 120.943C88.6853 119.798 89.285 119.621 93.4163 119.453C96.0299 119.347 97.6087 119.505 98.0654 119.918C98.7909 120.574 98.8217 120.781 98.9334 125.75C99.088 132.623 99.5114 136.089 100.848 141.424C102.023 146.115 103.636 150.703 105.676 155.159C106.504 156.966 109.887 163.407 112.581 168.304C113.946 170.786 116.559 174.743 118.31 176.983C121.327 180.84 127.492 187.29 131.331 190.604C143.502 201.113 157.469 206.874 174.648 208.47C177.705 208.754 187.382 208.706 190.923 208.39C197.968 207.761 203.342 206.993 204.429 206.462C208.237 204.601 208.041 198.066 204.047 193.746C202.429 191.996 201.234 191.39 198.219 190.791C196.618 190.473 195.503 190.453 193.594 190.708C192.254 190.887 191.481 190.891 188.535 190.738C181.314 190.36 177.81 190.109 175.821 189.824C168.691 188.805 160.138 185.624 153.02 181.344C150.779 179.996 146.452 177.001 143.908 175.037C141.126 172.888 137.313 168.768 132.799 163.029C128.219 157.207 126.495 154.302 124.236 148.595C121.612 141.967 120.611 138.188 119.672 131.368C118.777 124.867 118.651 123.397 118.654 119.524C118.657 115.513 118.849 113.503 119.673 108.839C121.039 101.111 123.377 93.717 126.216 88.1435C128.116 84.4137 129.771 82.0265 135.128 75.2854C139.289 70.0504 139.486 69.7748 140.413 67.8878C142.707 63.2218 142.488 60.181 139.601 56.5753C138.474 55.1685 137.454 54.4495 135.725 53.8424C134.616 53.4531 134.236 53.3959 132.419 53.344C129.112 53.2494 127.847 53.6796 125.138 55.8194C121.938 58.3472 118.472 62.1969 115.597 66.4158C111.052 73.0858 108.312 79.5536 105.076 91.2523C104.418 93.629 103.648 96.3976 103.365 97.4047C102.702 99.7583 101.145 104.14 100.854 104.472C100.647 104.708 100.323 104.722 96.7294 104.642C94.5845 104.595 92.6196 104.492 92.3627 104.415C92.0626 104.324 91.8511 104.14 91.7713 103.901C91.6385 103.503 91.89 99.5109 92.1805 97.4047C92.275 96.7199 92.6681 94.9071 93.0543 93.3764C94.8698 86.1792 97.1533 79.9634 100.373 73.4543C102.114 69.9344 103.523 67.5363 107.001 62.1749C111.187 55.7215 111.52 55.1028 111.82 53.2287C112.28 50.3503 110.839 47.6961 107.585 45.4303C105.911 44.2642 105.219 44.0541 102.8 43.9763ZM323.308 51.2085C318.092 51.2299 317.555 51.294 317.264 51.9321C317.14 52.2041 317.096 57.8366 317.096 73.3879C317.096 84.9858 317.043 94.475 316.977 94.475C316.804 94.475 316.244 93.8289 315.265 92.4974C313.636 90.2847 310.931 87.9615 308.637 86.8057C306.558 85.7583 304.173 85.0489 301.114 84.5681C299.876 84.3735 298.072 84.3132 291.912 84.2611L284.251 84.1964L282.266 84.5806C279.795 85.0589 277.21 85.8031 275.014 86.6686C272.801 87.5411 271.688 88.1089 270.074 89.1875C264.966 92.6006 262.175 97.7521 260.861 106.194C260.57 108.06 260.374 115.99 260.361 126.409C260.344 140.136 260.988 147.035 262.797 152.483C264.216 156.758 266.418 159.92 269.658 162.335C270.97 163.313 274.047 164.865 275.821 165.444C279.399 166.612 284.046 167.381 289.017 167.628C289.582 167.656 291.858 167.661 294.076 167.638C298.378 167.594 299.896 167.437 302.653 166.747C306.92 165.679 310.812 163.793 313.302 161.588C314.001 160.968 314.802 159.955 316.65 157.348C317.238 156.519 317.794 155.865 317.884 155.895C318.001 155.934 318.061 157.427 318.088 161.028L318.126 166.107H323.843H329.56V109.263C329.56 59.8417 329.532 52.3654 329.346 52.0076C328.944 51.2292 328.622 51.1867 323.308 51.2085ZM375.595 81.8292C373.852 81.8245 372.081 81.8641 370.29 81.9488C363.757 82.2574 361.032 82.5756 356.428 83.5675C348.617 85.2509 345.945 86.6312 343.582 90.2032C341.573 93.2408 340.606 96.5872 340.73 100.076C340.794 101.889 340.978 102.434 341.685 102.913C342.064 103.169 342.463 103.194 346.719 103.235C351.333 103.279 351.343 103.278 351.851 102.942C352.462 102.537 353.052 101.392 353.833 99.0893C354.752 96.3839 355.718 95.0445 357.314 94.2642C358.199 93.8318 361.464 93.2465 366.07 92.6949C369.809 92.2471 377.01 92.2077 380.073 92.6182C382.699 92.9702 387.077 93.7103 388.125 93.9795C390.323 94.5446 392.162 95.9482 393.04 97.7309C393.851 99.3763 394.644 104.191 394.965 109.419C395.114 111.845 395.04 120.801 394.87 120.975C394.838 121.008 394.432 120.739 393.967 120.377C392.585 119.302 390.277 117.777 389.247 117.259C386.658 115.957 382.454 115 377.287 114.535C374.467 114.281 366.473 114.194 363.357 114.383C356.39 114.806 349.453 115.825 347.22 116.754C345.004 117.675 342.807 119.478 341.491 121.456C338.423 126.066 337.056 134.384 337.908 143.255C338.697 151.474 339.424 154.613 341.145 157.224C343.282 160.468 345.74 162.034 351.299 163.695C355.609 164.982 360.201 165.721 365.386 165.961C368.471 166.103 373.897 166.027 376.334 165.806C380.13 165.463 383.983 164.658 387.174 163.542C390.594 162.347 392.668 160.899 394.256 158.6C394.6 158.102 394.926 157.631 394.981 157.552C395.043 157.463 395.157 157.474 395.289 157.583C395.44 157.708 395.528 158.285 395.603 159.625C395.786 162.942 395.913 163.631 396.424 164.094L396.87 164.499L401.888 164.461L406.905 164.422L407.1 163.543C407.419 162.102 407.59 150.486 407.514 135.491C407.449 122.664 407.349 117.142 406.977 105.72C406.715 97.7047 406.266 94.3063 405.146 91.8832C403.605 88.5463 401.08 86.2677 397.383 84.8782C396.031 84.3696 392.35 83.4242 390.304 83.06C385.798 82.2575 380.823 81.8433 375.595 81.8292ZM412.699 81.8452C411.535 81.8741 410.819 81.9472 410.705 82.0606C410.664 82.1017 410.865 82.9527 411.152 83.9518C411.663 85.7309 412.928 89.403 423.986 121.209C426.984 129.829 431.313 142.354 433.606 149.041C435.899 155.728 437.837 161.344 437.913 161.521C438.364 162.578 440.131 163.784 441.536 163.994C441.884 164.046 442.169 164.139 442.169 164.2C442.169 164.309 439.333 171.587 438.585 173.398C437.867 175.135 436.63 177.653 435.822 179.02C434.481 181.291 432.855 182.632 430.794 183.169C428.984 183.641 425.857 184.013 423.731 184.01L421.641 184.007V189.412V194.818L426.37 194.814C433.704 194.809 435.474 194.586 437.99 193.348C440.336 192.194 442.543 190.084 444.649 186.981C448.325 181.565 449.938 177.434 462.242 141.911C464.093 136.567 466.77 128.907 468.191 124.888C469.612 120.869 471.57 115.266 472.543 112.437C478.326 95.612 481.764 85.4228 482.112 84.0745C482.331 83.2286 482.543 82.4211 482.584 82.2801C482.654 82.0392 482.329 82.0237 477.216 82.0237C472.742 82.0237 471.7 82.0615 471.361 82.2366C470.709 82.5733 469.602 85.0882 467.654 90.6538C463.582 102.286 456.839 121.944 450.944 139.373C447.958 148.2 446.946 150.872 446.59 150.872C446.534 150.872 444.219 144.264 441.448 136.187C436.21 120.924 428.099 97.4014 425.025 88.5604C424.048 85.7504 423.141 83.2681 423.008 83.0443C422.876 82.8204 422.528 82.5026 422.234 82.3379C421.75 82.0658 421.305 82.0253 417.382 81.895C415.476 81.8316 413.863 81.8163 412.699 81.8452ZM154.273 84.8902C152.679 84.6626 151.028 85.0344 149.374 86.0137C146.204 87.8915 141.889 94.7305 139.041 102.392C136.696 108.699 135.812 113.308 135.812 119.231C135.812 123.419 136.4 128.072 137.494 132.544C138.676 137.375 141.512 144.394 143.714 147.941C145.554 150.905 148.833 154.835 151.393 157.146C153.446 158.999 157.555 162.474 158.739 163.358C162.836 166.417 169.178 169.359 174.941 170.873C178.432 171.79 182.965 172.545 186.745 172.839C189.118 173.024 191.76 172.91 196.812 172.405C201.821 171.904 203.92 171.575 206.613 170.871C213.726 169.01 220.767 165.326 226.407 160.511C228.808 158.463 233.187 154.061 234.685 152.19C237.91 148.165 240.865 142.548 242.909 136.558C244.942 130.6 245.585 125.812 245.272 118.983C244.766 107.943 243.361 102.459 239.232 95.4077C236.617 90.9411 235.28 89.1896 233.607 88.0402C230.212 85.7066 226.125 85.9581 223.602 88.6556C222.085 90.2777 221.349 92.0835 221.349 94.182C221.349 96.2131 221.787 97.3853 223.768 100.646C226.955 105.894 228.747 110.599 229.51 115.715C229.851 118.006 229.85 122.236 229.506 124.505C227.229 139.55 215.701 152.347 200.945 156.212C197.121 157.213 195.683 157.382 190.923 157.386C187.533 157.39 186.345 157.338 185.058 157.13C179.429 156.22 174.596 154.496 170.52 151.944C168.119 150.441 164.431 147.674 162.743 146.111C158.182 141.885 154.327 134.856 152.81 128.001C151.558 122.344 151.765 115.9 153.377 110.323C154.469 106.544 155.625 104.075 158.35 99.7013C159.288 98.1951 160.281 96.5155 160.557 95.9688C162.07 92.9676 161.474 90.007 158.824 87.3633C157.403 85.9448 155.867 85.1178 154.273 84.8902ZM295.061 95.1056C296.756 95.1478 298.388 95.2584 299.352 95.4226C302.119 95.8938 305.259 96.8314 306.989 97.7034C308.308 98.368 310.362 99.8022 311.495 100.85C314.245 103.393 315.982 106.779 316.718 111.028C317.069 113.058 317.419 121.672 317.441 128.826C317.461 135.36 317.38 136.497 316.635 140.105C315.994 143.212 314.541 146.893 313.231 148.727C312.419 149.864 310.71 151.492 309.472 152.309C306.666 154.16 301.692 155.802 297.448 156.278C291.52 156.944 285.379 156.202 280.382 154.217C277.553 153.094 276.502 152 275.616 149.261C274.264 145.078 274.029 143.14 273.636 132.928C273.329 124.991 273.58 112.839 274.14 108.464C274.533 105.397 275.309 102.338 276.112 100.692C276.742 99.3978 278.004 98.1538 279.298 97.5503C281.198 96.664 286.403 95.5615 290.396 95.1997C291.609 95.0897 293.366 95.0634 295.061 95.1056ZM67.599 96.5344C70.9826 96.7057 71.2211 96.7704 71.5728 97.6113C71.864 98.3076 72.01 100.214 71.8019 100.603C71.5608 101.053 70.6419 101.479 69.036 101.886C67.7281 102.218 65.8458 102.335 64.9706 102.139C64.1188 101.949 62.8143 101.452 62.4828 101.191C61.5968 100.495 61.4083 99.2699 61.9616 97.8056C62.4843 96.422 63.0151 96.3023 67.599 96.5344ZM371.415 124.3C372.765 124.314 374.141 124.472 375.967 124.78C377.499 125.038 379.875 125.412 381.246 125.611C388.285 126.631 390.465 127.343 392.238 129.2C394.011 131.057 394.724 133.892 394.905 139.812C395.025 143.727 394.533 146.382 393.345 148.231C392.677 149.271 391.224 150.57 390.023 151.2C386.968 152.804 381.402 153.936 375.09 154.237C373.448 154.316 371.489 154.409 370.737 154.445C368.131 154.568 363.928 154.15 360.48 153.425C357.163 152.727 355.84 152.083 354.042 150.289C351.515 147.767 350.779 145.297 350.766 139.3C350.753 133.624 351.647 130.234 353.646 128.367C355.412 126.719 357.082 126.127 361.849 125.46C363.324 125.253 365.652 124.907 367.023 124.69C368.742 124.418 370.065 124.286 371.415 124.3Z" fill="url(#paint0_linear_940_5111)"/>
<path d="M194.003 10.0952L193.145 10.1338L192.287 10.1725L187.381 18.7945C184.683 23.5366 182.503 27.4438 182.536 27.4772C182.57 27.5107 183.637 27.6285 184.909 27.739C186.767 27.9006 187.296 27.9965 187.606 28.2277L187.991 28.5155L187.983 35.6038C187.979 39.5024 187.863 46.8452 187.726 51.9209C187.589 56.9966 187.41 65.9945 187.328 71.9162C187.247 77.8379 187.116 84.1001 187.037 85.8323C186.959 87.5645 186.852 89.9706 186.798 91.1791C186.745 92.3876 186.662 93.4856 186.613 93.6193C186.538 93.8266 186.159 93.6966 184.032 92.7321C182.661 92.1103 180.785 91.2757 179.863 90.8775C177.88 90.0212 176.857 89.1896 176.317 87.9959L175.967 87.224L175.971 78.8743C175.973 74.2819 175.998 70.195 176.026 69.7922C176.054 69.3893 176.028 68.4576 175.967 67.7216C175.871 66.5737 175.899 66.2404 176.162 65.3778C176.556 64.0848 177.091 63.2568 178.496 61.7643C180.323 59.8246 181.021 58.2269 181.024 55.9782C181.029 52.7483 179.511 49.6903 177.113 48.1003C174.413 46.3098 170.271 46.0872 167.243 47.5698C165.137 48.6008 163.366 50.8161 162.753 53.1843C162.434 54.4144 162.432 56.6228 162.749 57.8536C163.093 59.1913 163.863 60.6824 164.829 61.8819C165.944 63.2665 166.348 63.9825 166.536 64.9095C166.638 65.4105 166.73 70.285 166.794 78.5081C166.902 92.5289 166.861 91.9251 167.791 93.011C168.285 93.5877 169.489 94.3322 180.879 101.108C183.258 102.523 185.383 103.868 185.6 104.095C186.235 104.76 186.471 105.532 186.597 107.359C186.797 110.246 186.4 111.646 185.001 112.979C184.541 113.416 183.871 113.922 183.512 114.104C181.05 115.344 179.103 117.493 178.043 120.14C177.365 121.833 177.169 123.048 177.16 125.603C177.152 128.233 177.402 129.599 178.228 131.437C180.088 135.572 184.286 138.634 189.013 139.303C190.394 139.499 192.73 139.334 194.332 138.928C198.865 137.78 202.742 134.196 204.228 129.778C204.682 128.428 204.696 128.312 204.693 125.896C204.691 123.609 204.658 123.298 204.291 122.088C203.216 118.543 201.257 115.807 198.679 114.251C197.384 113.469 196.369 112.398 196.136 111.568C195.979 111.006 195.961 109.272 196.043 102.564C196.141 94.5323 196.27 91.6404 196.58 90.4813C196.795 89.6766 197.47 88.9967 198.743 88.3026C199.362 87.9653 201.154 86.9827 202.727 86.1187C204.299 85.2547 207.193 83.7145 209.158 82.6961C213.12 80.6418 213.785 80.2283 214.761 79.2139C216.285 77.6291 216.74 75.8905 216.94 70.8908C217.016 68.9975 217.151 63.0318 217.241 57.6338C217.331 52.2358 217.439 47.5312 217.482 47.179C217.579 46.3781 217.983 45.9845 219.157 45.5456C220.715 44.9636 220.615 45.4969 220.615 37.7653V31.0467H213.201C208.577 31.0467 205.684 31.1014 205.515 31.192C204.997 31.4689 204.944 32.1415 204.972 38.0048L205 43.7177L205.368 44.3769C205.601 44.7939 206.005 45.2075 206.468 45.5027C206.87 45.7594 207.397 46.1329 207.639 46.3327L208.079 46.6958L208.118 59.4801C208.162 73.8188 208.197 73.2866 207.143 74.3713C206.395 75.1411 205.368 75.7033 200.601 77.9524C197.345 79.4885 196.632 79.776 196.589 79.5729C196.559 79.4371 196.61 77.8732 196.7 76.0973C196.791 74.3215 196.931 69.5065 197.012 65.3976C197.093 61.2887 197.223 55.4878 197.301 52.5068C197.378 49.5259 197.487 42.7198 197.542 37.3822L197.643 27.6775H200.635H203.626L203.524 27.3479C203.257 26.4839 202.218 24.0177 201.609 22.804C200.619 20.8297 199.424 18.7979 197.159 15.2368C196.054 13.4988 194.892 11.6309 194.576 11.086L194.003 10.0952ZM75.8803 22.0401C73.7591 22.1252 71.702 22.7034 70.0009 23.7633C67.9088 25.0668 65.356 27.806 64.317 29.8622C63.7896 30.906 63.3265 32.439 63.1483 33.7301C63.0274 34.6062 63.0631 34.9753 63.4404 36.733C63.9494 39.1041 64.6092 40.594 65.8203 42.1064C67.8775 44.6755 71.249 46.5039 74.8613 47.0093C76.4081 47.2258 79.0134 47.0682 80.6196 46.6611C82.1344 46.2773 83.7555 45.5375 84.8661 44.7231C88.2403 42.2485 90.3657 37.3415 89.8394 33.2411C89.2934 28.9883 86.4251 25.2744 82.1434 23.2764C80.1865 22.3631 78.0014 21.955 75.8803 22.0401ZM102.8 43.9763C99.6893 43.8764 98.129 44.2917 96.1755 45.7402C94.1881 47.2138 88.2402 55.9287 83.8087 63.8595C81.8827 67.3065 80.7796 69.6207 79.2705 73.3811C78.6076 75.0327 77.8591 76.7732 77.6071 77.2489C77.1016 78.2033 76.2992 78.8857 75.5085 79.0339C74.9886 79.1314 69.0073 78.8544 68.8797 78.7269C68.7745 78.6219 69.2542 76.4752 69.6592 75.2393C69.8489 74.6604 70.9926 71.8137 72.2006 68.9132C75.2767 61.5274 75.63 60.3058 75.6529 56.9747C75.67 54.4816 75.3923 53.1757 74.4149 51.1518C72.5213 47.231 68.6896 44.9628 63.9599 44.9628C59.7399 44.9628 56.2612 46.7648 53.9034 50.1722C52.1405 52.7198 49.4049 59.4866 46.3566 68.84C45.7601 70.6706 43.61 76.195 42.9581 77.5722C42.8395 77.8229 42.564 78.1092 42.3462 78.2085C42.0399 78.348 39.0392 78.3806 29.1202 78.3516C18.8841 78.3216 16.1421 78.3531 15.5572 78.5069C12.7439 79.247 10.6284 81.2293 9.98849 83.7249C9.65191 85.0374 9.77791 89.0761 10.1841 89.9935C10.572 90.8695 11.5792 91.9332 12.4276 92.3627C13.911 93.1137 15.2232 93.1974 24.0965 93.1086C28.7037 93.0625 32.7814 93.0865 33.554 93.1641C35.7564 93.3853 38.0363 93.7629 38.2904 93.9486C38.6266 94.1941 38.9705 96.056 38.9829 97.6977C38.9959 99.4275 38.6356 100.489 37.7709 101.269C36.7683 102.174 36.2073 102.255 31.2277 102.207C27.0041 102.167 26.8167 102.177 25.984 102.491C23.4655 103.441 21.3565 105.638 20.4612 108.245C20.0127 109.55 19.9106 111.891 20.2407 113.298C20.8773 116.013 22.7654 118.345 25.3179 119.569C27.4023 120.568 28.3095 120.728 32.4926 120.832C36.6624 120.937 36.8603 120.99 37.3663 122.132C37.6616 122.799 37.6644 122.894 37.4868 126.187C37.2195 131.144 37.5892 136.652 38.5092 141.415C38.6787 142.292 39.1739 145.143 39.6095 147.749C40.4713 152.906 41.08 155.777 42.1961 159.954C47.7955 180.912 58.2439 201.726 71.425 218.182C76.725 224.799 81.4511 229.539 90.8503 237.665C97.9124 243.77 100.64 245.721 112.258 252.974C119.082 257.235 119.71 257.554 122.057 257.95C124.779 258.409 128.542 257.687 130.905 256.253C133.584 254.627 135.763 251.473 136.692 247.876C137.32 245.444 137.038 243.677 135.804 242.313C135.204 241.648 134.535 241.205 130.88 239.051C127.696 237.175 124.704 235.17 121.935 233.055C120.766 232.162 118.391 230.362 116.657 229.055C109.99 224.03 105.692 220.18 100.756 214.813C95.4507 209.044 92.0474 204.401 81.3381 188.321C75.3654 179.354 74.152 177.283 71.7117 171.893C71.1281 170.604 70.0919 168.329 69.4089 166.839C66.8548 161.265 64.6547 155.01 63.2265 149.261C61.477 142.218 60.7868 136.119 60.5488 125.6C60.4608 121.708 60.4746 121.303 60.7135 120.8C60.857 120.498 61.1478 120.129 61.3596 119.98C61.8647 119.625 63.3537 119.378 64.9886 119.378C66.4112 119.378 69.5081 119.732 70.3001 119.985C71.2495 120.289 71.253 120.318 71.3649 128.753C71.4215 133.021 71.5308 136.585 71.6166 136.961C71.7 137.326 72.1406 139.337 72.5958 141.429C75.8922 156.579 77.5113 160.941 85.4259 175.994C89.4687 183.683 91.7299 187.258 96.9153 194.159C101.493 200.251 107.825 207.426 111.917 211.158C116.604 215.434 123.14 220.578 126.727 222.815C129.915 224.802 138.58 229.435 142.397 231.193C153.639 236.37 168.897 239.74 184.612 240.516C190.632 240.813 198.053 240.626 202.214 240.071C204.068 239.823 212.76 237.967 217.61 236.782C229.676 233.835 241.477 228.737 251.114 222.311C255.032 219.698 261.113 215.137 263.651 212.908C264.457 212.199 267.134 209.603 269.599 207.137C273.533 203.204 274.147 202.527 274.618 201.614C276.036 198.862 275.916 196.258 274.218 192.95C272.863 190.311 271.455 188.929 269.249 188.073C267.774 187.501 266.93 187.347 265.267 187.347C261.758 187.347 259.574 188.572 254.559 193.353C249.15 198.508 246.287 200.629 236.744 206.55C229.984 210.745 226.271 212.487 219.809 214.498C211.507 217.082 207.835 217.913 201.261 218.695C189.448 220.101 187.118 220.189 178.24 219.563C174.151 219.274 170.767 218.639 163.357 216.77C157.454 215.281 154.592 214.311 150.014 212.25C148.805 211.706 146.361 210.631 144.584 209.862C134.253 205.39 130.346 203.146 124.795 198.496C121.482 195.721 113.51 187.368 111.051 184.095C109.564 182.114 101.882 170.18 100.133 167.132C94.1809 156.759 90.2045 144.646 89.0968 133.513C88.7165 129.692 88.2374 121.418 88.3688 120.943C88.6853 119.798 89.285 119.621 93.4163 119.453C96.0299 119.347 97.6087 119.505 98.0654 119.918C98.7909 120.574 98.8217 120.781 98.9334 125.75C99.088 132.623 99.5114 136.089 100.848 141.424C102.023 146.115 103.636 150.703 105.676 155.159C106.504 156.966 109.887 163.407 112.581 168.304C113.946 170.786 116.559 174.743 118.31 176.983C121.327 180.84 127.492 187.29 131.331 190.604C143.502 201.113 157.469 206.874 174.648 208.47C177.705 208.754 187.382 208.706 190.923 208.39C197.968 207.761 203.342 206.993 204.429 206.462C208.237 204.601 208.041 198.066 204.047 193.746C202.429 191.996 201.234 191.39 198.219 190.791C196.618 190.473 195.503 190.453 193.594 190.708C192.254 190.887 191.481 190.891 188.535 190.738C181.314 190.36 177.81 190.109 175.821 189.824C168.691 188.805 160.138 185.624 153.02 181.344C150.779 179.996 146.452 177.001 143.908 175.037C141.126 172.888 137.313 168.768 132.799 163.029C128.219 157.207 126.495 154.302 124.236 148.595C121.612 141.967 120.611 138.188 119.672 131.368C118.777 124.867 118.651 123.397 118.654 119.524C118.657 115.513 118.849 113.503 119.673 108.839C121.039 101.111 123.377 93.717 126.216 88.1435C128.116 84.4137 129.771 82.0265 135.128 75.2854C139.289 70.0504 139.486 69.7748 140.413 67.8878C142.707 63.2218 142.488 60.181 139.601 56.5753C138.474 55.1685 137.454 54.4495 135.725 53.8424C134.616 53.4531 134.236 53.3959 132.419 53.344C129.112 53.2494 127.847 53.6796 125.138 55.8194C121.938 58.3472 118.472 62.1969 115.597 66.4158C111.052 73.0858 108.312 79.5536 105.076 91.2523C104.418 93.629 103.648 96.3976 103.365 97.4047C102.702 99.7583 101.145 104.14 100.854 104.472C100.647 104.708 100.323 104.722 96.7294 104.642C94.5845 104.595 92.6196 104.492 92.3627 104.415C92.0626 104.324 91.8511 104.14 91.7713 103.901C91.6385 103.503 91.89 99.5109 92.1805 97.4047C92.275 96.7199 92.6681 94.9071 93.0543 93.3764C94.8698 86.1792 97.1533 79.9634 100.373 73.4543C102.114 69.9344 103.523 67.5363 107.001 62.1749C111.187 55.7215 111.52 55.1028 111.82 53.2287C112.28 50.3503 110.839 47.6961 107.585 45.4303C105.911 44.2642 105.219 44.0541 102.8 43.9763ZM323.308 51.2085C318.092 51.2299 317.555 51.294 317.264 51.9321C317.14 52.2041 317.096 57.8366 317.096 73.3879C317.096 84.9858 317.043 94.475 316.977 94.475C316.804 94.475 316.244 93.8289 315.265 92.4974C313.636 90.2847 310.931 87.9615 308.637 86.8057C306.558 85.7583 304.173 85.0489 301.114 84.5681C299.876 84.3735 298.072 84.3132 291.912 84.2611L284.251 84.1964L282.266 84.5806C279.795 85.0589 277.21 85.8031 275.014 86.6686C272.801 87.5411 271.688 88.1089 270.074 89.1875C264.966 92.6006 262.175 97.7521 260.861 106.194C260.57 108.06 260.374 115.99 260.361 126.409C260.344 140.136 260.988 147.035 262.797 152.483C264.216 156.758 266.418 159.92 269.658 162.335C270.97 163.313 274.047 164.865 275.821 165.444C279.399 166.612 284.046 167.381 289.017 167.628C289.582 167.656 291.858 167.661 294.076 167.638C298.378 167.594 299.896 167.437 302.653 166.747C306.92 165.679 310.812 163.793 313.302 161.588C314.001 160.968 314.802 159.955 316.65 157.348C317.238 156.519 317.794 155.865 317.884 155.895C318.001 155.934 318.061 157.427 318.088 161.028L318.126 166.107H323.843H329.56V109.263C329.56 59.8417 329.532 52.3654 329.346 52.0076C328.944 51.2292 328.622 51.1867 323.308 51.2085ZM375.595 81.8292C373.852 81.8245 372.081 81.8641 370.29 81.9488C363.757 82.2574 361.032 82.5756 356.428 83.5675C348.617 85.2509 345.945 86.6312 343.582 90.2032C341.573 93.2408 340.606 96.5872 340.73 100.076C340.794 101.889 340.978 102.434 341.685 102.913C342.064 103.169 342.463 103.194 346.719 103.235C351.333 103.279 351.343 103.278 351.851 102.942C352.462 102.537 353.052 101.392 353.833 99.0893C354.752 96.3839 355.718 95.0445 357.314 94.2642C358.199 93.8318 361.464 93.2465 366.07 92.6949C369.809 92.2471 377.01 92.2077 380.073 92.6182C382.699 92.9702 387.077 93.7103 388.125 93.9795C390.323 94.5446 392.162 95.9482 393.04 97.7309C393.851 99.3763 394.644 104.191 394.965 109.419C395.114 111.845 395.04 120.801 394.87 120.975C394.838 121.008 394.432 120.739 393.967 120.377C392.585 119.302 390.277 117.777 389.247 117.259C386.658 115.957 382.454 115 377.287 114.535C374.467 114.281 366.473 114.194 363.357 114.383C356.39 114.806 349.453 115.825 347.22 116.754C345.004 117.675 342.807 119.478 341.491 121.456C338.423 126.066 337.056 134.384 337.908 143.255C338.697 151.474 339.424 154.613 341.145 157.224C343.282 160.468 345.74 162.034 351.299 163.695C355.609 164.982 360.201 165.721 365.386 165.961C368.471 166.103 373.897 166.027 376.334 165.806C380.13 165.463 383.983 164.658 387.174 163.542C390.594 162.347 392.668 160.899 394.256 158.6C394.6 158.102 394.926 157.631 394.981 157.552C395.043 157.463 395.157 157.474 395.289 157.583C395.44 157.708 395.528 158.285 395.603 159.625C395.786 162.942 395.913 163.631 396.424 164.094L396.87 164.499L401.888 164.461L406.905 164.422L407.1 163.543C407.419 162.102 407.59 150.486 407.514 135.491C407.449 122.664 407.349 117.142 406.977 105.72C406.715 97.7047 406.266 94.3063 405.146 91.8832C403.605 88.5463 401.08 86.2677 397.383 84.8782C396.031 84.3696 392.35 83.4242 390.304 83.06C385.798 82.2575 380.823 81.8433 375.595 81.8292ZM412.699 81.8452C411.535 81.8741 410.819 81.9472 410.705 82.0606C410.664 82.1017 410.865 82.9527 411.152 83.9518C411.663 85.7309 412.928 89.403 423.986 121.209C426.984 129.829 431.313 142.354 433.606 149.041C435.899 155.728 437.837 161.344 437.913 161.521C438.364 162.578 440.131 163.784 441.536 163.994C441.884 164.046 442.169 164.139 442.169 164.2C442.169 164.309 439.333 171.587 438.585 173.398C437.867 175.135 436.63 177.653 435.822 179.02C434.481 181.291 432.855 182.632 430.794 183.169C428.984 183.641 425.857 184.013 423.731 184.01L421.641 184.007V189.412V194.818L426.37 194.814C433.704 194.809 435.474 194.586 437.99 193.348C440.336 192.194 442.543 190.084 444.649 186.981C448.325 181.565 449.938 177.434 462.242 141.911C464.093 136.567 466.77 128.907 468.191 124.888C469.612 120.869 471.57 115.266 472.543 112.437C478.326 95.612 481.764 85.4228 482.112 84.0745C482.331 83.2286 482.543 82.4211 482.584 82.2801C482.654 82.0392 482.329 82.0237 477.216 82.0237C472.742 82.0237 471.7 82.0615 471.361 82.2366C470.709 82.5733 469.602 85.0882 467.654 90.6538C463.582 102.286 456.839 121.944 450.944 139.373C447.958 148.2 446.946 150.872 446.59 150.872C446.534 150.872 444.219 144.264 441.448 136.187C436.21 120.924 428.099 97.4014 425.025 88.5604C424.048 85.7504 423.141 83.2681 423.008 83.0443C422.876 82.8204 422.528 82.5026 422.234 82.3379C421.75 82.0658 421.305 82.0253 417.382 81.895C415.476 81.8316 413.863 81.8163 412.699 81.8452ZM154.273 84.8902C152.679 84.6626 151.028 85.0344 149.374 86.0137C146.204 87.8915 141.889 94.7305 139.041 102.392C136.696 108.699 135.812 113.308 135.812 119.231C135.812 123.419 136.4 128.072 137.494 132.544C138.676 137.375 141.512 144.394 143.714 147.941C145.554 150.905 148.833 154.835 151.393 157.146C153.446 158.999 157.555 162.474 158.739 163.358C162.836 166.417 169.178 169.359 174.941 170.873C178.432 171.79 182.965 172.545 186.745 172.839C189.118 173.024 191.76 172.91 196.812 172.405C201.821 171.904 203.92 171.575 206.613 170.871C213.726 169.01 220.767 165.326 226.407 160.511C228.808 158.463 233.187 154.061 234.685 152.19C237.91 148.165 240.865 142.548 242.909 136.558C244.942 130.6 245.585 125.812 245.272 118.983C244.766 107.943 243.361 102.459 239.232 95.4077C236.617 90.9411 235.28 89.1896 233.607 88.0402C230.212 85.7066 226.125 85.9581 223.602 88.6556C222.085 90.2777 221.349 92.0835 221.349 94.182C221.349 96.2131 221.787 97.3853 223.768 100.646C226.955 105.894 228.747 110.599 229.51 115.715C229.851 118.006 229.85 122.236 229.506 124.505C227.229 139.55 215.701 152.347 200.945 156.212C197.121 157.213 195.683 157.382 190.923 157.386C187.533 157.39 186.345 157.338 185.058 157.13C179.429 156.22 174.596 154.496 170.52 151.944C168.119 150.441 164.431 147.674 162.743 146.111C158.182 141.885 154.327 134.856 152.81 128.001C151.558 122.344 151.765 115.9 153.377 110.323C154.469 106.544 155.625 104.075 158.35 99.7013C159.288 98.1951 160.281 96.5155 160.557 95.9688C162.07 92.9676 161.474 90.007 158.824 87.3633C157.403 85.9448 155.867 85.1178 154.273 84.8902ZM295.061 95.1056C296.756 95.1478 298.388 95.2584 299.352 95.4226C302.119 95.8938 305.259 96.8314 306.989 97.7034C308.308 98.368 310.362 99.8022 311.495 100.85C314.245 103.393 315.982 106.779 316.718 111.028C317.069 113.058 317.419 121.672 317.441 128.826C317.461 135.36 317.38 136.497 316.635 140.105C315.994 143.212 314.541 146.893 313.231 148.727C312.419 149.864 310.71 151.492 309.472 152.309C306.666 154.16 301.692 155.802 297.448 156.278C291.52 156.944 285.379 156.202 280.382 154.217C277.553 153.094 276.502 152 275.616 149.261C274.264 145.078 274.029 143.14 273.636 132.928C273.329 124.991 273.58 112.839 274.14 108.464C274.533 105.397 275.309 102.338 276.112 100.692C276.742 99.3978 278.004 98.1538 279.298 97.5503C281.198 96.664 286.403 95.5615 290.396 95.1997C291.609 95.0897 293.366 95.0634 295.061 95.1056ZM67.599 96.5344C70.9826 96.7057 71.2211 96.7704 71.5728 97.6113C71.864 98.3076 72.01 100.214 71.8019 100.603C71.5608 101.053 70.6419 101.479 69.036 101.886C67.7281 102.218 65.8458 102.335 64.9706 102.139C64.1188 101.949 62.8143 101.452 62.4828 101.191C61.5968 100.495 61.4083 99.2699 61.9616 97.8056C62.4843 96.422 63.0151 96.3023 67.599 96.5344ZM371.415 124.3C372.765 124.314 374.141 124.472 375.967 124.78C377.499 125.038 379.875 125.412 381.246 125.611C388.285 126.631 390.465 127.343 392.238 129.2C394.011 131.057 394.724 133.892 394.905 139.812C395.025 143.727 394.533 146.382 393.345 148.231C392.677 149.271 391.224 150.57 390.023 151.2C386.968 152.804 381.402 153.936 375.09 154.237C373.448 154.316 371.489 154.409 370.737 154.445C368.131 154.568 363.928 154.15 360.48 153.425C357.163 152.727 355.84 152.083 354.042 150.289C351.515 147.767 350.779 145.297 350.766 139.3C350.753 133.624 351.647 130.234 353.646 128.367C355.412 126.719 357.082 126.127 361.849 125.46C363.324 125.253 365.652 124.907 367.023 124.69C368.742 124.418 370.065 124.286 371.415 124.3Z" stroke="white" stroke-width="18.1907" mask="url(#path-52-outside-1_940_5111)"/>
<path d="M334.092 196.491L334.09 196.481C333.915 195.83 333.742 195.417 333.61 195.178C333.569 195.104 333.538 195.057 333.519 195.031L333.519 195.031M334.092 196.491L333.519 195.031M334.092 196.491L334.095 196.5C334.414 197.661 334.636 199.731 334.636 202.92C334.636 206.097 334.416 208.229 334.085 209.493C333.908 210.17 333.727 210.625 333.576 210.913C333.488 211.081 333.427 211.16 333.406 211.185C333.195 211.344 333.075 211.358 332.977 211.358C332.879 211.358 332.759 211.344 332.548 211.185C332.527 211.16 332.466 211.081 332.378 210.913C332.227 210.625 332.046 210.17 331.869 209.493C331.538 208.229 331.319 206.097 331.319 202.92C331.319 199.731 331.54 197.661 331.859 196.5L331.862 196.491L331.864 196.481C332.039 195.83 332.212 195.417 332.344 195.178C332.385 195.104 332.416 195.057 332.435 195.031M334.092 196.491L332.435 195.031M333.519 195.031C333.292 194.865 333.137 194.831 332.977 194.831C332.818 194.831 332.662 194.865 332.435 195.031M333.519 195.031H332.435M332.435 195.031C332.435 195.031 332.435 195.031 332.435 195.031M332.435 195.031L332.435 195.031M280.272 221.514V224.697H283.455H313.553H316.736V221.514V215.31C317.444 216.809 318.319 218.18 319.376 219.407L319.39 219.423L319.404 219.439C322.924 223.417 327.541 225.394 332.977 225.394C338.413 225.394 343.018 223.417 346.498 219.424C347.572 218.195 348.462 216.822 349.181 215.319V215.819V221.514V224.697H352.365H382.463H385.646V221.514V220.853C387.207 222.065 388.993 223.039 390.971 223.791L390.98 223.795L390.989 223.798C393.912 224.891 397.228 225.394 400.871 225.394C404.052 225.394 407.056 224.944 409.859 224.011L409.881 224.004L409.902 223.996C412.74 223.006 415.172 221.534 417.069 219.503L417.082 219.489L417.095 219.475C419.144 217.226 420.15 214.472 420.15 211.403C420.15 208.335 419.14 205.589 416.985 203.45C416.501 202.969 415.985 202.528 415.441 202.125C415.793 201.798 416.123 201.452 416.429 201.087C418.037 199.169 418.842 196.885 418.842 194.379C418.842 190 416.948 186.434 413.291 184.053C409.892 181.773 405.565 180.795 400.609 180.795C397.719 180.795 394.958 181.282 392.352 182.279C389.874 183.204 387.504 184.513 385.242 186.18L382.367 188.298L384.801 190.912L390.428 196.955L392.192 198.849V199.318V206.29V207.406L390.743 206.208L388.718 208.698L385.646 212.475V209.963H382.463H376.809C378.635 207.95 380.178 205.867 381.417 203.712C382.861 201.276 383.683 198.713 383.683 196.064C383.683 193.066 382.924 190.302 381.311 187.899C379.741 185.558 377.592 183.794 374.965 182.599C372.339 181.366 369.404 180.795 366.236 180.795C362.866 180.795 359.794 181.326 357.114 182.511C354.519 183.621 352.038 185.348 349.659 187.587L348.225 188.937C347.705 188.111 347.12 187.336 346.467 186.614C342.979 182.711 338.383 180.795 332.977 180.795C327.568 180.795 322.957 182.713 319.43 186.605L319.427 186.608C315.854 190.562 314.352 196.197 314.352 202.92C314.352 205.425 314.561 207.781 315.003 209.963H313.553H307.899C309.726 207.95 311.268 205.867 312.507 203.712C313.952 201.276 314.773 198.713 314.773 196.064C314.773 193.066 314.014 190.302 312.401 187.899C310.831 185.558 308.683 183.794 306.055 182.599C303.429 181.366 300.494 180.795 297.326 180.795C293.957 180.795 290.884 181.326 288.205 182.511C285.609 183.621 283.128 185.348 280.75 187.587L278.215 189.973L280.818 192.285L286.837 197.631L288.951 199.508L291.065 197.631C291.948 196.846 292.862 196.154 293.807 195.55L293.84 195.529L293.873 195.507C294.422 195.136 295.02 194.947 295.756 194.947C296.703 194.947 297.106 195.187 297.306 195.365L297.362 195.414L297.42 195.461C297.444 195.48 297.486 195.515 297.537 195.645C297.597 195.799 297.676 196.107 297.676 196.645C297.676 197.324 297.358 198.443 296.069 200.078C294.711 201.801 292.778 203.764 290.214 205.967L290.204 205.976L290.194 205.984C287.608 208.242 284.691 210.699 281.441 213.354L280.272 214.309V215.819V221.514ZM350.351 213.354L349.848 213.765C351.053 210.608 351.602 206.956 351.602 202.92C351.602 199.05 351.091 195.539 349.965 192.496L355.747 197.631L357.861 199.508L359.975 197.631C360.858 196.846 361.772 196.154 362.716 195.55L362.75 195.529L362.782 195.507C363.332 195.136 363.929 194.947 364.666 194.947C365.612 194.947 366.016 195.187 366.216 195.365L366.272 195.414L366.33 195.461C366.353 195.48 366.396 195.515 366.447 195.645C366.507 195.799 366.586 196.107 366.586 196.645C366.586 197.324 366.268 198.443 364.979 200.078C363.62 201.801 361.688 203.764 359.124 205.967L359.114 205.976L359.104 205.984C356.518 208.242 353.601 210.699 350.351 213.354ZM399.288 195.896C398.525 196.014 397.565 196.093 396.391 196.122C396.858 195.831 397.284 195.599 397.669 195.42C398.356 195.118 399.148 194.947 400.086 194.947C400.609 194.947 400.959 195 401.174 195.056C401.19 195.06 401.206 195.064 401.22 195.068C401.22 195.088 401.221 195.11 401.221 195.134C401.221 195.167 401.219 195.187 401.217 195.197C401.202 195.218 401.123 195.322 400.882 195.475C400.718 195.563 400.252 195.747 399.288 195.896ZM396.52 210.345C395.969 210.091 395.431 209.801 394.907 209.474H395.375C398.239 209.474 400.11 209.651 401.169 209.907L401.179 209.91L401.189 209.912C401.769 210.048 402.138 210.189 402.355 210.297C402.409 210.325 402.448 210.347 402.474 210.363C402.492 210.4 402.51 210.454 402.521 210.542C402.045 210.777 401.172 211.009 399.693 211.009C398.681 211.009 397.629 210.803 396.52 210.345Z" fill="url(#paint1_linear_940_5111)" stroke="white" stroke-width="6.36675"/>
<path d="M194.948 101.738C194.93 102.602 194.199 104.071 193.335 104.053C192.471 104.035 190.769 101.995 190.787 101.131C190.805 100.267 192.552 100.124 193.416 100.142C194.28 100.16 194.966 100.875 194.948 101.738Z" fill="white"/>
<path d="M191.91 33.8816C191.892 34.7455 191.183 35.1708 190.319 35.153C189.455 35.1353 189.024 34.6866 189.042 33.8226C189.06 32.9587 189.514 32.2673 190.378 32.2851C191.242 32.3029 191.928 33.0176 191.91 33.8816Z" fill="white"/>
<path d="M195.166 40.4477C195.148 41.3116 194.433 41.9976 193.569 41.9799C192.705 41.9621 193.59 40.937 193.08 40.4048C193.097 39.5409 192.769 38.8334 193.633 38.8512C194.497 38.869 195.183 39.5837 195.166 40.4477Z" fill="white"/>
<path d="M185.454 56.0699C185.436 56.9339 185.243 57.6305 184.379 57.6127C183.515 57.595 182.829 56.8802 182.847 56.0162C182.865 55.1523 183.579 54.4663 184.443 54.4841C185.307 54.5018 185.472 55.206 185.454 56.0699Z" fill="white"/>
<path d="M186.259 67.6518C186.241 68.5158 185.542 68.4196 184.678 68.4018C183.814 68.3841 183.112 68.4515 183.13 67.5875C183.148 66.7236 183.862 66.0376 184.726 66.0554C185.59 66.0731 186.276 66.7879 186.259 67.6518Z" fill="white"/>
<path d="M197.595 125.268C197.578 126.131 196.863 126.817 195.999 126.8C195.135 126.782 194.188 126.062 194.206 125.198C194.224 124.334 195.199 123.653 196.063 123.671C196.927 123.689 197.613 124.404 197.595 125.268Z" fill="white"/>
<path d="M195.183 90.2668C195.166 91.1307 194.445 92.0774 193.581 92.0597C192.718 92.0419 191.255 91.0503 191.273 90.1864C191.29 89.3224 192.787 88.6525 193.651 88.6703C194.515 88.6881 195.201 89.4028 195.183 90.2668Z" fill="white"/>
<path d="M192.773 55.2661C192.755 56.13 192.056 56.0338 191.192 56.0161C190.328 55.9983 189.626 56.0657 189.644 55.2018C189.662 54.3378 190.382 53.3911 191.246 53.4089C192.11 53.4266 192.791 54.4021 192.773 55.2661Z" fill="white"/>
<path d="M190.364 20.2649C190.346 21.1288 190.435 20.788 189.571 20.7702C188.707 20.7525 187.218 21.0645 187.235 20.2006C187.253 19.3366 187.968 18.6506 188.832 18.6684C189.696 18.6861 190.382 19.4009 190.364 20.2649Z" fill="white"/>
<path d="M178.359 134.784C178.341 135.648 177.365 136.328 176.502 136.31C175.638 136.293 174.952 135.578 174.969 134.714C174.987 133.85 175.718 132.382 176.582 132.4C177.446 132.417 178.376 133.92 178.359 134.784Z" fill="white"/>
<path d="M191.754 142.884C191.737 143.748 190.208 145.982 189.344 145.964C188.48 145.946 187.794 145.232 187.812 144.368C187.829 143.504 188.544 142.818 189.408 142.836C190.272 142.853 191.772 142.02 191.754 142.884Z" fill="white"/>
<path d="M188.155 127.682C188.137 128.546 187.423 129.232 186.559 129.214C185.695 129.196 184.487 128.471 184.505 127.607C184.523 126.743 185.237 126.057 186.101 126.075C186.965 126.092 188.173 126.818 188.155 127.682Z" fill="white"/>
<path d="M189.237 113.098C189.219 113.962 188.244 114.642 187.38 114.625C186.516 114.607 185.83 113.892 185.848 113.028C185.866 112.164 186.591 110.957 187.455 110.975C188.319 110.992 189.255 112.234 189.237 113.098Z" fill="white"/>
<path d="M184.819 86.9238C184.801 87.7877 183.565 88.463 182.701 88.4452C181.837 88.4275 181.151 87.7127 181.169 86.8487C181.187 85.9848 181.902 85.2988 182.765 85.3166C183.629 85.3343 184.837 86.0598 184.819 86.9238Z" fill="white"/>
<path d="M188.284 121.425C188.266 122.288 187.546 123.235 186.682 123.217C185.818 123.2 185.138 122.224 185.155 121.36C185.173 120.496 185.888 119.81 186.752 119.828C187.616 119.846 188.302 120.561 188.284 121.425Z" fill="white"/>
<path d="M184.487 103.088C184.469 103.952 183.233 104.628 182.369 104.61C181.505 104.592 180.819 103.877 180.837 103.013C180.855 102.149 181.57 101.463 182.433 101.481C183.297 101.499 184.505 102.224 184.487 103.088Z" fill="white"/>
<path d="M195.507 74.6235C195.489 75.4874 195.301 75.9234 194.437 75.9057C193.687 74.3253 192.899 74.5699 191.857 74.5485C191.874 73.6845 193.11 73.0092 193.974 73.027C194.838 73.0448 195.524 73.7595 195.507 74.6235Z" fill="white"/>
<path d="M79.4529 96.1289C79.426 94.8196 78.6794 92.5871 77.8154 92.6049C76.9515 92.6226 75.2707 95.6956 75.2976 97.0049C75.3245 98.3143 77.0733 98.5496 77.9373 98.5319C78.8012 98.5141 79.4798 97.4383 79.4529 96.1289Z" fill="white"/>
<path d="M77.1317 198.922C77.1048 197.612 76.3907 196.96 75.5268 196.978C74.6628 196.996 74.2368 197.671 74.2638 198.981C74.2907 200.29 74.7522 201.342 75.6161 201.325C76.4801 201.307 77.1586 200.231 77.1317 198.922Z" fill="white"/>
<path d="M80.3189 189.006C80.292 187.697 79.5698 186.65 78.7058 186.668C77.8419 186.685 78.7383 188.248 78.2331 189.049C78.26 190.359 77.9394 191.427 78.8033 191.409C79.6672 191.392 80.3458 190.316 80.3189 189.006Z" fill="white"/>
<path d="M70.4393 165.231C70.4124 163.921 70.2117 162.864 69.3477 162.882C68.4838 162.899 67.8052 163.975 67.8321 165.284C67.859 166.594 68.5812 167.641 69.4452 167.623C70.3091 167.605 70.4662 166.54 70.4393 165.231Z" fill="white"/>
<path d="M71.1229 147.689C71.096 146.38 70.3981 146.518 69.5342 146.536C68.6702 146.553 67.9673 146.444 67.9942 147.753C68.0211 149.063 68.7433 150.11 69.6073 150.092C70.4712 150.074 71.1498 148.998 71.1229 147.689Z" fill="white"/>
<path d="M81.8504 60.5031C81.8235 59.1938 81.1013 58.1467 80.2373 58.1645C79.3734 58.1823 78.4341 59.2635 78.461 60.5728C78.4879 61.8822 79.4709 62.9238 80.3348 62.9061C81.1988 62.8883 81.8773 61.8125 81.8504 60.5031Z" fill="white"/>
<path d="M79.8093 113.515C79.7824 112.205 79.0521 110.763 78.1882 110.781C77.3242 110.799 75.8716 112.286 75.8985 113.595C75.9254 114.904 77.4298 115.935 78.2938 115.918C79.1577 115.9 79.8363 114.824 79.8093 113.515Z" fill="white"/>
<path d="M77.7691 166.527C77.7421 165.217 77.0443 165.356 76.1804 165.373C75.3164 165.391 74.6135 165.282 74.6404 166.591C74.6673 167.9 75.3976 169.343 76.2616 169.325C77.1255 169.307 77.796 167.836 77.7691 166.527Z" fill="white"/>
<path d="M75.7303 219.539C75.7034 218.229 75.7958 218.747 74.9319 218.764C74.0679 218.782 72.5747 218.293 72.6017 219.603C72.6286 220.912 73.3508 221.959 74.2147 221.941C75.0787 221.924 75.7572 220.848 75.7303 219.539Z" fill="white"/>
<path d="M62.5096 45.879C62.4827 44.5697 61.4998 43.528 60.6358 43.5457C59.7719 43.5635 59.0933 44.6393 59.1203 45.9487C59.1472 47.258 59.8937 49.4905 60.7577 49.4727C61.6216 49.455 62.5365 47.1884 62.5096 45.879Z" fill="white"/>
<path d="M75.8227 33.7466C75.7958 32.4373 74.2427 29.0354 73.3787 29.0532C72.5148 29.071 71.8362 30.1468 71.8631 31.4561C71.89 32.7655 72.6122 33.8125 73.4762 33.7948C74.3401 33.777 75.8496 35.056 75.8227 33.7466Z" fill="white"/>
<path d="M72.3826 56.7441C72.3557 55.4348 71.6335 54.3877 70.7695 54.4055C69.9056 54.4232 68.7056 55.5098 68.7325 56.8191C68.7594 58.1285 69.4816 59.1755 70.3456 59.1578C71.2095 59.14 72.4095 58.0535 72.3826 56.7441Z" fill="white"/>
<path d="M73.6193 78.8552C73.5924 77.5459 72.6095 76.5042 71.7455 76.5219C70.8816 76.5397 70.203 77.6155 70.2299 78.9249C70.2569 80.2342 70.9953 82.0715 71.8592 82.0538C72.7232 82.036 73.6462 80.1646 73.6193 78.8552Z" fill="white"/>
<path d="M69.4783 118.47C69.4514 117.161 68.2078 116.125 67.3438 116.143C66.4799 116.16 65.8013 117.236 65.8282 118.545C65.8551 119.855 66.5773 120.902 67.4413 120.884C68.3052 120.866 69.5052 119.78 69.4783 118.47Z" fill="white"/>
<path d="M72.578 66.2275C72.551 64.9181 71.8207 63.476 70.9568 63.4937C70.0928 63.5115 69.4224 64.9825 69.4493 66.2918C69.4762 67.6012 70.1984 68.6482 71.0624 68.6304C71.9263 68.6127 72.6049 67.5368 72.578 66.2275Z" fill="white"/>
<path d="M68.9744 93.9726C68.9475 92.6633 67.7039 91.627 66.8399 91.6447C65.9759 91.6625 65.2974 92.7383 65.3243 94.0477C65.3512 95.357 66.0734 96.4041 66.9374 96.3863C67.8013 96.3685 69.0013 95.282 68.9744 93.9726Z" fill="white"/>
<path d="M80.2967 137.223C80.2697 135.913 80.0771 135.251 79.2132 135.268C78.4797 137.655 77.6895 137.276 76.6466 137.298C76.6735 138.607 77.9171 139.643 78.7811 139.626C79.645 139.608 80.3236 138.532 80.2967 137.223Z" fill="white"/>
<path d="M126.884 168.477C126.866 167.613 126.135 166.145 125.271 166.163C124.407 166.181 122.705 168.22 122.723 169.084C122.74 169.948 124.487 170.091 125.351 170.074C126.215 170.056 126.901 169.341 126.884 168.477Z" fill="white"/>
<path d="M123.846 236.334C123.828 235.47 123.118 235.045 122.254 235.063C121.39 235.08 120.96 235.529 120.978 236.393C120.995 237.257 121.449 237.948 122.313 237.93C123.177 237.913 123.863 237.198 123.846 236.334Z" fill="white"/>
<path d="M127.101 229.768C127.083 228.904 126.369 228.218 125.505 228.236C124.641 228.253 125.526 229.279 125.015 229.811C125.033 230.675 124.705 231.382 125.569 231.364C126.433 231.347 127.119 230.632 127.101 229.768Z" fill="white"/>
<path d="M117.39 214.146C117.372 213.282 117.178 212.585 116.314 212.603C115.451 212.621 114.765 213.335 114.782 214.199C114.8 215.063 115.515 215.749 116.379 215.732C117.243 215.714 117.407 215.01 117.39 214.146Z" fill="white"/>
<path d="M118.194 202.564C118.176 201.7 117.478 201.796 116.614 201.814C115.75 201.831 115.048 201.764 115.065 202.628C115.083 203.492 115.798 204.178 116.662 204.16C117.526 204.142 118.212 203.428 118.194 202.564Z" fill="white"/>
<path d="M129.531 144.948C129.513 144.084 128.799 143.398 127.935 143.416C127.071 143.434 126.124 144.154 126.142 145.018C126.159 145.882 127.135 146.562 127.999 146.545C128.863 146.527 129.549 145.812 129.531 144.948Z" fill="white"/>
<path d="M127.119 179.949C127.101 179.085 126.381 178.138 125.517 178.156C124.653 178.174 123.19 179.165 123.208 180.029C123.226 180.893 124.723 181.563 125.587 181.545C126.451 181.528 127.137 180.813 127.119 179.949Z" fill="white"/>
<path d="M124.708 214.95C124.691 214.086 123.992 214.182 123.128 214.2C122.264 214.217 121.562 214.15 121.58 215.014C121.597 215.878 122.318 216.824 123.182 216.807C124.045 216.789 124.726 215.813 124.708 214.95Z" fill="white"/>
<path d="M122.3 249.95C122.282 249.087 122.371 249.427 121.507 249.445C120.643 249.463 119.153 249.151 119.171 250.015C119.189 250.879 119.903 251.565 120.767 251.547C121.631 251.529 122.317 250.814 122.3 249.95Z" fill="white"/>
<path d="M110.294 135.432C110.276 134.568 109.301 133.887 108.437 133.905C107.573 133.923 106.887 134.637 106.905 135.501C106.923 136.365 107.653 137.834 108.517 137.816C109.381 137.798 110.312 136.296 110.294 135.432Z" fill="white"/>
<path d="M123.69 127.332C123.672 126.468 122.143 124.233 121.279 124.251C120.415 124.269 119.729 124.984 119.747 125.848C119.765 126.712 120.48 127.397 121.344 127.38C122.207 127.362 123.708 128.195 123.69 127.332Z" fill="white"/>
<path d="M120.091 142.533C120.073 141.67 119.358 140.984 118.494 141.001C117.63 141.019 116.423 141.745 116.44 142.609C116.458 143.472 117.173 144.158 118.037 144.141C118.901 144.123 120.108 143.397 120.091 142.533Z" fill="white"/>
<path d="M121.173 157.118C121.155 156.254 120.179 155.573 119.315 155.591C118.452 155.609 117.766 156.323 117.783 157.187C117.801 158.051 118.527 159.259 119.39 159.241C120.254 159.223 121.19 157.982 121.173 157.118Z" fill="white"/>
<path d="M116.755 183.292C116.737 182.428 115.501 181.753 114.637 181.77C113.773 181.788 113.087 182.503 113.105 183.367C113.122 184.231 113.837 184.917 114.701 184.899C115.565 184.881 116.772 184.156 116.755 183.292Z" fill="white"/>
<path d="M120.22 148.791C120.202 147.927 119.482 146.98 118.618 146.998C117.754 147.016 117.073 147.991 117.091 148.855C117.109 149.719 117.823 150.405 118.687 150.388C119.551 150.37 120.237 149.655 120.22 148.791Z" fill="white"/>
<path d="M116.423 167.127C116.405 166.263 115.169 165.588 114.305 165.606C113.441 165.624 112.755 166.338 112.773 167.202C112.79 168.066 113.505 168.752 114.369 168.734C115.233 168.717 116.44 167.991 116.423 167.127Z" fill="white"/>
<path d="M127.442 195.592C127.424 194.728 127.236 194.292 126.372 194.31C125.622 195.89 124.835 195.646 123.792 195.667C123.81 196.531 125.046 197.206 125.91 197.189C126.774 197.171 127.46 196.456 127.442 195.592Z" fill="white"/>
<defs>
<linearGradient id="paint0_linear_940_5111" x1="270.432" y1="258.095" x2="270.432" y2="10.0952" gradientUnits="userSpaceOnUse">
<stop stop-color="#355D8F"/>
<stop offset="0.515625" stop-color="#0096FF"/>
<stop offset="1" stop-color="#00D7FF"/>
</linearGradient>
<linearGradient id="paint1_linear_940_5111" x1="349.949" y1="183.978" x2="349.923" y2="222.169" gradientUnits="userSpaceOnUse">
<stop stop-color="#0066FF"/>
<stop offset="0.0001" stop-color="#0066FF" stop-opacity="0.890625"/>
<stop offset="1" stop-color="#2C67A3"/>
</linearGradient>
</defs>
</svg>
