<svg width="64" height="128" viewBox="0 0 64 130" fill="none" xmlns="http://www.w3.org/2000/svg">
<path d="M61.0794 30.6363C61.0794 19.8943 59.8748 12.566 54.9161 8.27619C52.4441 6.13762 49.2786 4.96599 45.5222 4.30646C41.7795 3.64933 37.2349 3.46593 31.8313 3.46593C26.4286 3.46593 21.9005 3.64921 18.1834 4.30706C14.4514 4.96755 11.3153 6.1424 8.87712 8.29169C6.41383 10.4631 4.92687 13.3944 4.05101 17.0562C3.18534 20.6753 2.88 25.1615 2.88 30.6363V123.248C2.88 125.466 4.67753 127.263 6.89488 127.263H27.2339C29.4512 127.263 31.2487 125.466 31.2487 123.248V103.963H31.8202V123.248C31.8202 125.466 33.6178 127.263 35.8351 127.263H57.0645C59.2819 127.263 61.0794 125.466 61.0794 123.248V30.6363ZM31.8202 79.1557H31.2487V30.6363C31.2487 30.3478 31.253 30.1101 31.2627 29.9094C31.344 29.9068 31.4343 29.9053 31.5345 29.9053C31.6347 29.9053 31.725 29.9068 31.8063 29.9094C31.816 30.1101 31.8202 30.3478 31.8202 30.6363V79.1557ZM31.3239 29.3566C31.324 29.3567 31.3235 29.3585 31.3223 29.3621C31.3233 29.3583 31.3239 29.3566 31.3239 29.3566ZM31.745 29.3566C31.7451 29.3566 31.7456 29.3584 31.7466 29.3621C31.7455 29.3585 31.745 29.3567 31.745 29.3566Z" fill="#090068" stroke="white" stroke-width="5.06813"/>
</svg>
