<svg width="48" height="128" viewBox="0 0 48 128" fill="none" xmlns="http://www.w3.org/2000/svg">
<path d="M45.0588 121.248V103.581C45.0588 101.363 43.2613 99.5656 41.0439 99.5656H32.147V55.3612H40.3018C42.5192 55.3612 44.3167 53.5636 44.3167 51.3463V35.3113C44.3167 33.0939 42.5192 31.2964 40.3018 31.2964H32.147V27.7567H40.8955C43.1129 27.7567 44.9104 25.9591 44.9104 23.7418V6.9647C44.9104 4.74735 43.1129 2.94982 40.8955 2.94982H7.05113C4.83376 2.94982 3.03625 4.74737 3.03625 6.96471V121.248C3.03625 123.465 4.83376 125.263 7.05113 125.263H41.0439C43.2613 125.263 45.0588 123.465 45.0588 121.248Z" fill="#090068" stroke="white" stroke-width="5.06813"/>
</svg>
