<svg width="68" height="128" viewBox="0 0 68 128" fill="none" xmlns="http://www.w3.org/2000/svg">
<path d="M64.9694 121.248V6.9647C64.9694 4.74734 63.1719 2.94982 60.9546 2.94982H43.8807C41.6633 2.94982 39.8658 4.74735 39.8658 6.9647V37.9243L34.569 6.30145C34.2449 4.367 32.5706 2.94982 30.6092 2.94982H7.51988C5.30251 2.94982 3.505 4.74737 3.505 6.96471V121.248C3.505 123.465 5.30252 125.263 7.51988 125.263H24.4454C26.6627 125.263 28.4603 123.465 28.4603 121.248V89.4655L34.7819 122.014C35.1484 123.9 36.8009 125.263 38.7232 125.263H60.9546C63.1719 125.263 64.9694 123.465 64.9694 121.248Z" fill="#090068" stroke="white" stroke-width="5.06813"/>
</svg>
