<svg width="65" height="128" viewBox="0 0 65 128" fill="none" xmlns="http://www.w3.org/2000/svg">
<path d="M61.7551 29.3781C61.7551 24.0907 61.4595 19.7351 60.5917 16.2106C59.7113 12.6352 58.2057 9.7681 55.7002 7.64894C53.2317 5.56116 50.051 4.42029 46.2451 3.77611C42.4475 3.13332 37.7979 2.94982 32.2101 2.94982H6.82847C4.6111 2.94982 2.81359 4.74737 2.81359 6.96471V121.248C2.81359 123.465 4.61112 125.263 6.82847 125.263H27.9095C30.1269 125.263 31.9244 123.465 31.9244 121.248V80.8879H32.2101C37.7979 80.8879 42.4475 80.7044 46.2451 80.0616C50.051 79.4175 53.2317 78.2766 55.7002 76.1888C58.2057 74.0696 59.7113 71.2026 60.5917 67.6271C61.4595 64.1026 61.7551 59.747 61.7551 54.4596V29.3781ZM32.2101 56.3779H31.9244V28.6471H32.2101C32.3103 28.6471 32.4006 28.6486 32.4819 28.6512C32.4916 28.8519 32.4959 29.0897 32.4959 29.3781V55.6469C32.4959 55.9354 32.4916 56.1731 32.4819 56.3738C32.4006 56.3764 32.3103 56.3779 32.2101 56.3779ZM32.4207 28.0985C32.4207 28.0984 32.4212 28.1001 32.4222 28.1037C32.4211 28.1003 32.4206 28.0985 32.4207 28.0985ZM32.4207 56.9266C32.4206 56.9265 32.4211 56.9247 32.4222 56.9214C32.4212 56.925 32.4207 56.9267 32.4207 56.9266Z" fill="#090068" stroke="white" stroke-width="5.06813"/>
</svg>
