<svg width="65" height="128" viewBox="0 0 65 132" fill="none" xmlns="http://www.w3.org/2000/svg">
<path d="M32.5767 42.6576V30.6363C32.5767 30.3478 32.581 30.1101 32.5907 29.9094C32.672 29.9068 32.7622 29.9053 32.8625 29.9053C32.9627 29.9053 33.053 29.9068 33.1342 29.9094C33.144 30.1101 33.1482 30.3478 33.1482 30.6363V43.9966C33.1482 44.8262 33.3998 45.597 33.8308 46.2369C33.5482 45.9861 33.3434 45.7614 33.188 45.5473C32.8131 45.0307 32.5767 44.3699 32.5767 42.6576ZM32.6519 29.3566C32.652 29.3567 32.6515 29.3586 32.6503 29.3621C32.6513 29.3583 32.6519 29.3566 32.6519 29.3566ZM33.073 29.3566C33.073 29.3566 33.0736 29.3583 33.0746 29.3621C33.0735 29.3585 33.073 29.3567 33.073 29.3566ZM37.4301 48.5992C37.204 48.4725 37.0395 48.3803 36.9467 48.3274C36.6909 48.1788 36.4516 48.0372 36.2276 47.9019C36.5277 47.9736 36.841 48.0115 37.1631 48.0115H57.7989C60.0162 48.0115 61.8138 46.214 61.8138 43.9966V30.6363C61.8138 25.162 61.5085 20.6741 60.6373 17.0529C59.7554 13.3874 58.2562 10.4544 55.7706 8.28388C53.3128 6.13763 50.1498 4.96544 46.3801 4.30617C42.6237 3.64923 38.042 3.46593 32.5656 3.46593C27.0533 3.46593 22.4614 3.64913 18.7109 4.30631C14.9467 4.96592 11.7996 6.14 9.36581 8.29565C6.90617 10.4742 5.44601 13.4131 4.59406 17.0708C3.75208 20.6858 3.46593 25.1686 3.46593 30.6363V42.2124C3.46593 47.6726 3.63616 51.9738 4.76833 55.6009C5.95174 59.3923 8.12009 62.2753 11.6813 65.1109C15.92 68.5741 24.7162 73.5092 28.5146 75.5939H8.07446C5.8571 75.5939 4.05958 77.3914 4.05958 79.6088V101.429C4.05958 106.983 4.38401 111.518 5.27239 115.167C6.17094 118.858 7.68336 121.795 10.1539 123.963C12.6002 126.109 15.7295 127.274 19.4278 127.925C23.1099 128.573 27.5732 128.747 32.8625 128.747C38.452 128.747 43.1086 128.555 46.9148 127.883C50.7339 127.21 53.9214 126.018 56.3885 123.85C58.8832 121.659 60.3755 118.705 61.2489 115.028C62.1118 111.395 62.4074 106.899 62.4074 101.429V82.4319C62.4074 76.4305 62.2848 71.8544 60.8828 67.9883C59.4162 63.9442 56.6702 60.941 52.1652 57.6777C47.4679 54.2253 39.6028 49.8169 37.4301 48.5992ZM32.5767 79.6088C32.5767 78.9466 32.4164 78.3219 32.1325 77.7713C32.4336 78.016 32.6213 78.2172 32.7483 78.395C32.9621 78.6943 33.1482 79.1227 33.1482 80.3541V101.429C33.1482 101.717 33.144 101.955 33.1342 102.155C33.053 102.158 32.9627 102.16 32.8625 102.16C32.7622 102.16 32.672 102.158 32.5907 102.155C32.581 101.955 32.5767 101.717 32.5767 101.429V79.6088ZM33.073 102.708C33.073 102.708 33.0735 102.706 33.0746 102.703C33.0736 102.706 33.073 102.708 33.073 102.708ZM32.6519 102.708C32.6519 102.708 32.6513 102.706 32.6503 102.703C32.6515 102.706 32.652 102.708 32.6519 102.708Z" fill="#090068" stroke="white" stroke-width="5.06813"/>
</svg>
