<svg width="49" height="48" viewBox="0 0 49 48" fill="none" xmlns="http://www.w3.org/2000/svg">
<g filter="url(#filter0_d_395_3587)">
<path d="M30.4906 22.5854L30.4916 22.5864C30.8643 22.9591 31.078 23.4659 31.078 24C31.078 24.5341 30.8643 25.0409 30.4916 25.4136L30.4906 25.4146L23.5167 32.3485C23.1322 32.7561 22.6171 32.94 22.118 32.94C21.5961 32.94 21.0856 32.7546 20.6845 32.3536L20.6844 32.3536L20.6786 32.3475C19.9144 31.557 19.905 30.3023 20.7076 29.5234L26.2497 24L20.7076 18.4767C19.9083 17.7008 19.9092 16.4218 20.6845 15.6464C21.4751 14.8558 22.7338 14.8458 23.5139 15.6487L30.4906 22.5854ZM44.498 24C44.498 13.2376 35.7441 4.50185 25.0015 4.5L24.4489 4.50759C13.9387 4.79858 5.49805 13.4198 5.49805 24C5.49805 34.7442 14.2345 43.5 24.998 43.5C35.7419 43.5 44.498 34.7439 44.498 24Z" fill="#F3E9DD" stroke="#16052B"/>
</g>
<defs>
<filter id="filter0_d_395_3587" x="4.99805" y="4" width="42" height="42" filterUnits="userSpaceOnUse" color-interpolation-filters="sRGB">
<feFlood flood-opacity="0" result="BackgroundImageFix"/>
<feColorMatrix in="SourceAlpha" type="matrix" values="0 0 0 0 0 0 0 0 0 0 0 0 0 0 0 0 0 0 127 0" result="hardAlpha"/>
<feOffset dx="2" dy="2"/>
<feComposite in2="hardAlpha" operator="out"/>
<feColorMatrix type="matrix" values="0 0 0 0 0 0 0 0 0 0 0 0 0 0 0 0 0 0 1 0"/>
<feBlend mode="normal" in2="BackgroundImageFix" result="effect1_dropShadow_395_3587"/>
<feBlend mode="normal" in="SourceGraphic" in2="effect1_dropShadow_395_3587" result="shape"/>
</filter>
</defs>
</svg>
